<mxfile host="app.diagrams.net" modified="2023-03-21T15:18:29.068Z" agent="5.0 (Windows NT 10.0; Win64; x64) AppleWebKit/537.36 (KHTML, like Gecko) Chrome/112.0.0.0 Safari/537.36 Edg/112.0.0.0" etag="IdcpNhJvXqXx5XVxTd4y" version="21.0.8" type="github" pages="4">
  <diagram id="8cfLSDVFYSSkYeuZr6Ks" name="3dunet">
    <mxGraphModel dx="1270" dy="751" grid="1" gridSize="10" guides="1" tooltips="1" connect="1" arrows="1" fold="1" page="1" pageScale="1" pageWidth="1169" pageHeight="827" math="0" shadow="0">
      <root>
        <mxCell id="0" />
        <mxCell id="1" parent="0" />
        <mxCell id="XCCGsWcUAZ_EwUzaCA__-7" value="" style="group" parent="1" vertex="1" connectable="0">
          <mxGeometry x="190" y="199" width="140" height="120" as="geometry" />
        </mxCell>
        <mxCell id="XCCGsWcUAZ_EwUzaCA__-2" value="" style="rounded=1;whiteSpace=wrap;html=1;rotation=-90;container=0;" parent="XCCGsWcUAZ_EwUzaCA__-7" vertex="1">
          <mxGeometry x="10" y="45" width="120" height="30" as="geometry" />
        </mxCell>
        <mxCell id="XCCGsWcUAZ_EwUzaCA__-1" value="" style="rounded=1;whiteSpace=wrap;html=1;rotation=-90;container=0;" parent="XCCGsWcUAZ_EwUzaCA__-7" vertex="1">
          <mxGeometry x="-45" y="45" width="120" height="30" as="geometry" />
        </mxCell>
        <mxCell id="XCCGsWcUAZ_EwUzaCA__-3" value="" style="edgeStyle=orthogonalEdgeStyle;rounded=0;orthogonalLoop=1;jettySize=auto;html=1;strokeWidth=3;startSize=3;endSize=3;endArrow=block;endFill=1;jumpSize=3;" parent="XCCGsWcUAZ_EwUzaCA__-7" source="XCCGsWcUAZ_EwUzaCA__-1" target="XCCGsWcUAZ_EwUzaCA__-2" edge="1">
          <mxGeometry relative="1" as="geometry" />
        </mxCell>
        <mxCell id="XCCGsWcUAZ_EwUzaCA__-8" value="" style="group" parent="1" vertex="1" connectable="0">
          <mxGeometry x="190" y="359" width="140" height="120" as="geometry" />
        </mxCell>
        <mxCell id="XCCGsWcUAZ_EwUzaCA__-9" value="" style="rounded=1;whiteSpace=wrap;html=1;rotation=-90;container=0;" parent="XCCGsWcUAZ_EwUzaCA__-8" vertex="1">
          <mxGeometry x="65" y="45" width="120" height="30" as="geometry" />
        </mxCell>
        <mxCell id="XCCGsWcUAZ_EwUzaCA__-12" value="" style="rounded=1;whiteSpace=wrap;html=1;rotation=-90;container=0;" parent="XCCGsWcUAZ_EwUzaCA__-8" vertex="1">
          <mxGeometry x="10" y="45" width="120" height="30" as="geometry" />
        </mxCell>
        <mxCell id="XCCGsWcUAZ_EwUzaCA__-13" value="" style="edgeStyle=orthogonalEdgeStyle;rounded=0;orthogonalLoop=1;jettySize=auto;html=1;strokeWidth=3;startSize=3;endSize=3;endArrow=block;endFill=1;jumpSize=3;" parent="XCCGsWcUAZ_EwUzaCA__-8" source="XCCGsWcUAZ_EwUzaCA__-12" target="XCCGsWcUAZ_EwUzaCA__-9" edge="1">
          <mxGeometry relative="1" as="geometry" />
        </mxCell>
        <mxCell id="XCCGsWcUAZ_EwUzaCA__-14" value="" style="group" parent="1" vertex="1" connectable="0">
          <mxGeometry x="300" y="520" width="140" height="120" as="geometry" />
        </mxCell>
        <mxCell id="XCCGsWcUAZ_EwUzaCA__-15" value="" style="rounded=1;whiteSpace=wrap;html=1;rotation=-90;container=0;" parent="XCCGsWcUAZ_EwUzaCA__-14" vertex="1">
          <mxGeometry x="10" y="45" width="120" height="30" as="geometry" />
        </mxCell>
        <mxCell id="XCCGsWcUAZ_EwUzaCA__-18" value="" style="rounded=1;whiteSpace=wrap;html=1;rotation=-90;container=0;" parent="XCCGsWcUAZ_EwUzaCA__-14" vertex="1">
          <mxGeometry x="-45" y="45" width="120" height="30" as="geometry" />
        </mxCell>
        <mxCell id="XCCGsWcUAZ_EwUzaCA__-19" value="" style="edgeStyle=orthogonalEdgeStyle;rounded=0;orthogonalLoop=1;jettySize=auto;html=1;strokeWidth=3;startSize=3;endSize=3;endArrow=block;endFill=1;jumpSize=3;" parent="XCCGsWcUAZ_EwUzaCA__-14" source="XCCGsWcUAZ_EwUzaCA__-18" target="XCCGsWcUAZ_EwUzaCA__-15" edge="1">
          <mxGeometry relative="1" as="geometry" />
        </mxCell>
        <mxCell id="XCCGsWcUAZ_EwUzaCA__-20" value="" style="group" parent="1" vertex="1" connectable="0">
          <mxGeometry x="590" y="519" width="140" height="120" as="geometry" />
        </mxCell>
        <mxCell id="XCCGsWcUAZ_EwUzaCA__-21" value="" style="rounded=1;whiteSpace=wrap;html=1;rotation=-90;container=0;" parent="XCCGsWcUAZ_EwUzaCA__-20" vertex="1">
          <mxGeometry x="-60" y="45" width="120" height="30" as="geometry" />
        </mxCell>
        <mxCell id="XCCGsWcUAZ_EwUzaCA__-22" value="" style="rounded=1;whiteSpace=wrap;html=1;rotation=-90;container=0;" parent="XCCGsWcUAZ_EwUzaCA__-20" vertex="1">
          <mxGeometry x="-5" y="45" width="120" height="30" as="geometry" />
        </mxCell>
        <mxCell id="XCCGsWcUAZ_EwUzaCA__-23" value="" style="edgeStyle=orthogonalEdgeStyle;rounded=1;orthogonalLoop=1;jettySize=auto;html=1;strokeWidth=3;endSize=3;startSize=3;jumpStyle=none;startArrow=none;startFill=0;endArrow=block;endFill=1;jumpSize=3;" parent="XCCGsWcUAZ_EwUzaCA__-20" source="XCCGsWcUAZ_EwUzaCA__-21" target="XCCGsWcUAZ_EwUzaCA__-22" edge="1">
          <mxGeometry relative="1" as="geometry" />
        </mxCell>
        <mxCell id="XCCGsWcUAZ_EwUzaCA__-42" value="" style="edgeStyle=orthogonalEdgeStyle;rounded=1;jumpStyle=none;jumpSize=3;orthogonalLoop=1;jettySize=auto;html=1;strokeWidth=3;startArrow=none;startFill=0;endArrow=block;endFill=1;startSize=3;endSize=3;" parent="1" source="XCCGsWcUAZ_EwUzaCA__-27" target="XCCGsWcUAZ_EwUzaCA__-28" edge="1">
          <mxGeometry relative="1" as="geometry" />
        </mxCell>
        <mxCell id="XCCGsWcUAZ_EwUzaCA__-27" value="" style="rounded=1;whiteSpace=wrap;html=1;rotation=0;container=0;" parent="1" vertex="1">
          <mxGeometry x="354" y="673" width="110" height="30" as="geometry" />
        </mxCell>
        <mxCell id="XCCGsWcUAZ_EwUzaCA__-28" value="" style="rounded=1;whiteSpace=wrap;html=1;rotation=0;container=0;" parent="1" vertex="1">
          <mxGeometry x="484" y="673" width="120" height="30" as="geometry" />
        </mxCell>
        <mxCell id="XCCGsWcUAZ_EwUzaCA__-44" value="" style="edgeStyle=orthogonalEdgeStyle;rounded=1;jumpStyle=none;jumpSize=3;orthogonalLoop=1;jettySize=auto;html=1;strokeWidth=3;startArrow=none;startFill=0;endArrow=block;endFill=1;startSize=3;endSize=3;" parent="1" target="XCCGsWcUAZ_EwUzaCA__-12" edge="1">
          <mxGeometry relative="1" as="geometry">
            <mxPoint x="260" y="323" as="sourcePoint" />
          </mxGeometry>
        </mxCell>
        <mxCell id="XCCGsWcUAZ_EwUzaCA__-45" value="" style="edgeStyle=orthogonalEdgeStyle;rounded=1;jumpStyle=none;jumpSize=3;orthogonalLoop=1;jettySize=auto;html=1;strokeWidth=3;startArrow=none;startFill=0;endArrow=block;endFill=1;startSize=3;endSize=3;" parent="1" target="XCCGsWcUAZ_EwUzaCA__-18" edge="1">
          <mxGeometry relative="1" as="geometry">
            <mxPoint x="315" y="483" as="sourcePoint" />
          </mxGeometry>
        </mxCell>
        <mxCell id="XCCGsWcUAZ_EwUzaCA__-46" value="" style="edgeStyle=orthogonalEdgeStyle;rounded=1;jumpStyle=none;jumpSize=3;orthogonalLoop=1;jettySize=auto;html=1;strokeWidth=3;startArrow=none;startFill=0;endArrow=block;endFill=1;startSize=3;endSize=3;" parent="1" edge="1">
          <mxGeometry relative="1" as="geometry">
            <mxPoint x="371" y="643" as="sourcePoint" />
            <mxPoint x="371.0666666666666" y="673" as="targetPoint" />
          </mxGeometry>
        </mxCell>
        <mxCell id="XCCGsWcUAZ_EwUzaCA__-48" value="" style="edgeStyle=orthogonalEdgeStyle;rounded=1;jumpStyle=none;jumpSize=3;orthogonalLoop=1;jettySize=auto;html=1;strokeWidth=3;startArrow=none;startFill=0;endArrow=block;endFill=1;startSize=3;endSize=3;" parent="1" edge="1">
          <mxGeometry relative="1" as="geometry">
            <mxPoint x="645.0499999999997" y="517" as="sourcePoint" />
            <mxPoint x="645" y="481" as="targetPoint" />
          </mxGeometry>
        </mxCell>
        <mxCell id="XCCGsWcUAZ_EwUzaCA__-50" style="edgeStyle=orthogonalEdgeStyle;rounded=1;jumpStyle=none;jumpSize=3;orthogonalLoop=1;jettySize=auto;html=1;strokeWidth=3;startArrow=none;startFill=0;endArrow=block;endFill=1;startSize=3;endSize=3;" parent="1" edge="1">
          <mxGeometry relative="1" as="geometry">
            <mxPoint x="281" y="259" as="sourcePoint" />
            <mxPoint x="681" y="258.5" as="targetPoint" />
            <Array as="points">
              <mxPoint x="581" y="259" />
              <mxPoint x="581" y="259" />
            </Array>
          </mxGeometry>
        </mxCell>
        <mxCell id="XCCGsWcUAZ_EwUzaCA__-51" style="edgeStyle=orthogonalEdgeStyle;rounded=0;jumpStyle=none;jumpSize=3;orthogonalLoop=1;jettySize=auto;html=1;strokeWidth=3;startArrow=none;startFill=0;endArrow=block;endFill=1;startSize=3;endSize=3;" parent="1" edge="1">
          <mxGeometry relative="1" as="geometry">
            <mxPoint x="340" y="418" as="sourcePoint" />
            <mxPoint x="620" y="418" as="targetPoint" />
            <Array as="points">
              <mxPoint x="480" y="418" />
            </Array>
          </mxGeometry>
        </mxCell>
        <mxCell id="XCCGsWcUAZ_EwUzaCA__-52" style="edgeStyle=orthogonalEdgeStyle;rounded=1;jumpStyle=none;jumpSize=3;orthogonalLoop=1;jettySize=auto;html=1;entryX=0.5;entryY=0;entryDx=0;entryDy=0;strokeWidth=3;startArrow=none;startFill=0;endArrow=block;endFill=1;startSize=3;endSize=3;" parent="1" edge="1">
          <mxGeometry relative="1" as="geometry">
            <mxPoint x="390" y="581" as="sourcePoint" />
            <mxPoint x="570" y="580.5" as="targetPoint" />
            <Array as="points">
              <mxPoint x="480" y="581" />
            </Array>
          </mxGeometry>
        </mxCell>
        <mxCell id="oricpmjKpW1O12cIiV7j-1" value="" style="group" parent="1" vertex="1" connectable="0">
          <mxGeometry x="62" y="77" width="60" height="70" as="geometry" />
        </mxCell>
        <mxCell id="oricpmjKpW1O12cIiV7j-2" value="CT" style="whiteSpace=wrap;html=1;aspect=fixed;" parent="oricpmjKpW1O12cIiV7j-1" vertex="1">
          <mxGeometry width="34.285714285714285" height="34.285714285714285" as="geometry" />
        </mxCell>
        <mxCell id="oricpmjKpW1O12cIiV7j-3" value="PET" style="whiteSpace=wrap;html=1;aspect=fixed;" parent="oricpmjKpW1O12cIiV7j-1" vertex="1">
          <mxGeometry y="35" width="34.285714285714285" height="34.285714285714285" as="geometry" />
        </mxCell>
        <mxCell id="oricpmjKpW1O12cIiV7j-4" value="" style="group" parent="oricpmjKpW1O12cIiV7j-1" vertex="1" connectable="0">
          <mxGeometry x="7.5" y="-7" width="52.5" height="70" as="geometry" />
        </mxCell>
        <mxCell id="oricpmjKpW1O12cIiV7j-5" value="CT" style="whiteSpace=wrap;html=1;aspect=fixed;" parent="oricpmjKpW1O12cIiV7j-4" vertex="1">
          <mxGeometry width="34.285714285714285" height="34.285714285714285" as="geometry" />
        </mxCell>
        <mxCell id="oricpmjKpW1O12cIiV7j-6" value="PET" style="whiteSpace=wrap;html=1;aspect=fixed;" parent="oricpmjKpW1O12cIiV7j-4" vertex="1">
          <mxGeometry y="35" width="34.285714285714285" height="34.285714285714285" as="geometry" />
        </mxCell>
        <mxCell id="oricpmjKpW1O12cIiV7j-7" value="" style="group" parent="oricpmjKpW1O12cIiV7j-4" vertex="1" connectable="0">
          <mxGeometry x="7.5" y="-7" width="45" height="70" as="geometry" />
        </mxCell>
        <mxCell id="oricpmjKpW1O12cIiV7j-8" value="CT" style="whiteSpace=wrap;html=1;aspect=fixed;" parent="oricpmjKpW1O12cIiV7j-7" vertex="1">
          <mxGeometry width="34.285714285714285" height="34.285714285714285" as="geometry" />
        </mxCell>
        <mxCell id="oricpmjKpW1O12cIiV7j-9" value="PET" style="whiteSpace=wrap;html=1;aspect=fixed;" parent="oricpmjKpW1O12cIiV7j-7" vertex="1">
          <mxGeometry y="35" width="34.285714285714285" height="34.285714285714285" as="geometry" />
        </mxCell>
        <mxCell id="oricpmjKpW1O12cIiV7j-10" value="" style="group" parent="oricpmjKpW1O12cIiV7j-7" vertex="1" connectable="0">
          <mxGeometry x="7.5" y="-7" width="37.5" height="70" as="geometry" />
        </mxCell>
        <mxCell id="oricpmjKpW1O12cIiV7j-11" value="CT" style="whiteSpace=wrap;html=1;aspect=fixed;" parent="oricpmjKpW1O12cIiV7j-10" vertex="1">
          <mxGeometry width="34.285714285714285" height="34.285714285714285" as="geometry" />
        </mxCell>
        <mxCell id="oricpmjKpW1O12cIiV7j-12" value="PET" style="whiteSpace=wrap;html=1;aspect=fixed;" parent="oricpmjKpW1O12cIiV7j-10" vertex="1">
          <mxGeometry y="35" width="34.285714285714285" height="34.285714285714285" as="geometry" />
        </mxCell>
        <mxCell id="oricpmjKpW1O12cIiV7j-13" value="&lt;font style=&quot;font-size: 12px;&quot;&gt;32&lt;/font&gt;" style="text;html=1;strokeColor=none;fillColor=none;align=center;verticalAlign=middle;whiteSpace=wrap;rounded=0;fontSize=10;strokeWidth=1;" parent="1" vertex="1">
          <mxGeometry x="199" y="183" width="30" height="20" as="geometry" />
        </mxCell>
        <mxCell id="oricpmjKpW1O12cIiV7j-14" value="&lt;font style=&quot;font-size: 12px;&quot;&gt;32&lt;/font&gt;" style="text;html=1;strokeColor=none;fillColor=none;align=center;verticalAlign=middle;whiteSpace=wrap;rounded=0;fontSize=10;strokeWidth=1;" parent="1" vertex="1">
          <mxGeometry x="245" y="183" width="30" height="20" as="geometry" />
        </mxCell>
        <mxCell id="oricpmjKpW1O12cIiV7j-16" value="&lt;font style=&quot;font-size: 12px;&quot;&gt;64&lt;/font&gt;" style="text;html=1;strokeColor=none;fillColor=none;align=center;verticalAlign=middle;whiteSpace=wrap;rounded=0;fontSize=10;strokeWidth=1;" parent="1" vertex="1">
          <mxGeometry x="300" y="339" width="30" height="20" as="geometry" />
        </mxCell>
        <mxCell id="oricpmjKpW1O12cIiV7j-18" value="&lt;font style=&quot;font-size: 12px;&quot;&gt;64&lt;/font&gt;" style="text;html=1;strokeColor=none;fillColor=none;align=center;verticalAlign=middle;whiteSpace=wrap;rounded=0;fontSize=10;strokeWidth=1;" parent="1" vertex="1">
          <mxGeometry x="265" y="339" width="30" height="20" as="geometry" />
        </mxCell>
        <mxCell id="oricpmjKpW1O12cIiV7j-19" value="&lt;font style=&quot;font-size: 12px;&quot;&gt;128&lt;/font&gt;" style="text;html=1;strokeColor=none;fillColor=none;align=center;verticalAlign=middle;whiteSpace=wrap;rounded=0;fontSize=10;strokeWidth=1;" parent="1" vertex="1">
          <mxGeometry x="320" y="503" width="30" height="20" as="geometry" />
        </mxCell>
        <mxCell id="oricpmjKpW1O12cIiV7j-20" value="&lt;font style=&quot;font-size: 12px;&quot;&gt;128&lt;/font&gt;" style="text;html=1;strokeColor=none;fillColor=none;align=center;verticalAlign=middle;whiteSpace=wrap;rounded=0;fontSize=10;strokeWidth=1;" parent="1" vertex="1">
          <mxGeometry x="355" y="503" width="30" height="20" as="geometry" />
        </mxCell>
        <mxCell id="oricpmjKpW1O12cIiV7j-22" value="&lt;font style=&quot;font-size: 12px;&quot;&gt;256&lt;/font&gt;" style="text;html=1;strokeColor=none;fillColor=none;align=center;verticalAlign=middle;whiteSpace=wrap;rounded=0;fontSize=10;strokeWidth=1;" parent="1" vertex="1">
          <mxGeometry x="398" y="656" width="30" height="20" as="geometry" />
        </mxCell>
        <mxCell id="oricpmjKpW1O12cIiV7j-28" value="&lt;font style=&quot;font-size: 12px;&quot;&gt;256&lt;/font&gt;" style="text;html=1;strokeColor=none;fillColor=none;align=center;verticalAlign=middle;whiteSpace=wrap;rounded=0;fontSize=10;strokeWidth=1;" parent="1" vertex="1">
          <mxGeometry x="529" y="656" width="30" height="20" as="geometry" />
        </mxCell>
        <mxCell id="XCCGsWcUAZ_EwUzaCA__-31" value="" style="rounded=1;whiteSpace=wrap;html=1;rotation=-90;container=0;" parent="1" vertex="1">
          <mxGeometry x="585" y="403" width="120" height="30" as="geometry" />
        </mxCell>
        <mxCell id="XCCGsWcUAZ_EwUzaCA__-32" value="" style="rounded=1;whiteSpace=wrap;html=1;rotation=-90;container=0;" parent="1" vertex="1">
          <mxGeometry x="640" y="403" width="120" height="30" as="geometry" />
        </mxCell>
        <mxCell id="XCCGsWcUAZ_EwUzaCA__-33" value="" style="edgeStyle=orthogonalEdgeStyle;rounded=1;orthogonalLoop=1;jettySize=auto;html=1;strokeWidth=3;endSize=3;startSize=3;jumpStyle=none;startArrow=none;startFill=0;endArrow=block;endFill=1;jumpSize=3;" parent="1" source="XCCGsWcUAZ_EwUzaCA__-31" target="XCCGsWcUAZ_EwUzaCA__-32" edge="1">
          <mxGeometry relative="1" as="geometry" />
        </mxCell>
        <mxCell id="XCCGsWcUAZ_EwUzaCA__-37" value="" style="rounded=1;whiteSpace=wrap;html=1;rotation=-90;container=0;" parent="1" vertex="1">
          <mxGeometry x="640" y="243" width="120" height="30" as="geometry" />
        </mxCell>
        <mxCell id="XCCGsWcUAZ_EwUzaCA__-38" value="" style="rounded=1;whiteSpace=wrap;html=1;rotation=-90;container=0;" parent="1" vertex="1">
          <mxGeometry x="695" y="243" width="120" height="30" as="geometry" />
        </mxCell>
        <mxCell id="XCCGsWcUAZ_EwUzaCA__-39" value="" style="edgeStyle=orthogonalEdgeStyle;rounded=1;orthogonalLoop=1;jettySize=auto;html=1;strokeWidth=3;endSize=3;startSize=3;jumpStyle=none;startArrow=none;startFill=0;endArrow=block;endFill=1;jumpSize=3;" parent="1" source="XCCGsWcUAZ_EwUzaCA__-37" target="XCCGsWcUAZ_EwUzaCA__-38" edge="1">
          <mxGeometry relative="1" as="geometry" />
        </mxCell>
        <mxCell id="oricpmjKpW1O12cIiV7j-29" value="&lt;font style=&quot;font-size: 12px;&quot;&gt;128&lt;/font&gt;" style="text;html=1;strokeColor=none;fillColor=none;align=center;verticalAlign=middle;whiteSpace=wrap;rounded=0;fontSize=10;strokeWidth=1;" parent="1" vertex="1">
          <mxGeometry x="574" y="503" width="30" height="20" as="geometry" />
        </mxCell>
        <mxCell id="oricpmjKpW1O12cIiV7j-30" value="&lt;font style=&quot;font-size: 12px;&quot;&gt;128&lt;/font&gt;" style="text;html=1;strokeColor=none;fillColor=none;align=center;verticalAlign=middle;whiteSpace=wrap;rounded=0;fontSize=10;strokeWidth=1;" parent="1" vertex="1">
          <mxGeometry x="610" y="503" width="30" height="20" as="geometry" />
        </mxCell>
        <mxCell id="oricpmjKpW1O12cIiV7j-31" value="" style="group" parent="1" vertex="1" connectable="0">
          <mxGeometry x="134" y="38" width="140" height="120" as="geometry" />
        </mxCell>
        <mxCell id="oricpmjKpW1O12cIiV7j-32" value="" style="rounded=1;whiteSpace=wrap;html=1;rotation=-90;container=0;" parent="oricpmjKpW1O12cIiV7j-31" vertex="1">
          <mxGeometry x="10" y="45" width="120" height="30" as="geometry" />
        </mxCell>
        <mxCell id="oricpmjKpW1O12cIiV7j-33" value="" style="rounded=1;whiteSpace=wrap;html=1;rotation=-90;container=0;" parent="oricpmjKpW1O12cIiV7j-31" vertex="1">
          <mxGeometry x="-45" y="45" width="120" height="30" as="geometry" />
        </mxCell>
        <mxCell id="oricpmjKpW1O12cIiV7j-34" value="" style="edgeStyle=orthogonalEdgeStyle;rounded=0;orthogonalLoop=1;jettySize=auto;html=1;strokeWidth=3;startSize=3;endSize=3;endArrow=block;endFill=1;jumpSize=3;" parent="oricpmjKpW1O12cIiV7j-31" source="oricpmjKpW1O12cIiV7j-33" target="oricpmjKpW1O12cIiV7j-32" edge="1">
          <mxGeometry relative="1" as="geometry" />
        </mxCell>
        <mxCell id="oricpmjKpW1O12cIiV7j-35" value="&lt;font style=&quot;font-size: 12px;&quot;&gt;16&lt;/font&gt;" style="text;html=1;strokeColor=none;fillColor=none;align=center;verticalAlign=middle;whiteSpace=wrap;rounded=0;fontSize=10;strokeWidth=1;" parent="1" vertex="1">
          <mxGeometry x="134" y="23" width="30" height="20" as="geometry" />
        </mxCell>
        <mxCell id="oricpmjKpW1O12cIiV7j-40" value="&lt;font style=&quot;font-size: 12px;&quot;&gt;16&lt;/font&gt;" style="text;html=1;strokeColor=none;fillColor=none;align=center;verticalAlign=middle;whiteSpace=wrap;rounded=0;fontSize=10;strokeWidth=1;" parent="1" vertex="1">
          <mxGeometry x="189" y="23" width="30" height="20" as="geometry" />
        </mxCell>
        <mxCell id="oricpmjKpW1O12cIiV7j-45" value="&lt;font style=&quot;font-size: 12px;&quot;&gt;16&lt;/font&gt;" style="text;html=1;strokeColor=none;fillColor=none;align=center;verticalAlign=middle;whiteSpace=wrap;rounded=0;fontSize=10;strokeWidth=1;" parent="1" vertex="1">
          <mxGeometry x="740" y="19" width="30" height="20" as="geometry" />
        </mxCell>
        <mxCell id="oricpmjKpW1O12cIiV7j-46" value="&lt;font style=&quot;font-size: 12px;&quot;&gt;16&lt;/font&gt;" style="text;html=1;strokeColor=none;fillColor=none;align=center;verticalAlign=middle;whiteSpace=wrap;rounded=0;fontSize=10;strokeWidth=1;" parent="1" vertex="1">
          <mxGeometry x="795" y="19" width="30" height="20" as="geometry" />
        </mxCell>
        <mxCell id="oricpmjKpW1O12cIiV7j-47" style="edgeStyle=orthogonalEdgeStyle;rounded=1;jumpStyle=none;jumpSize=3;orthogonalLoop=1;jettySize=auto;html=1;strokeWidth=3;startArrow=none;startFill=0;endArrow=block;endFill=1;startSize=3;endSize=3;" parent="1" edge="1">
          <mxGeometry relative="1" as="geometry">
            <mxPoint x="232" y="98" as="sourcePoint" />
            <mxPoint x="732" y="98" as="targetPoint" />
            <Array as="points">
              <mxPoint x="622" y="98" />
              <mxPoint x="622" y="98" />
            </Array>
          </mxGeometry>
        </mxCell>
        <mxCell id="oricpmjKpW1O12cIiV7j-48" value="" style="edgeStyle=orthogonalEdgeStyle;rounded=1;jumpStyle=none;jumpSize=3;orthogonalLoop=1;jettySize=auto;html=1;strokeWidth=3;startArrow=block;startFill=1;endArrow=none;endFill=0;startSize=3;endSize=3;" parent="1" edge="1">
          <mxGeometry relative="1" as="geometry">
            <mxPoint x="590" y="644" as="sourcePoint" />
            <mxPoint x="590.0666666666666" y="674" as="targetPoint" />
          </mxGeometry>
        </mxCell>
        <mxCell id="oricpmjKpW1O12cIiV7j-51" value="" style="edgeStyle=orthogonalEdgeStyle;rounded=1;jumpStyle=none;jumpSize=3;orthogonalLoop=1;jettySize=auto;html=1;strokeWidth=3;startArrow=none;startFill=0;endArrow=block;endFill=1;startSize=3;endSize=3;" parent="1" edge="1">
          <mxGeometry relative="1" as="geometry">
            <mxPoint x="203" y="161" as="sourcePoint" />
            <mxPoint x="203" y="197" as="targetPoint" />
          </mxGeometry>
        </mxCell>
        <mxCell id="oricpmjKpW1O12cIiV7j-52" value="" style="edgeStyle=orthogonalEdgeStyle;rounded=1;jumpStyle=none;jumpSize=3;orthogonalLoop=1;jettySize=auto;html=1;strokeWidth=3;startArrow=none;startFill=0;endArrow=block;endFill=1;startSize=3;endSize=3;" parent="1" edge="1">
          <mxGeometry relative="1" as="geometry">
            <mxPoint x="700.0499999999997" y="356" as="sourcePoint" />
            <mxPoint x="700" y="320" as="targetPoint" />
          </mxGeometry>
        </mxCell>
        <mxCell id="oricpmjKpW1O12cIiV7j-53" value="" style="edgeStyle=orthogonalEdgeStyle;rounded=1;jumpStyle=none;jumpSize=3;orthogonalLoop=1;jettySize=auto;html=1;strokeWidth=3;startArrow=none;startFill=0;endArrow=block;endFill=1;startSize=3;endSize=3;" parent="1" edge="1">
          <mxGeometry relative="1" as="geometry">
            <mxPoint x="755.0499999999997" y="197" as="sourcePoint" />
            <mxPoint x="755" y="161" as="targetPoint" />
          </mxGeometry>
        </mxCell>
        <mxCell id="oricpmjKpW1O12cIiV7j-42" value="" style="rounded=1;whiteSpace=wrap;html=1;rotation=-90;container=0;" parent="1" vertex="1">
          <mxGeometry x="750" y="84" width="120" height="30" as="geometry" />
        </mxCell>
        <mxCell id="oricpmjKpW1O12cIiV7j-43" value="" style="rounded=1;whiteSpace=wrap;html=1;rotation=-90;container=0;" parent="1" vertex="1">
          <mxGeometry x="695" y="84" width="120" height="30" as="geometry" />
        </mxCell>
        <mxCell id="oricpmjKpW1O12cIiV7j-44" value="" style="edgeStyle=orthogonalEdgeStyle;rounded=0;orthogonalLoop=1;jettySize=auto;html=1;strokeWidth=3;startSize=3;endSize=3;endArrow=block;endFill=1;jumpSize=3;" parent="1" source="oricpmjKpW1O12cIiV7j-43" target="oricpmjKpW1O12cIiV7j-42" edge="1">
          <mxGeometry relative="1" as="geometry" />
        </mxCell>
        <mxCell id="oricpmjKpW1O12cIiV7j-68" value="" style="whiteSpace=wrap;html=1;aspect=fixed;" parent="1" vertex="1">
          <mxGeometry x="839" y="57" width="34.285714285714285" height="34.285714285714285" as="geometry" />
        </mxCell>
        <mxCell id="oricpmjKpW1O12cIiV7j-69" value="" style="whiteSpace=wrap;html=1;aspect=fixed;" parent="1" vertex="1">
          <mxGeometry x="849" y="67" width="34.285714285714285" height="34.285714285714285" as="geometry" />
        </mxCell>
        <mxCell id="oricpmjKpW1O12cIiV7j-70" value="" style="whiteSpace=wrap;html=1;aspect=fixed;" parent="1" vertex="1">
          <mxGeometry x="859" y="77" width="34.285714285714285" height="34.285714285714285" as="geometry" />
        </mxCell>
        <mxCell id="oricpmjKpW1O12cIiV7j-71" value="dose&lt;br&gt;map" style="whiteSpace=wrap;html=1;aspect=fixed;" parent="1" vertex="1">
          <mxGeometry x="869" y="87" width="34.285714285714285" height="34.285714285714285" as="geometry" />
        </mxCell>
        <mxCell id="oricpmjKpW1O12cIiV7j-73" value="&lt;font style=&quot;font-size: 12px;&quot;&gt;64&lt;/font&gt;" style="text;html=1;strokeColor=none;fillColor=none;align=center;verticalAlign=middle;whiteSpace=wrap;rounded=0;fontSize=10;strokeWidth=1;" parent="1" vertex="1">
          <mxGeometry x="630" y="339" width="30" height="20" as="geometry" />
        </mxCell>
        <mxCell id="oricpmjKpW1O12cIiV7j-74" value="&lt;font style=&quot;font-size: 12px;&quot;&gt;64&lt;/font&gt;" style="text;html=1;strokeColor=none;fillColor=none;align=center;verticalAlign=middle;whiteSpace=wrap;rounded=0;fontSize=10;strokeWidth=1;" parent="1" vertex="1">
          <mxGeometry x="665" y="339" width="30" height="20" as="geometry" />
        </mxCell>
        <mxCell id="oricpmjKpW1O12cIiV7j-76" value="&lt;font style=&quot;font-size: 12px;&quot;&gt;32&lt;/font&gt;" style="text;html=1;strokeColor=none;fillColor=none;align=center;verticalAlign=middle;whiteSpace=wrap;rounded=0;fontSize=10;strokeWidth=1;" parent="1" vertex="1">
          <mxGeometry x="685" y="179" width="30" height="20" as="geometry" />
        </mxCell>
        <mxCell id="oricpmjKpW1O12cIiV7j-77" value="&lt;font style=&quot;font-size: 12px;&quot;&gt;32&lt;/font&gt;" style="text;html=1;strokeColor=none;fillColor=none;align=center;verticalAlign=middle;whiteSpace=wrap;rounded=0;fontSize=10;strokeWidth=1;" parent="1" vertex="1">
          <mxGeometry x="729" y="180" width="30" height="20" as="geometry" />
        </mxCell>
      </root>
    </mxGraphModel>
  </diagram>
  <diagram id="lq7hsERbANeEnVt_2CbC" name="data-pipeline">
    <mxGraphModel dx="1270" dy="2405" grid="1" gridSize="10" guides="1" tooltips="1" connect="1" arrows="1" fold="1" page="1" pageScale="1" pageWidth="1169" pageHeight="827" math="0" shadow="0">
      <root>
        <mxCell id="0" />
        <mxCell id="1" parent="0" />
        <mxCell id="r0JQJXY7RF1l7CL8Fuqj-1" value="" style="group" parent="1" vertex="1" connectable="0">
          <mxGeometry x="41.029754204398444" y="-1602" width="790.7606727037517" height="190" as="geometry" />
        </mxCell>
        <mxCell id="r0JQJXY7RF1l7CL8Fuqj-2" value="&lt;font face=&quot;Verdana&quot;&gt;raw dataset&lt;/font&gt;" style="rounded=1;whiteSpace=wrap;html=1;rotation=0;container=0;" parent="r0JQJXY7RF1l7CL8Fuqj-1" vertex="1">
          <mxGeometry x="0.9702457956015529" width="75.62" height="60" as="geometry" />
        </mxCell>
        <mxCell id="r0JQJXY7RF1l7CL8Fuqj-3" value="data cleaning" style="rounded=1;whiteSpace=wrap;html=1;rotation=0;container=0;" parent="r0JQJXY7RF1l7CL8Fuqj-1" vertex="1">
          <mxGeometry x="110.97024579560156" width="80" height="60" as="geometry" />
        </mxCell>
        <mxCell id="r0JQJXY7RF1l7CL8Fuqj-4" value="" style="edgeStyle=orthogonalEdgeStyle;rounded=0;orthogonalLoop=1;jettySize=auto;html=1;" parent="r0JQJXY7RF1l7CL8Fuqj-1" source="r0JQJXY7RF1l7CL8Fuqj-2" target="r0JQJXY7RF1l7CL8Fuqj-3" edge="1">
          <mxGeometry relative="1" as="geometry" />
        </mxCell>
        <mxCell id="r0JQJXY7RF1l7CL8Fuqj-5" value="data converting" style="rounded=1;whiteSpace=wrap;html=1;rotation=0;container=0;" parent="r0JQJXY7RF1l7CL8Fuqj-1" vertex="1">
          <mxGeometry x="225.72024579560156" width="90.25" height="60" as="geometry" />
        </mxCell>
        <mxCell id="r0JQJXY7RF1l7CL8Fuqj-6" value="" style="edgeStyle=orthogonalEdgeStyle;rounded=0;orthogonalLoop=1;jettySize=auto;html=1;" parent="r0JQJXY7RF1l7CL8Fuqj-1" source="r0JQJXY7RF1l7CL8Fuqj-3" target="r0JQJXY7RF1l7CL8Fuqj-5" edge="1">
          <mxGeometry relative="1" as="geometry" />
        </mxCell>
        <mxCell id="r0JQJXY7RF1l7CL8Fuqj-7" value="" style="edgeStyle=orthogonalEdgeStyle;rounded=0;orthogonalLoop=1;jettySize=auto;html=1;fontFamily=Verdana;fontSize=8;" parent="r0JQJXY7RF1l7CL8Fuqj-1" source="r0JQJXY7RF1l7CL8Fuqj-3" target="r0JQJXY7RF1l7CL8Fuqj-5" edge="1">
          <mxGeometry relative="1" as="geometry" />
        </mxCell>
        <mxCell id="r0JQJXY7RF1l7CL8Fuqj-8" value="data aligning" style="rounded=1;whiteSpace=wrap;html=1;rotation=0;container=0;" parent="r0JQJXY7RF1l7CL8Fuqj-1" vertex="1">
          <mxGeometry x="347.97024579560156" width="80" height="60" as="geometry" />
        </mxCell>
        <mxCell id="r0JQJXY7RF1l7CL8Fuqj-9" value="" style="edgeStyle=orthogonalEdgeStyle;rounded=0;orthogonalLoop=1;jettySize=auto;html=1;" parent="r0JQJXY7RF1l7CL8Fuqj-1" source="r0JQJXY7RF1l7CL8Fuqj-5" target="r0JQJXY7RF1l7CL8Fuqj-8" edge="1">
          <mxGeometry relative="1" as="geometry" />
        </mxCell>
        <mxCell id="r0JQJXY7RF1l7CL8Fuqj-10" value="Monte Carlo simulation" style="rounded=1;whiteSpace=wrap;html=1;rotation=0;container=0;" parent="r0JQJXY7RF1l7CL8Fuqj-1" vertex="1">
          <mxGeometry x="464.97024579560156" width="85.07" height="60" as="geometry" />
        </mxCell>
        <mxCell id="r0JQJXY7RF1l7CL8Fuqj-11" value="" style="edgeStyle=orthogonalEdgeStyle;rounded=0;orthogonalLoop=1;jettySize=auto;html=1;" parent="r0JQJXY7RF1l7CL8Fuqj-1" source="r0JQJXY7RF1l7CL8Fuqj-8" target="r0JQJXY7RF1l7CL8Fuqj-10" edge="1">
          <mxGeometry relative="1" as="geometry" />
        </mxCell>
        <mxCell id="r0JQJXY7RF1l7CL8Fuqj-12" value="data resampling" style="rounded=1;whiteSpace=wrap;html=1;rotation=0;container=0;" parent="r0JQJXY7RF1l7CL8Fuqj-1" vertex="1">
          <mxGeometry x="577.9702457956015" width="92.43" height="60" as="geometry" />
        </mxCell>
        <mxCell id="r0JQJXY7RF1l7CL8Fuqj-13" value="" style="edgeStyle=orthogonalEdgeStyle;rounded=0;orthogonalLoop=1;jettySize=auto;html=1;" parent="r0JQJXY7RF1l7CL8Fuqj-1" source="r0JQJXY7RF1l7CL8Fuqj-10" target="r0JQJXY7RF1l7CL8Fuqj-12" edge="1">
          <mxGeometry relative="1" as="geometry" />
        </mxCell>
        <mxCell id="r0JQJXY7RF1l7CL8Fuqj-14" value="" style="shape=document;whiteSpace=wrap;html=1;boundedLbl=1;fontFamily=Verdana;size=0.16666666666666666;rotation=0;spacingLeft=0;container=0;" parent="r0JQJXY7RF1l7CL8Fuqj-1" vertex="1">
          <mxGeometry x="3" y="80" width="100.59508408796896" height="80" as="geometry" />
        </mxCell>
        <mxCell id="r0JQJXY7RF1l7CL8Fuqj-15" value="id" style="text;html=1;strokeColor=none;fillColor=none;align=center;verticalAlign=middle;whiteSpace=wrap;rounded=0;fontSize=10;strokeWidth=1;fontFamily=Verdana;rotation=0;container=0;" parent="r0JQJXY7RF1l7CL8Fuqj-1" vertex="1">
          <mxGeometry y="80" width="25.14877102199224" height="20" as="geometry" />
        </mxCell>
        <mxCell id="r0JQJXY7RF1l7CL8Fuqj-16" value="&lt;font style=&quot;font-size: 8px;&quot;&gt;cycle_1&lt;/font&gt;" style="text;html=1;strokeColor=none;fillColor=none;align=center;verticalAlign=middle;whiteSpace=wrap;rounded=0;fontSize=10;strokeWidth=1;fontFamily=Verdana;rotation=0;container=0;" parent="r0JQJXY7RF1l7CL8Fuqj-1" vertex="1">
          <mxGeometry x="28.178525226390686" y="80" width="25.14877102199224" height="20" as="geometry" />
        </mxCell>
        <mxCell id="r0JQJXY7RF1l7CL8Fuqj-17" value="&lt;font style=&quot;font-size: 5px;&quot;&gt;0000915556&lt;/font&gt;" style="text;html=1;strokeColor=none;fillColor=none;align=center;verticalAlign=middle;whiteSpace=wrap;rounded=0;fontSize=10;strokeWidth=1;fontFamily=Verdana;rotation=0;container=0;" parent="r0JQJXY7RF1l7CL8Fuqj-1" vertex="1">
          <mxGeometry x="6.676584734799487" y="100" width="25.14877102199224" height="20" as="geometry" />
        </mxCell>
        <mxCell id="r0JQJXY7RF1l7CL8Fuqj-18" value="&lt;font style=&quot;font-size: 5px;&quot;&gt;0001357158&lt;/font&gt;" style="text;html=1;strokeColor=none;fillColor=none;align=center;verticalAlign=middle;whiteSpace=wrap;rounded=0;fontSize=10;strokeWidth=1;fontFamily=Verdana;rotation=0;container=0;" parent="r0JQJXY7RF1l7CL8Fuqj-1" vertex="1">
          <mxGeometry x="6.676584734799487" y="110" width="25.14877102199224" height="20" as="geometry" />
        </mxCell>
        <mxCell id="r0JQJXY7RF1l7CL8Fuqj-19" value="&lt;font style=&quot;font-size: 6px;&quot;&gt;5*(CT, PT) RTDOSE&lt;/font&gt;" style="text;html=1;strokeColor=none;fillColor=none;align=center;verticalAlign=middle;whiteSpace=wrap;rounded=0;fontSize=10;strokeWidth=1;fontFamily=Verdana;rotation=0;container=0;" parent="r0JQJXY7RF1l7CL8Fuqj-1" vertex="1">
          <mxGeometry x="33.50024579560156" y="100" width="66.47" height="20" as="geometry" />
        </mxCell>
        <mxCell id="r0JQJXY7RF1l7CL8Fuqj-20" value="&lt;font style=&quot;font-size: 6px;&quot;&gt;4*(CT, PT) RTDOSE&lt;/font&gt;" style="text;html=1;strokeColor=none;fillColor=none;align=center;verticalAlign=middle;whiteSpace=wrap;rounded=0;fontSize=10;strokeWidth=1;fontFamily=Verdana;rotation=0;container=0;" parent="r0JQJXY7RF1l7CL8Fuqj-1" vertex="1">
          <mxGeometry x="35.53024579560156" y="111" width="61.44" height="20" as="geometry" />
        </mxCell>
        <mxCell id="r0JQJXY7RF1l7CL8Fuqj-21" value="&lt;font style=&quot;font-size: 8px;&quot;&gt;cycle_n&lt;/font&gt;" style="text;html=1;strokeColor=none;fillColor=none;align=center;verticalAlign=middle;whiteSpace=wrap;rounded=0;fontSize=10;strokeWidth=1;fontFamily=Verdana;rotation=0;container=0;" parent="r0JQJXY7RF1l7CL8Fuqj-1" vertex="1">
          <mxGeometry x="66.76972833117725" y="80" width="25.14877102199224" height="20" as="geometry" />
        </mxCell>
        <mxCell id="r0JQJXY7RF1l7CL8Fuqj-22" value="&lt;div style=&quot;text-align: justify;&quot;&gt;&lt;span style=&quot;font-size: 10px; background-color: initial;&quot;&gt;Object:&amp;nbsp;&lt;/span&gt;&lt;/div&gt;&lt;div style=&quot;text-align: justify;&quot;&gt;&lt;span style=&quot;font-size: 10px; background-color: initial;&quot;&gt;One case has CT, PT and RTDOSE.&lt;/span&gt;&lt;/div&gt;" style="shape=document;whiteSpace=wrap;html=1;boundedLbl=1;fontFamily=Verdana;size=0.16666666666666666;spacingLeft=2;spacingRight=2;spacing=2;rotation=0;spacingTop=-5;container=0;" parent="r0JQJXY7RF1l7CL8Fuqj-1" vertex="1">
          <mxGeometry x="112.36024579560154" y="80" width="100.6" height="60" as="geometry" />
        </mxCell>
        <mxCell id="r0JQJXY7RF1l7CL8Fuqj-23" value="refined dataset" style="rounded=1;whiteSpace=wrap;html=1;rotation=0;container=0;" parent="r0JQJXY7RF1l7CL8Fuqj-1" vertex="1">
          <mxGeometry x="700.9702457956015" width="89.79" height="60" as="geometry" />
        </mxCell>
        <mxCell id="r0JQJXY7RF1l7CL8Fuqj-24" value="" style="edgeStyle=orthogonalEdgeStyle;rounded=0;orthogonalLoop=1;jettySize=auto;html=1;fontFamily=Verdana;fontSize=8;" parent="r0JQJXY7RF1l7CL8Fuqj-1" source="r0JQJXY7RF1l7CL8Fuqj-12" target="r0JQJXY7RF1l7CL8Fuqj-23" edge="1">
          <mxGeometry relative="1" as="geometry" />
        </mxCell>
        <mxCell id="r0JQJXY7RF1l7CL8Fuqj-25" value="&lt;div style=&quot;text-align: justify;&quot;&gt;&lt;span style=&quot;font-size: 10px;&quot;&gt;Object:&amp;nbsp;&lt;/span&gt;&lt;/div&gt;&lt;div style=&quot;text-align: justify;&quot;&gt;&lt;span style=&quot;font-size: 10px; background-color: initial;&quot;&gt;dcm to mhd&amp;nbsp;&lt;/span&gt;&lt;/div&gt;" style="shape=document;whiteSpace=wrap;html=1;boundedLbl=1;fontFamily=Verdana;size=0.16666666666666666;spacingLeft=-28;spacingRight=2;spacing=2;rotation=0;spacingTop=-4;container=0;" parent="r0JQJXY7RF1l7CL8Fuqj-1" vertex="1">
          <mxGeometry x="223.72024579560156" y="80" width="100.6" height="40" as="geometry" />
        </mxCell>
        <mxCell id="r0JQJXY7RF1l7CL8Fuqj-26" value="&lt;div style=&quot;text-align: justify;&quot;&gt;&lt;span style=&quot;font-size: 10px;&quot;&gt;Object: uni size&lt;/span&gt;&lt;/div&gt;&lt;div style=&quot;text-align: justify;&quot;&gt;&lt;span style=&quot;font-size: 10px;&quot;&gt;&lt;br&gt;&lt;/span&gt;&lt;/div&gt;&lt;div style=&quot;text-align: justify;&quot;&gt;&lt;span style=&quot;font-size: 10px;&quot;&gt;CT: 512*512* n&lt;sub&gt;1&lt;/sub&gt;&lt;/span&gt;&lt;/div&gt;&lt;div style=&quot;text-align: justify;&quot;&gt;&lt;span style=&quot;font-size: 10px;&quot;&gt;PT: 128*128* n&lt;sub&gt;2&lt;/sub&gt;&amp;nbsp;&lt;/span&gt;&lt;/div&gt;&lt;div style=&quot;text-align: justify;&quot;&gt;&lt;span style=&quot;font-size: 10px;&quot;&gt;scale coefficients:&lt;/span&gt;&lt;/div&gt;&lt;div style=&quot;text-align: justify;&quot;&gt;&lt;span style=&quot;font-size: 10px; background-color: initial;&quot;&gt;(0.25, 0.25, n&lt;sub&gt;2&lt;/sub&gt;/n&lt;sub&gt;1&lt;/sub&gt;&lt;/span&gt;&lt;span style=&quot;font-size: 10px; background-color: initial;&quot;&gt;)&lt;/span&gt;&lt;/div&gt;" style="shape=document;whiteSpace=wrap;html=1;boundedLbl=1;fontFamily=Verdana;size=0.16666666666666666;spacingLeft=0;spacingRight=0;spacing=1;rotation=0;container=0;" parent="r0JQJXY7RF1l7CL8Fuqj-1" vertex="1">
          <mxGeometry x="341.08279430789133" y="80" width="100.59508408796896" height="110" as="geometry" />
        </mxCell>
        <mxCell id="r0JQJXY7RF1l7CL8Fuqj-27" value="&lt;div style=&quot;text-align: justify;&quot;&gt;&lt;span style=&quot;font-size: 10px;&quot;&gt;Object: Dosemap&lt;/span&gt;&lt;/div&gt;&lt;div style=&quot;text-align: justify;&quot;&gt;&lt;span style=&quot;font-size: 10px;&quot;&gt;&lt;br&gt;&lt;/span&gt;&lt;/div&gt;&lt;div style=&quot;text-align: justify;&quot;&gt;&lt;span style=&quot;font-size: 10px;&quot;&gt;OpenGate&lt;/span&gt;&lt;/div&gt;&lt;div style=&quot;text-align: justify;&quot;&gt;&lt;span style=&quot;font-size: 10px;&quot;&gt;Phantom: CT&lt;/span&gt;&lt;/div&gt;&lt;div style=&quot;text-align: justify;&quot;&gt;&lt;span style=&quot;font-size: 10px;&quot;&gt;Source: PT&lt;/span&gt;&lt;/div&gt;&lt;div style=&quot;text-align: justify;&quot;&gt;&lt;span style=&quot;font-size: 10px;&quot;&gt;Lu177 ion source&lt;/span&gt;&lt;/div&gt;" style="shape=document;whiteSpace=wrap;html=1;boundedLbl=1;fontFamily=Verdana;size=0.16666666666666666;spacingLeft=-4;spacingRight=0;spacing=1;spacingTop=2;rotation=0;container=0;" parent="r0JQJXY7RF1l7CL8Fuqj-1" vertex="1">
          <mxGeometry x="458.4437257438551" y="80" width="100.59508408796896" height="100" as="geometry" />
        </mxCell>
        <mxCell id="r0JQJXY7RF1l7CL8Fuqj-28" value="&lt;div style=&quot;text-align: justify;&quot;&gt;&lt;span style=&quot;font-size: 10px;&quot;&gt;Object: uni slice&amp;nbsp;&lt;/span&gt;&lt;/div&gt;&lt;div style=&quot;text-align: justify;&quot;&gt;&lt;span style=&quot;font-size: 10px;&quot;&gt;&lt;br&gt;&lt;/span&gt;&lt;/div&gt;&lt;div style=&quot;text-align: justify;&quot;&gt;&lt;span style=&quot;font-size: 10px;&quot;&gt;CT, PT, Dosemap:&lt;/span&gt;&lt;/div&gt;&lt;div style=&quot;text-align: justify;&quot;&gt;&lt;span style=&quot;font-size: 10px; background-color: initial;&quot;&gt;new_space: Ori_size*Ori_space&lt;/span&gt;&lt;br&gt;&lt;/div&gt;&lt;div style=&quot;text-align: justify;&quot;&gt;&lt;span style=&quot;font-size: 10px;&quot;&gt;/new_size&lt;/span&gt;&lt;/div&gt;" style="shape=document;whiteSpace=wrap;html=1;boundedLbl=1;fontFamily=Verdana;size=0.16666666666666666;spacingLeft=4;spacingRight=2;spacing=2;spacingTop=4;rotation=0;container=0;" parent="r0JQJXY7RF1l7CL8Fuqj-1" vertex="1">
          <mxGeometry x="575.8002457956015" y="79" width="100.6" height="100" as="geometry" />
        </mxCell>
        <mxCell id="r0JQJXY7RF1l7CL8Fuqj-29" value="&lt;div style=&quot;text-align: justify;&quot;&gt;&lt;span style=&quot;font-size: 10px;&quot;&gt;77 cases&lt;/span&gt;&lt;/div&gt;&lt;div style=&quot;text-align: justify;&quot;&gt;&lt;span style=&quot;font-size: 10px;&quot;&gt;Image: CT, PT&lt;/span&gt;&lt;/div&gt;&lt;div style=&quot;text-align: justify;&quot;&gt;&lt;span style=&quot;font-size: 10px;&quot;&gt;Label:&amp;nbsp; Dosemap&lt;/span&gt;&lt;/div&gt;&lt;div style=&quot;text-align: justify;&quot;&gt;&lt;span style=&quot;font-size: 10px;&quot;&gt;Size: 128*128*188&lt;/span&gt;&lt;/div&gt;" style="shape=document;whiteSpace=wrap;html=1;boundedLbl=1;fontFamily=Verdana;size=0.16666666666666666;spacingLeft=2;spacingRight=0;spacing=1;spacingTop=2;rotation=0;container=0;" parent="r0JQJXY7RF1l7CL8Fuqj-1" vertex="1">
          <mxGeometry x="690.1655886157827" y="80" width="100.59508408796896" height="70" as="geometry" />
        </mxCell>
        <mxCell id="r0JQJXY7RF1l7CL8Fuqj-30" value="" style="group;fontFamily=Verdana;fontSize=6;spacing=0;rotation=-90;" parent="r0JQJXY7RF1l7CL8Fuqj-1" vertex="1" connectable="0">
          <mxGeometry x="-15.029754204398447" y="138" width="42.5" height="10" as="geometry" />
        </mxCell>
        <mxCell id="r0JQJXY7RF1l7CL8Fuqj-31" value="" style="shape=waypoint;sketch=0;fillStyle=solid;size=6;pointerEvents=1;points=[];fillColor=none;resizable=0;rotatable=0;perimeter=centerPerimeter;snapToPoint=1;strokeWidth=0;fontSize=10;fontFamily=Verdana;rotation=-90;" parent="r0JQJXY7RF1l7CL8Fuqj-30" vertex="1">
          <mxGeometry x="16" y="-29" width="40" height="40" as="geometry" />
        </mxCell>
        <mxCell id="r0JQJXY7RF1l7CL8Fuqj-32" value="" style="shape=waypoint;sketch=0;fillStyle=solid;size=6;pointerEvents=1;points=[];fillColor=none;resizable=0;rotatable=0;perimeter=centerPerimeter;snapToPoint=1;strokeWidth=0;fontSize=10;fontFamily=Verdana;rotation=-90;" parent="r0JQJXY7RF1l7CL8Fuqj-30" vertex="1">
          <mxGeometry x="16" y="-14" width="40" height="40" as="geometry" />
        </mxCell>
        <mxCell id="r0JQJXY7RF1l7CL8Fuqj-33" value="" style="shape=waypoint;sketch=0;fillStyle=solid;size=6;pointerEvents=1;points=[];fillColor=none;resizable=0;rotatable=0;perimeter=centerPerimeter;snapToPoint=1;strokeWidth=0;fontSize=10;fontFamily=Verdana;rotation=-90;" parent="r0JQJXY7RF1l7CL8Fuqj-30" vertex="1">
          <mxGeometry x="16" y="-22" width="40" height="40" as="geometry" />
        </mxCell>
      </root>
    </mxGraphModel>
  </diagram>
  <diagram id="pWRrMmH8Kc9Br_7ytorP" name="treatment">
    <mxGraphModel dx="1270" dy="751" grid="1" gridSize="10" guides="1" tooltips="1" connect="1" arrows="1" fold="1" page="1" pageScale="1" pageWidth="827" pageHeight="1169" math="0" shadow="0">
      <root>
        <mxCell id="0" />
        <mxCell id="1" parent="0" />
        <mxCell id="Q5hZqgmtlkCl-fDr3Nay-2" value="" style="rounded=1;whiteSpace=wrap;html=1;dashed=1;dashPattern=12 12;fillColor=#f5f5f5;movable=1;resizable=1;rotatable=1;deletable=1;editable=1;locked=0;connectable=1;strokeColor=#666666;fontColor=#333333;" parent="1" vertex="1">
          <mxGeometry x="30" y="31" width="770" height="163" as="geometry" />
        </mxCell>
        <mxCell id="Q5hZqgmtlkCl-fDr3Nay-30" value="" style="rounded=1;whiteSpace=wrap;html=1;dashed=1;dashPattern=1 2;fillColor=#d5e8d4;strokeColor=#82b366;" parent="1" vertex="1">
          <mxGeometry x="650" y="44" width="140" height="137" as="geometry" />
        </mxCell>
        <mxCell id="Q5hZqgmtlkCl-fDr3Nay-26" value="" style="rounded=1;whiteSpace=wrap;html=1;fillColor=#dae8fc;dashed=1;dashPattern=1 2;strokeColor=#6c8ebf;" parent="1" vertex="1">
          <mxGeometry x="40" y="44" width="440" height="137" as="geometry" />
        </mxCell>
        <mxCell id="Q5hZqgmtlkCl-fDr3Nay-27" value="" style="rounded=1;whiteSpace=wrap;html=1;dashed=1;dashPattern=1 2;fillColor=#fff2cc;strokeColor=#d6b656;" parent="1" vertex="1">
          <mxGeometry x="491" y="44" width="140" height="137" as="geometry" />
        </mxCell>
        <mxCell id="Q5hZqgmtlkCl-fDr3Nay-3" value="Imaging data" style="rounded=0;whiteSpace=wrap;html=1;fillColor=none;" parent="1" vertex="1">
          <mxGeometry x="50" y="104" width="80" height="40" as="geometry" />
        </mxCell>
        <mxCell id="Q5hZqgmtlkCl-fDr3Nay-5" value="Diagnose" style="whiteSpace=wrap;html=1;rounded=0;fillColor=none;" parent="1" vertex="1">
          <mxGeometry x="150" y="104" width="80" height="40" as="geometry" />
        </mxCell>
        <mxCell id="Q5hZqgmtlkCl-fDr3Nay-6" value="" style="edgeStyle=orthogonalEdgeStyle;rounded=0;orthogonalLoop=1;jettySize=auto;html=1;" parent="1" source="Q5hZqgmtlkCl-fDr3Nay-3" target="Q5hZqgmtlkCl-fDr3Nay-5" edge="1">
          <mxGeometry relative="1" as="geometry" />
        </mxCell>
        <mxCell id="Q5hZqgmtlkCl-fDr3Nay-7" value="Therapy plan" style="whiteSpace=wrap;html=1;rounded=0;fillColor=none;" parent="1" vertex="1">
          <mxGeometry x="250" y="104" width="80" height="40" as="geometry" />
        </mxCell>
        <mxCell id="Q5hZqgmtlkCl-fDr3Nay-8" value="" style="edgeStyle=orthogonalEdgeStyle;rounded=0;orthogonalLoop=1;jettySize=auto;html=1;" parent="1" source="Q5hZqgmtlkCl-fDr3Nay-5" target="Q5hZqgmtlkCl-fDr3Nay-7" edge="1">
          <mxGeometry relative="1" as="geometry" />
        </mxCell>
        <mxCell id="Q5hZqgmtlkCl-fDr3Nay-24" style="edgeStyle=orthogonalEdgeStyle;rounded=0;orthogonalLoop=1;jettySize=auto;html=1;" parent="1" source="Q5hZqgmtlkCl-fDr3Nay-9" edge="1">
          <mxGeometry relative="1" as="geometry">
            <mxPoint x="290" y="143" as="targetPoint" />
            <Array as="points">
              <mxPoint x="390" y="161" />
              <mxPoint x="290" y="161" />
              <mxPoint x="290" y="143" />
            </Array>
          </mxGeometry>
        </mxCell>
        <mxCell id="Q5hZqgmtlkCl-fDr3Nay-9" value="Clinical validation" style="whiteSpace=wrap;html=1;rounded=0;fillColor=none;" parent="1" vertex="1">
          <mxGeometry x="350" y="104" width="80" height="40" as="geometry" />
        </mxCell>
        <mxCell id="Q5hZqgmtlkCl-fDr3Nay-10" value="" style="edgeStyle=orthogonalEdgeStyle;rounded=0;orthogonalLoop=1;jettySize=auto;html=1;" parent="1" source="Q5hZqgmtlkCl-fDr3Nay-7" target="Q5hZqgmtlkCl-fDr3Nay-9" edge="1">
          <mxGeometry relative="1" as="geometry" />
        </mxCell>
        <mxCell id="Q5hZqgmtlkCl-fDr3Nay-23" value="" style="edgeStyle=orthogonalEdgeStyle;rounded=0;orthogonalLoop=1;jettySize=auto;html=1;" parent="1" source="Q5hZqgmtlkCl-fDr3Nay-11" target="Q5hZqgmtlkCl-fDr3Nay-22" edge="1">
          <mxGeometry relative="1" as="geometry" />
        </mxCell>
        <mxCell id="Q5hZqgmtlkCl-fDr3Nay-11" value="Radiation therapy" style="whiteSpace=wrap;html=1;rounded=0;fillColor=none;" parent="1" vertex="1">
          <mxGeometry x="520" y="104" width="80" height="40" as="geometry" />
        </mxCell>
        <mxCell id="Q5hZqgmtlkCl-fDr3Nay-12" value="" style="edgeStyle=orthogonalEdgeStyle;rounded=0;orthogonalLoop=1;jettySize=auto;html=1;" parent="1" source="Q5hZqgmtlkCl-fDr3Nay-9" target="Q5hZqgmtlkCl-fDr3Nay-11" edge="1">
          <mxGeometry relative="1" as="geometry" />
        </mxCell>
        <mxCell id="Q5hZqgmtlkCl-fDr3Nay-14" value="&lt;ul&gt;&lt;li&gt;Simulation therapy&lt;/li&gt;&lt;li&gt;Dosimetry&lt;/li&gt;&lt;li&gt;Safety assessment&lt;/li&gt;&lt;/ul&gt;" style="text;strokeColor=none;fillColor=none;html=1;whiteSpace=wrap;verticalAlign=middle;overflow=hidden;" parent="1" vertex="1">
          <mxGeometry x="320" y="44" width="145" height="60" as="geometry" />
        </mxCell>
        <mxCell id="Q5hZqgmtlkCl-fDr3Nay-16" value="Optimization" style="text;html=1;strokeColor=none;fillColor=none;align=center;verticalAlign=middle;whiteSpace=wrap;rounded=0;" parent="1" vertex="1">
          <mxGeometry x="310" y="138" width="60" height="30" as="geometry" />
        </mxCell>
        <mxCell id="Q5hZqgmtlkCl-fDr3Nay-32" style="edgeStyle=orthogonalEdgeStyle;rounded=0;orthogonalLoop=1;jettySize=auto;html=1;exitX=0.5;exitY=1;exitDx=0;exitDy=0;" parent="1" source="Q5hZqgmtlkCl-fDr3Nay-22" edge="1">
          <mxGeometry relative="1" as="geometry">
            <mxPoint x="280" y="146" as="targetPoint" />
            <mxPoint x="720" y="141" as="sourcePoint" />
            <Array as="points">
              <mxPoint x="720" y="166" />
              <mxPoint x="280" y="166" />
            </Array>
          </mxGeometry>
        </mxCell>
        <mxCell id="Q5hZqgmtlkCl-fDr3Nay-22" value="Evaluation" style="whiteSpace=wrap;html=1;rounded=0;fillColor=none;" parent="1" vertex="1">
          <mxGeometry x="680" y="104" width="80" height="40" as="geometry" />
        </mxCell>
        <mxCell id="Q5hZqgmtlkCl-fDr3Nay-25" value="Pre-therapy" style="text;html=1;strokeColor=none;fillColor=none;align=center;verticalAlign=middle;whiteSpace=wrap;rounded=0;fontStyle=1" parent="1" vertex="1">
          <mxGeometry x="40" y="51" width="90" height="30" as="geometry" />
        </mxCell>
        <mxCell id="Q5hZqgmtlkCl-fDr3Nay-28" value="Therapy" style="text;html=1;strokeColor=none;fillColor=none;align=center;verticalAlign=middle;whiteSpace=wrap;rounded=0;fontStyle=1" parent="1" vertex="1">
          <mxGeometry x="480" y="51" width="90" height="30" as="geometry" />
        </mxCell>
        <mxCell id="Q5hZqgmtlkCl-fDr3Nay-31" value="Post-therapy" style="text;html=1;strokeColor=none;fillColor=none;align=center;verticalAlign=middle;whiteSpace=wrap;rounded=0;fontStyle=1" parent="1" vertex="1">
          <mxGeometry x="655" y="51" width="90" height="30" as="geometry" />
        </mxCell>
        <mxCell id="Q5hZqgmtlkCl-fDr3Nay-33" value="Reference" style="text;html=1;strokeColor=none;fillColor=none;align=center;verticalAlign=middle;whiteSpace=wrap;rounded=0;" parent="1" vertex="1">
          <mxGeometry x="655" y="144" width="60" height="30" as="geometry" />
        </mxCell>
        <mxCell id="Q5hZqgmtlkCl-fDr3Nay-64" value="" style="group" parent="1" vertex="1" connectable="0">
          <mxGeometry x="81" y="207" width="670" height="150" as="geometry" />
        </mxCell>
        <mxCell id="Q5hZqgmtlkCl-fDr3Nay-1" value="" style="rounded=1;whiteSpace=wrap;html=1;dashed=1;dashPattern=12 12;fillColor=#f5f5f5;fontColor=#333333;strokeColor=#666666;" parent="Q5hZqgmtlkCl-fDr3Nay-64" vertex="1">
          <mxGeometry width="670" height="150" as="geometry" />
        </mxCell>
        <mxCell id="Q5hZqgmtlkCl-fDr3Nay-36" value="" style="endArrow=none;html=1;rounded=0;entryX=0.5;entryY=0;entryDx=0;entryDy=0;exitX=0.5;exitY=1;exitDx=0;exitDy=0;dashed=1;dashPattern=12 12;" parent="Q5hZqgmtlkCl-fDr3Nay-64" source="Q5hZqgmtlkCl-fDr3Nay-1" target="Q5hZqgmtlkCl-fDr3Nay-1" edge="1">
          <mxGeometry width="50" height="50" relative="1" as="geometry">
            <mxPoint x="310" y="20" as="sourcePoint" />
            <mxPoint x="360" y="-30" as="targetPoint" />
          </mxGeometry>
        </mxCell>
        <mxCell id="Q5hZqgmtlkCl-fDr3Nay-60" value="" style="rounded=1;whiteSpace=wrap;html=1;fillColor=#dae8fc;dashed=1;dashPattern=1 2;strokeColor=#6c8ebf;" parent="Q5hZqgmtlkCl-fDr3Nay-64" vertex="1">
          <mxGeometry x="10" y="10" width="310" height="130" as="geometry" />
        </mxCell>
        <mxCell id="Q5hZqgmtlkCl-fDr3Nay-51" value="Imaging data&lt;br&gt;&lt;sup&gt;68&lt;/sup&gt;Ga" style="rounded=0;whiteSpace=wrap;html=1;fillColor=none;" parent="Q5hZqgmtlkCl-fDr3Nay-64" vertex="1">
          <mxGeometry x="21" y="38" width="80" height="40" as="geometry" />
        </mxCell>
        <mxCell id="Q5hZqgmtlkCl-fDr3Nay-52" value="MC" style="rounded=0;whiteSpace=wrap;html=1;fillColor=none;" parent="Q5hZqgmtlkCl-fDr3Nay-64" vertex="1">
          <mxGeometry x="21" y="88" width="80" height="40" as="geometry" />
        </mxCell>
        <mxCell id="Q5hZqgmtlkCl-fDr3Nay-53" style="edgeStyle=orthogonalEdgeStyle;rounded=0;orthogonalLoop=1;jettySize=auto;html=1;entryX=0;entryY=0.5;entryDx=0;entryDy=0;" parent="Q5hZqgmtlkCl-fDr3Nay-64" source="Q5hZqgmtlkCl-fDr3Nay-52" target="Q5hZqgmtlkCl-fDr3Nay-55" edge="1">
          <mxGeometry relative="1" as="geometry" />
        </mxCell>
        <mxCell id="Q5hZqgmtlkCl-fDr3Nay-54" style="edgeStyle=orthogonalEdgeStyle;rounded=0;orthogonalLoop=1;jettySize=auto;html=1;exitX=1;exitY=0.5;exitDx=0;exitDy=0;entryX=0;entryY=0.5;entryDx=0;entryDy=0;" parent="Q5hZqgmtlkCl-fDr3Nay-64" source="Q5hZqgmtlkCl-fDr3Nay-51" target="Q5hZqgmtlkCl-fDr3Nay-55" edge="1">
          <mxGeometry relative="1" as="geometry" />
        </mxCell>
        <mxCell id="Q5hZqgmtlkCl-fDr3Nay-55" value="" style="editableCssRules=.*;shape=image;verticalLabelPosition=bottom;labelBackgroundColor=#ffffff;verticalAlign=top;aspect=fixed;imageAspect=0;image=data:image/svg+xml,PHN2ZyB4bWxucz0iaHR0cDovL3d3dy53My5vcmcvMjAwMC9zdmciIHhtbG5zOnY9Imh0dHBzOi8vdmVjdGEuaW8vbmFubyIgd2lkdGg9IjIwIiBoZWlnaHQ9IjE3LjUiIGZpbGwtcnVsZT0iZXZlbm9kZCIgdmlld0JveD0iMCAwIDIwIDE3LjUiPiYjeGE7CTxzdHlsZSB0eXBlPSJ0ZXh0L2NzcyI+JiN4YTsJLnN0MHtmaWxsOiM0Mjg1ZjQ7fSYjeGE7CS5zdDF7ZmlsbDojNjY5ZGY2O30mI3hhOwk8L3N0eWxlPiYjeGE7CTxwYXRoIGNsYXNzPSJzdDAiIGQ9Ik0xOC45MSAxMC42M0wyMCA4Ljc1IDE3LjgyIDVoLTMuMDdsLTEuMDYtMS44NkgxMi41VjEuODhoMS45NGwxLjA2IDEuODdoMS41OUwxNC45IDBoLTQuMjd2NWgxLjczbC43MyAxLjI1aC0yLjQ2djIuNWgyLjI2bDEuMDUtMS44N2gyLjgxbC43MiAxLjI1aC0yLjhMMTMuNjIgMTBoLTIuOTl2NC4zOGgzLjRsLS43MiAxLjI1aC0yLjY4djEuODdoNC4yN2wzLjI4LTUuNjJoLTIuMDlsLS43MyAxLjI1SDEyLjV2LTEuMjVoMi4xNGwuNzQtMS4yNXoiLz4mI3hhOwk8cGF0aCBjbGFzcz0ic3QxIiBkPSJNMS4wOSAxMC42M0wwIDguNzUgMi4xOCA1aDMuMDdsMS4wNi0xLjg2SDcuNVYxLjg4SDUuNTZMNC41IDMuNzVIMi45MUw1LjEgMGg0LjI4djVINy42NGwtLjczIDEuMjVoMi40N3YyLjVINy4xMUw2LjA2IDYuODhIMy4yNWwtLjcyIDEuMjVoMi44TDYuMzggMTBoM3Y0LjM4SDUuOTdsLjcyIDEuMjVoMi42OXYxLjg3SDUuMWwtMy4yOC01LjYyaDIuMDlsLjczIDEuMjVINy41di0xLjI1SDUuMzZsLS43NC0xLjI1eiIvPiYjeGE7PC9zdmc+;fillColor=none;" parent="Q5hZqgmtlkCl-fDr3Nay-64" vertex="1">
          <mxGeometry x="144" y="58" width="55.56" height="50" as="geometry" />
        </mxCell>
        <mxCell id="Q5hZqgmtlkCl-fDr3Nay-56" value="Dose value" style="rounded=0;whiteSpace=wrap;html=1;fillColor=none;" parent="Q5hZqgmtlkCl-fDr3Nay-64" vertex="1">
          <mxGeometry x="226" y="63" width="80" height="40" as="geometry" />
        </mxCell>
        <mxCell id="Q5hZqgmtlkCl-fDr3Nay-57" value="" style="edgeStyle=orthogonalEdgeStyle;rounded=0;orthogonalLoop=1;jettySize=auto;html=1;" parent="Q5hZqgmtlkCl-fDr3Nay-64" source="Q5hZqgmtlkCl-fDr3Nay-55" target="Q5hZqgmtlkCl-fDr3Nay-56" edge="1">
          <mxGeometry relative="1" as="geometry" />
        </mxCell>
        <mxCell id="Q5hZqgmtlkCl-fDr3Nay-37" value="Pre-therapy" style="text;html=1;strokeColor=none;fillColor=none;align=center;verticalAlign=middle;whiteSpace=wrap;rounded=0;fontStyle=1" parent="Q5hZqgmtlkCl-fDr3Nay-64" vertex="1">
          <mxGeometry x="10" y="8" width="90" height="30" as="geometry" />
        </mxCell>
        <mxCell id="Q5hZqgmtlkCl-fDr3Nay-63" value="" style="rounded=1;whiteSpace=wrap;html=1;fillColor=#d5e8d4;dashed=1;dashPattern=1 2;strokeColor=#82b366;" parent="Q5hZqgmtlkCl-fDr3Nay-64" vertex="1">
          <mxGeometry x="350" y="11" width="310" height="130" as="geometry" />
        </mxCell>
        <mxCell id="Q5hZqgmtlkCl-fDr3Nay-38" value="Post-therapy" style="text;html=1;strokeColor=none;fillColor=none;align=center;verticalAlign=middle;whiteSpace=wrap;rounded=0;fontStyle=1" parent="Q5hZqgmtlkCl-fDr3Nay-64" vertex="1">
          <mxGeometry x="352" y="11" width="90" height="30" as="geometry" />
        </mxCell>
        <mxCell id="Q5hZqgmtlkCl-fDr3Nay-35" value="Imaging data&lt;br&gt;&lt;sup&gt;177&lt;/sup&gt;Lu" style="rounded=0;whiteSpace=wrap;html=1;fillColor=none;" parent="Q5hZqgmtlkCl-fDr3Nay-64" vertex="1">
          <mxGeometry x="360" y="41" width="80" height="40" as="geometry" />
        </mxCell>
        <mxCell id="Q5hZqgmtlkCl-fDr3Nay-39" value="MC" style="rounded=0;whiteSpace=wrap;html=1;fillColor=none;" parent="Q5hZqgmtlkCl-fDr3Nay-64" vertex="1">
          <mxGeometry x="360" y="91" width="80" height="40" as="geometry" />
        </mxCell>
        <mxCell id="Q5hZqgmtlkCl-fDr3Nay-42" style="edgeStyle=orthogonalEdgeStyle;rounded=0;orthogonalLoop=1;jettySize=auto;html=1;exitX=1;exitY=0.5;exitDx=0;exitDy=0;entryX=0;entryY=0.5;entryDx=0;entryDy=0;" parent="Q5hZqgmtlkCl-fDr3Nay-64" source="Q5hZqgmtlkCl-fDr3Nay-35" target="Q5hZqgmtlkCl-fDr3Nay-40" edge="1">
          <mxGeometry relative="1" as="geometry" />
        </mxCell>
        <mxCell id="Q5hZqgmtlkCl-fDr3Nay-43" style="edgeStyle=orthogonalEdgeStyle;rounded=0;orthogonalLoop=1;jettySize=auto;html=1;entryX=0;entryY=0.5;entryDx=0;entryDy=0;" parent="Q5hZqgmtlkCl-fDr3Nay-64" source="Q5hZqgmtlkCl-fDr3Nay-39" target="Q5hZqgmtlkCl-fDr3Nay-40" edge="1">
          <mxGeometry relative="1" as="geometry" />
        </mxCell>
        <mxCell id="Q5hZqgmtlkCl-fDr3Nay-40" value="" style="editableCssRules=.*;shape=image;verticalLabelPosition=bottom;labelBackgroundColor=#ffffff;verticalAlign=top;aspect=fixed;imageAspect=0;image=data:image/svg+xml,PHN2ZyB4bWxucz0iaHR0cDovL3d3dy53My5vcmcvMjAwMC9zdmciIHhtbG5zOnY9Imh0dHBzOi8vdmVjdGEuaW8vbmFubyIgd2lkdGg9IjIwIiBoZWlnaHQ9IjE3LjUiIGZpbGwtcnVsZT0iZXZlbm9kZCIgdmlld0JveD0iMCAwIDIwIDE3LjUiPiYjeGE7CTxzdHlsZSB0eXBlPSJ0ZXh0L2NzcyI+JiN4YTsJLnN0MHtmaWxsOiM0Mjg1ZjQ7fSYjeGE7CS5zdDF7ZmlsbDojNjY5ZGY2O30mI3hhOwk8L3N0eWxlPiYjeGE7CTxwYXRoIGNsYXNzPSJzdDAiIGQ9Ik0xOC45MSAxMC42M0wyMCA4Ljc1IDE3LjgyIDVoLTMuMDdsLTEuMDYtMS44NkgxMi41VjEuODhoMS45NGwxLjA2IDEuODdoMS41OUwxNC45IDBoLTQuMjd2NWgxLjczbC43MyAxLjI1aC0yLjQ2djIuNWgyLjI2bDEuMDUtMS44N2gyLjgxbC43MiAxLjI1aC0yLjhMMTMuNjIgMTBoLTIuOTl2NC4zOGgzLjRsLS43MiAxLjI1aC0yLjY4djEuODdoNC4yN2wzLjI4LTUuNjJoLTIuMDlsLS43MyAxLjI1SDEyLjV2LTEuMjVoMi4xNGwuNzQtMS4yNXoiLz4mI3hhOwk8cGF0aCBjbGFzcz0ic3QxIiBkPSJNMS4wOSAxMC42M0wwIDguNzUgMi4xOCA1aDMuMDdsMS4wNi0xLjg2SDcuNVYxLjg4SDUuNTZMNC41IDMuNzVIMi45MUw1LjEgMGg0LjI4djVINy42NGwtLjczIDEuMjVoMi40N3YyLjVINy4xMUw2LjA2IDYuODhIMy4yNWwtLjcyIDEuMjVoMi44TDYuMzggMTBoM3Y0LjM4SDUuOTdsLjcyIDEuMjVoMi42OXYxLjg3SDUuMWwtMy4yOC01LjYyaDIuMDlsLjczIDEuMjVINy41di0xLjI1SDUuMzZsLS43NC0xLjI1eiIvPiYjeGE7PC9zdmc+;fillColor=none;" parent="Q5hZqgmtlkCl-fDr3Nay-64" vertex="1">
          <mxGeometry x="484" y="61" width="55.56" height="50" as="geometry" />
        </mxCell>
        <mxCell id="Q5hZqgmtlkCl-fDr3Nay-44" style="edgeStyle=orthogonalEdgeStyle;rounded=0;orthogonalLoop=1;jettySize=auto;html=1;exitX=1;exitY=0.5;exitDx=0;exitDy=0;entryX=0;entryY=0.5;entryDx=0;entryDy=0;" parent="Q5hZqgmtlkCl-fDr3Nay-64" source="Q5hZqgmtlkCl-fDr3Nay-40" target="Q5hZqgmtlkCl-fDr3Nay-41" edge="1">
          <mxGeometry relative="1" as="geometry" />
        </mxCell>
        <mxCell id="Q5hZqgmtlkCl-fDr3Nay-41" value="Dose value" style="rounded=0;whiteSpace=wrap;html=1;fillColor=none;" parent="Q5hZqgmtlkCl-fDr3Nay-64" vertex="1">
          <mxGeometry x="565" y="66" width="80" height="40" as="geometry" />
        </mxCell>
        <mxCell id="Q5hZqgmtlkCl-fDr3Nay-65" value="" style="group" parent="1" vertex="1" connectable="0">
          <mxGeometry x="79" y="374" width="670" height="150" as="geometry" />
        </mxCell>
        <mxCell id="Q5hZqgmtlkCl-fDr3Nay-66" value="" style="rounded=1;whiteSpace=wrap;html=1;dashed=1;dashPattern=12 12;fillColor=#f5f5f5;fontColor=#333333;strokeColor=#666666;" parent="Q5hZqgmtlkCl-fDr3Nay-65" vertex="1">
          <mxGeometry width="670" height="150" as="geometry" />
        </mxCell>
        <mxCell id="Q5hZqgmtlkCl-fDr3Nay-67" value="" style="endArrow=none;html=1;rounded=0;entryX=0.5;entryY=0;entryDx=0;entryDy=0;exitX=0.5;exitY=1;exitDx=0;exitDy=0;dashed=1;dashPattern=12 12;" parent="Q5hZqgmtlkCl-fDr3Nay-65" source="Q5hZqgmtlkCl-fDr3Nay-66" target="Q5hZqgmtlkCl-fDr3Nay-66" edge="1">
          <mxGeometry width="50" height="50" relative="1" as="geometry">
            <mxPoint x="310" y="20" as="sourcePoint" />
            <mxPoint x="360" y="-30" as="targetPoint" />
          </mxGeometry>
        </mxCell>
        <mxCell id="Q5hZqgmtlkCl-fDr3Nay-68" value="" style="rounded=1;whiteSpace=wrap;html=1;fillColor=#d5e8d4;dashed=1;dashPattern=1 2;strokeColor=#82b366;" parent="Q5hZqgmtlkCl-fDr3Nay-65" vertex="1">
          <mxGeometry x="10" y="10" width="310" height="130" as="geometry" />
        </mxCell>
        <mxCell id="Q5hZqgmtlkCl-fDr3Nay-69" value="Imaging data&lt;br style=&quot;border-color: var(--border-color);&quot;&gt;&lt;sup style=&quot;border-color: var(--border-color);&quot;&gt;177&lt;/sup&gt;Lu" style="rounded=0;whiteSpace=wrap;html=1;fillColor=none;" parent="Q5hZqgmtlkCl-fDr3Nay-65" vertex="1">
          <mxGeometry x="21" y="38" width="80" height="40" as="geometry" />
        </mxCell>
        <mxCell id="Q5hZqgmtlkCl-fDr3Nay-70" value="MC" style="rounded=0;whiteSpace=wrap;html=1;fillColor=none;" parent="Q5hZqgmtlkCl-fDr3Nay-65" vertex="1">
          <mxGeometry x="21" y="88" width="80" height="40" as="geometry" />
        </mxCell>
        <mxCell id="Q5hZqgmtlkCl-fDr3Nay-71" style="edgeStyle=orthogonalEdgeStyle;rounded=0;orthogonalLoop=1;jettySize=auto;html=1;entryX=0;entryY=0.5;entryDx=0;entryDy=0;" parent="Q5hZqgmtlkCl-fDr3Nay-65" source="Q5hZqgmtlkCl-fDr3Nay-70" target="Q5hZqgmtlkCl-fDr3Nay-73" edge="1">
          <mxGeometry relative="1" as="geometry" />
        </mxCell>
        <mxCell id="Q5hZqgmtlkCl-fDr3Nay-72" style="edgeStyle=orthogonalEdgeStyle;rounded=0;orthogonalLoop=1;jettySize=auto;html=1;exitX=1;exitY=0.5;exitDx=0;exitDy=0;entryX=0;entryY=0.5;entryDx=0;entryDy=0;" parent="Q5hZqgmtlkCl-fDr3Nay-65" source="Q5hZqgmtlkCl-fDr3Nay-69" target="Q5hZqgmtlkCl-fDr3Nay-73" edge="1">
          <mxGeometry relative="1" as="geometry" />
        </mxCell>
        <mxCell id="Q5hZqgmtlkCl-fDr3Nay-73" value="" style="editableCssRules=.*;shape=image;verticalLabelPosition=bottom;labelBackgroundColor=#ffffff;verticalAlign=top;aspect=fixed;imageAspect=0;image=data:image/svg+xml,PHN2ZyB4bWxucz0iaHR0cDovL3d3dy53My5vcmcvMjAwMC9zdmciIHhtbG5zOnY9Imh0dHBzOi8vdmVjdGEuaW8vbmFubyIgd2lkdGg9IjIwIiBoZWlnaHQ9IjE3LjUiIGZpbGwtcnVsZT0iZXZlbm9kZCIgdmlld0JveD0iMCAwIDIwIDE3LjUiPiYjeGE7CTxzdHlsZSB0eXBlPSJ0ZXh0L2NzcyI+JiN4YTsJLnN0MHtmaWxsOiM0Mjg1ZjQ7fSYjeGE7CS5zdDF7ZmlsbDojNjY5ZGY2O30mI3hhOwk8L3N0eWxlPiYjeGE7CTxwYXRoIGNsYXNzPSJzdDAiIGQ9Ik0xOC45MSAxMC42M0wyMCA4Ljc1IDE3LjgyIDVoLTMuMDdsLTEuMDYtMS44NkgxMi41VjEuODhoMS45NGwxLjA2IDEuODdoMS41OUwxNC45IDBoLTQuMjd2NWgxLjczbC43MyAxLjI1aC0yLjQ2djIuNWgyLjI2bDEuMDUtMS44N2gyLjgxbC43MiAxLjI1aC0yLjhMMTMuNjIgMTBoLTIuOTl2NC4zOGgzLjRsLS43MiAxLjI1aC0yLjY4djEuODdoNC4yN2wzLjI4LTUuNjJoLTIuMDlsLS43MyAxLjI1SDEyLjV2LTEuMjVoMi4xNGwuNzQtMS4yNXoiLz4mI3hhOwk8cGF0aCBjbGFzcz0ic3QxIiBkPSJNMS4wOSAxMC42M0wwIDguNzUgMi4xOCA1aDMuMDdsMS4wNi0xLjg2SDcuNVYxLjg4SDUuNTZMNC41IDMuNzVIMi45MUw1LjEgMGg0LjI4djVINy42NGwtLjczIDEuMjVoMi40N3YyLjVINy4xMUw2LjA2IDYuODhIMy4yNWwtLjcyIDEuMjVoMi44TDYuMzggMTBoM3Y0LjM4SDUuOTdsLjcyIDEuMjVoMi42OXYxLjg3SDUuMWwtMy4yOC01LjYyaDIuMDlsLjczIDEuMjVINy41di0xLjI1SDUuMzZsLS43NC0xLjI1eiIvPiYjeGE7PC9zdmc+;fillColor=none;" parent="Q5hZqgmtlkCl-fDr3Nay-65" vertex="1">
          <mxGeometry x="144" y="58" width="55.56" height="50" as="geometry" />
        </mxCell>
        <mxCell id="Q5hZqgmtlkCl-fDr3Nay-74" value="voxel-wise dose value" style="rounded=0;whiteSpace=wrap;html=1;fillColor=none;" parent="Q5hZqgmtlkCl-fDr3Nay-65" vertex="1">
          <mxGeometry x="226" y="63" width="80" height="40" as="geometry" />
        </mxCell>
        <mxCell id="Q5hZqgmtlkCl-fDr3Nay-75" value="" style="edgeStyle=orthogonalEdgeStyle;rounded=0;orthogonalLoop=1;jettySize=auto;html=1;" parent="Q5hZqgmtlkCl-fDr3Nay-65" source="Q5hZqgmtlkCl-fDr3Nay-73" target="Q5hZqgmtlkCl-fDr3Nay-74" edge="1">
          <mxGeometry relative="1" as="geometry" />
        </mxCell>
        <mxCell id="Q5hZqgmtlkCl-fDr3Nay-76" value="Post-therapy: voxel-wise prediction" style="text;html=1;strokeColor=none;fillColor=none;align=center;verticalAlign=middle;whiteSpace=wrap;rounded=0;fontStyle=1" parent="Q5hZqgmtlkCl-fDr3Nay-65" vertex="1">
          <mxGeometry x="13" y="8" width="220" height="30" as="geometry" />
        </mxCell>
        <mxCell id="Q5hZqgmtlkCl-fDr3Nay-77" value="" style="rounded=1;whiteSpace=wrap;html=1;fillColor=#d5e8d4;dashed=1;dashPattern=1 2;strokeColor=#82b366;" parent="Q5hZqgmtlkCl-fDr3Nay-65" vertex="1">
          <mxGeometry x="350" y="11" width="310" height="130" as="geometry" />
        </mxCell>
        <mxCell id="Q5hZqgmtlkCl-fDr3Nay-78" value="Post-therapy: organ-based prediction" style="text;html=1;strokeColor=none;fillColor=none;align=center;verticalAlign=middle;whiteSpace=wrap;rounded=0;fontStyle=1" parent="Q5hZqgmtlkCl-fDr3Nay-65" vertex="1">
          <mxGeometry x="352" y="11" width="228" height="30" as="geometry" />
        </mxCell>
        <mxCell id="Q5hZqgmtlkCl-fDr3Nay-79" value="Imaging data&lt;br&gt;&lt;sup&gt;177&lt;/sup&gt;Lu" style="rounded=0;whiteSpace=wrap;html=1;fillColor=none;" parent="Q5hZqgmtlkCl-fDr3Nay-65" vertex="1">
          <mxGeometry x="360" y="41" width="80" height="40" as="geometry" />
        </mxCell>
        <mxCell id="Q5hZqgmtlkCl-fDr3Nay-80" value="MC" style="rounded=0;whiteSpace=wrap;html=1;fillColor=none;" parent="Q5hZqgmtlkCl-fDr3Nay-65" vertex="1">
          <mxGeometry x="360" y="91" width="80" height="40" as="geometry" />
        </mxCell>
        <mxCell id="Q5hZqgmtlkCl-fDr3Nay-81" style="edgeStyle=orthogonalEdgeStyle;rounded=0;orthogonalLoop=1;jettySize=auto;html=1;exitX=1;exitY=0.5;exitDx=0;exitDy=0;entryX=0;entryY=0.5;entryDx=0;entryDy=0;" parent="Q5hZqgmtlkCl-fDr3Nay-65" source="Q5hZqgmtlkCl-fDr3Nay-79" target="Q5hZqgmtlkCl-fDr3Nay-83" edge="1">
          <mxGeometry relative="1" as="geometry" />
        </mxCell>
        <mxCell id="Q5hZqgmtlkCl-fDr3Nay-82" style="edgeStyle=orthogonalEdgeStyle;rounded=0;orthogonalLoop=1;jettySize=auto;html=1;entryX=0;entryY=0.5;entryDx=0;entryDy=0;" parent="Q5hZqgmtlkCl-fDr3Nay-65" source="Q5hZqgmtlkCl-fDr3Nay-80" target="Q5hZqgmtlkCl-fDr3Nay-83" edge="1">
          <mxGeometry relative="1" as="geometry" />
        </mxCell>
        <mxCell id="Q5hZqgmtlkCl-fDr3Nay-83" value="" style="editableCssRules=.*;shape=image;verticalLabelPosition=bottom;labelBackgroundColor=#ffffff;verticalAlign=top;aspect=fixed;imageAspect=0;image=data:image/svg+xml,PHN2ZyB4bWxucz0iaHR0cDovL3d3dy53My5vcmcvMjAwMC9zdmciIHhtbG5zOnY9Imh0dHBzOi8vdmVjdGEuaW8vbmFubyIgd2lkdGg9IjIwIiBoZWlnaHQ9IjE3LjUiIGZpbGwtcnVsZT0iZXZlbm9kZCIgdmlld0JveD0iMCAwIDIwIDE3LjUiPiYjeGE7CTxzdHlsZSB0eXBlPSJ0ZXh0L2NzcyI+JiN4YTsJLnN0MHtmaWxsOiM0Mjg1ZjQ7fSYjeGE7CS5zdDF7ZmlsbDojNjY5ZGY2O30mI3hhOwk8L3N0eWxlPiYjeGE7CTxwYXRoIGNsYXNzPSJzdDAiIGQ9Ik0xOC45MSAxMC42M0wyMCA4Ljc1IDE3LjgyIDVoLTMuMDdsLTEuMDYtMS44NkgxMi41VjEuODhoMS45NGwxLjA2IDEuODdoMS41OUwxNC45IDBoLTQuMjd2NWgxLjczbC43MyAxLjI1aC0yLjQ2djIuNWgyLjI2bDEuMDUtMS44N2gyLjgxbC43MiAxLjI1aC0yLjhMMTMuNjIgMTBoLTIuOTl2NC4zOGgzLjRsLS43MiAxLjI1aC0yLjY4djEuODdoNC4yN2wzLjI4LTUuNjJoLTIuMDlsLS43MyAxLjI1SDEyLjV2LTEuMjVoMi4xNGwuNzQtMS4yNXoiLz4mI3hhOwk8cGF0aCBjbGFzcz0ic3QxIiBkPSJNMS4wOSAxMC42M0wwIDguNzUgMi4xOCA1aDMuMDdsMS4wNi0xLjg2SDcuNVYxLjg4SDUuNTZMNC41IDMuNzVIMi45MUw1LjEgMGg0LjI4djVINy42NGwtLjczIDEuMjVoMi40N3YyLjVINy4xMUw2LjA2IDYuODhIMy4yNWwtLjcyIDEuMjVoMi44TDYuMzggMTBoM3Y0LjM4SDUuOTdsLjcyIDEuMjVoMi42OXYxLjg3SDUuMWwtMy4yOC01LjYyaDIuMDlsLjczIDEuMjVINy41di0xLjI1SDUuMzZsLS43NC0xLjI1eiIvPiYjeGE7PC9zdmc+;fillColor=none;" parent="Q5hZqgmtlkCl-fDr3Nay-65" vertex="1">
          <mxGeometry x="483" y="61" width="55.56" height="50" as="geometry" />
        </mxCell>
        <mxCell id="Q5hZqgmtlkCl-fDr3Nay-84" style="edgeStyle=orthogonalEdgeStyle;rounded=0;orthogonalLoop=1;jettySize=auto;html=1;exitX=1;exitY=0.5;exitDx=0;exitDy=0;entryX=0;entryY=0.5;entryDx=0;entryDy=0;" parent="Q5hZqgmtlkCl-fDr3Nay-65" source="Q5hZqgmtlkCl-fDr3Nay-83" target="Q5hZqgmtlkCl-fDr3Nay-85" edge="1">
          <mxGeometry relative="1" as="geometry" />
        </mxCell>
        <mxCell id="Q5hZqgmtlkCl-fDr3Nay-85" value="organ-based dose value" style="rounded=0;whiteSpace=wrap;html=1;fillColor=none;" parent="Q5hZqgmtlkCl-fDr3Nay-65" vertex="1">
          <mxGeometry x="565" y="66" width="80" height="40" as="geometry" />
        </mxCell>
        <mxCell id="Q5hZqgmtlkCl-fDr3Nay-87" value="" style="rounded=1;whiteSpace=wrap;html=1;dashed=1;dashPattern=12 12;fillColor=#dae8fc;strokeColor=#6c8ebf;" parent="1" vertex="1">
          <mxGeometry x="79" y="540" width="631" height="259" as="geometry" />
        </mxCell>
        <mxCell id="Q5hZqgmtlkCl-fDr3Nay-97" value="Pre-therapy: prostate localization （20*20*32）" style="text;html=1;strokeColor=none;fillColor=none;align=center;verticalAlign=middle;whiteSpace=wrap;rounded=0;fontStyle=1" parent="1" vertex="1">
          <mxGeometry x="104" y="542" width="288" height="30" as="geometry" />
        </mxCell>
        <mxCell id="Q5hZqgmtlkCl-fDr3Nay-271" style="edgeStyle=orthogonalEdgeStyle;rounded=0;orthogonalLoop=1;jettySize=auto;html=1;entryX=0;entryY=0.5;entryDx=0;entryDy=0;" parent="1" source="Q5hZqgmtlkCl-fDr3Nay-265" target="Q5hZqgmtlkCl-fDr3Nay-266" edge="1">
          <mxGeometry relative="1" as="geometry" />
        </mxCell>
        <mxCell id="Q5hZqgmtlkCl-fDr3Nay-265" value="horizantal center: &lt;br&gt;position: middle index of x axis&amp;nbsp;(0-127)" style="rounded=0;whiteSpace=wrap;html=1;fillColor=none;align=left;" parent="1" vertex="1">
          <mxGeometry x="330" y="578" width="140" height="41" as="geometry" />
        </mxCell>
        <mxCell id="Q5hZqgmtlkCl-fDr3Nay-266" value="vertical center:&lt;br&gt;position:&amp;nbsp;index of max&lt;br&gt;index between 100-150" style="rounded=0;whiteSpace=wrap;html=1;fillColor=none;align=left;" parent="1" vertex="1">
          <mxGeometry x="554.12" y="578" width="130" height="41" as="geometry" />
        </mxCell>
        <mxCell id="Q5hZqgmtlkCl-fDr3Nay-270" style="edgeStyle=orthogonalEdgeStyle;rounded=0;orthogonalLoop=1;jettySize=auto;html=1;entryX=0;entryY=0.5;entryDx=0;entryDy=0;" parent="1" source="Q5hZqgmtlkCl-fDr3Nay-267" target="Q5hZqgmtlkCl-fDr3Nay-265" edge="1">
          <mxGeometry relative="1" as="geometry" />
        </mxCell>
        <mxCell id="Q5hZqgmtlkCl-fDr3Nay-267" value="thickness: 32&lt;br&gt;position: middle to front 48-79 of 128 slices&amp;nbsp;" style="rounded=0;whiteSpace=wrap;html=1;fillColor=none;align=left;" parent="1" vertex="1">
          <mxGeometry x="114.5" y="578" width="135.5" height="41" as="geometry" />
        </mxCell>
        <mxCell id="Q5hZqgmtlkCl-fDr3Nay-273" value="The middle slice" style="text;html=1;strokeColor=none;fillColor=none;align=center;verticalAlign=middle;whiteSpace=wrap;rounded=0;" parent="1" vertex="1">
          <mxGeometry x="107" y="768" width="129" height="23" as="geometry" />
        </mxCell>
        <mxCell id="Q5hZqgmtlkCl-fDr3Nay-274" value="" style="shape=image;verticalLabelPosition=bottom;labelBackgroundColor=default;verticalAlign=top;aspect=fixed;imageAspect=0;image=data:image/png,iVBORw0KGgoAAAANSUhEUgAAA5sAAAD8CAYAAAD5crBvAAAAAXNSR0IArs4c6QAAIABJREFUeJzsvXm0ZVld5/n57TPc4U0xZmRkRJKZzKOApihLBRGxRCnRWoAsxAWtFmVV4ZKyrFa7XLZoVZdotaXdWipLsbBX9UJwAhUFZKjCVpAENYWExCQhIYMcIjOGN9zhDHv3H7997r3vxXvxbsQbI97vs9ZZ7w7n7rPPufcX8d3nN4FhGIZhGIZhGIZhGIZhGIZhGIZhGIZhGIZhGIZhGIZhGIZhGIZhGIZhGIZhGIZhGIZhGIZhGIZhGIZhGIZhGIZhGIZhGIZhGIZhGMa+4luBu4F7gB/f47kYhrEas0/DMAzDMAzjmiQBPgc8FsiBvweeuqczMgyjwezTMAzDuF7Z7GbqjwB3AXcC7wdumXivBv4ubu/a2WkahrEVngu8Z+L5T8TNMIy9x+zTMAzDuB6Z5mbqC4BufPwvgd+deG95pydoGAeNdIfGPQV8aeL5/cDXbLRzRh7azOzQVCIiSCuHsho9x3twAgEIYWJfQNylY3ivnxMZP5/ESfzw5L6AD+AcoZUREsH1iks/e9DJMqhrQlXt9UymZonzjwDH93oeV8EV2SeYjRqYjRqGcS3wHNSjeW98/jbgpagns+GDE48/Arx6Kwc8evRouPXWW7cyhGFc83z84x/f8P/bnVpsTsPr4kZCytfIC3f0YJLluJtPwcVlCF6Fqq/BJfo8CtlQlOA9kiT6wSzVfYDQ64FzSOIgywmDAdT1+Bid9mhffK3CrPY63umT+G4LCQG5935CXa8Wz1dIqGtCFOUuz8CtI7yvIaTbIfT6+Lo3fi3LkXYLv7S0hzPbmL8Iv3ffXs9hhzEbNRsdYTZqGMY1wJXeTP1+4M8mnreBO4AK+DngjzY74K233sodd9xx5TM1jOsIEdnw/9udWmyeAW6eeH46vjbJm+NGRuvqFd2UhLpGlnuEsI63QhyEemLngB8OkSRRQetQYQoqTieF7iQ+oOH+qKCNQlM6bUI7w/WGyEofX1XgPSEEROQSERqiOG7eC3V96fHqeizEL3fO682zeW1ChG+V0bEab9AVCuvQ6+sYabrKcyKNh8rYTqaxTzAbNRud/LzZqGEY1xevBm4Hnj/x2i3o/4ePBT4A/AMalruW0c3Ys2fP7uwsDeMaZ6dutX8MeAJwGxoz/0r2OtHa11QPPkRYXoGqguAJ/YGKwaoi9Af6vK7VIzEcjj/b7Nt4OUIY7TtJGA51nMH4s5JncMNRpKzhkXNUZ76s0xkOCcMhfjC4ZKqhea8ox8/LdULXRHDt1rqi8ZJzmPxYmmq44nbhvR7Le0Lt1z2naXCdNm5hfvQ8lAX14uJ2zdIYs//sE8xGJz9mNmoYhnE1THsz9ZuBfw98BzD5D3Gz773Ah4Bnb3CcN6ML1duPH7dIfcO4HDvl2ayA16NFSBLgLcCnduhYV0woq5FHIwyGhKoiFAWu0wFQb0lXc8dDUVzFAQKh10PyHGm3CYD/3H06Vgj4Xu+Sj/jBcOyZAaTVWt/jsQnrjR2KYuSJcN0uMtOFPNOQuH7/ykMFXYJrty757KSAXW8el/usa7fxK31CVV7ZXIyrYV/bJ5iNmo0ahmFcFZM3U8+gN1NftWafZwO/gVatfXji9cNAD118HgO+Dvj5HZ6vYVz37GTO5rvjtv+YFG6TnpBGtIpDsvTSfTcbtgnJy1L9XKpjyPnFkYhd93NFsUrEjsZqQvWyXD03E6K6ySebSmgnCRKLqcjMjHqNqkrFcl1raGHw0xf+aMIcryafzdcbX4uJvLxJJMtV4G4hf864hP1rn2A2ajZqGIZxNWx0M/Vn0FzMdwG/AMwC74if+SLq4XwKugj1aOTfz7G6sJBhGFfBXhYI2h94H/O4GAs5l4yF7Np9m3C49R5P5poliRYp8R5//sJlRdi6AtLXo+Fcu40v6kvE7oafnUREvTcxr0paOaHfJwyGyOwMUqTjwitXUmVyC5U6r7SapWRpFO7bl79mXEOYjZqNGoZhTM96N1N/auLxN2/wub8CnrEjMzKMA8yBX2z64XDqu/GjgiRpih8McO02ofaEstDQtzzmWIloaF7toSyuOj9qdNwtfF7DBFtacCQEwkpvlLslaRSIzo0LkkxDCFs+J8OYFrNRs1HDMAzDMK5NDvxi07VaIzG6HqEoCD5okQ/0jn+oa1y7rS0WYpsF3+/rWCEQyor0yGFCr7eqEMmuIqL5ZDccZeWxhynmEyT2Kkz7gWylIjvXp37McVxZ43oF7t5Shb04bdXAlQn9rbBbxzGuPcxGzUYNwzAMw7g2OdCLzSZ/a9TGIE1XvTfOCVsnHM05/byTcfsFYhuAJNHm8XvQAF3SFLcwj3Q6hG6blSceYfGWlGJuvE86gLSX0D6fU3aEpAzki57ZpR6ytKTn1YjKtS0ndooQRuL7Wmoab+wsZqNmo4ZhGIZhrCYEePCVb+CRR+C2d/4Ss7N7PaONOeCLzdWeEknTUc+8MBwiiSP4dQqVNE+rUguVJMnq8Lwsi+NXuyrKJE1xc3OEUzdQHOlSHEo5//iU/olAPVeDBHAgQ0fSc/SWHSENuKEjX3K0Hj1K+mgL1xsQ+v1YDXT3vD5N+OMl18z79RcTxnWP2ajZqGEYhmEYSgjw8z8Pb3kL/MZn/w6AV3w1vP3t8Ix9mnF8oBeba1mb47RemwBJU80Ha9oGhHr8XquFa7Wg1SL0BrsqYt3MDO74UXpPuoELT8gZLoBvBYojNSH3pLMlTzn1IEdbKzzQm+fCoMPKMGf5oVlk6CgXhIeSGbLlLskA8hXP3KfP4b74ZfzKyq6dx3pY7pnRYDZqNmoYhmEYBxUR+OAH4cYb4UkCeQYrF2Gjbmb7gQO52Ax1fXW9+Rjng62Ha7X0Wwf8hYu71o8uOXoEjhyiODHPuafkDI8E6jbUbc/Tn3Efp7sXOJT2mE2G3N69l0HIOFvN85n+SRYe1+eTSzfxqYdvZDmdJ7/gcCUkw4SZL7VJ5uc27Du43Vzu2hoHC7NRs1FDSfNuaM0c2XxHmWKwKVNuxU+547TjLW7+25SmcvQm+Ln2dAedlinOYdrrEdw0X8IVjCebjxey6Y7pp1R70+4Xptpv2t/R5udQnTuHX+lNd7KGcZ2yvAyzs/Cud0GeA9+or9/z8fgc+B//A573PF2U7hcO5GJTe9YFcMm6rQo2ZaMiGc1/NFW1YTGT7UaynHD6BMWxLv1jGcUhqGYC9XzN7LEVvvbw5zmdP0rblfjgmHcDbnYXeXJ+lpuzR7kxXeJkdoFUPHdKYNDPGVxs0X4gpX9jh44/StJuIY+ep15c3PkTsgIkBpiNmo1eq3wr8Mtof7/fRPv0TdICfgf4KuBR4LuBL1xuwNbMEZ7+T96w+ZG3cbGZL01nc66absDsvXdsPlZ3Zqqx+l//1Kn2mxaZIvo7XZ7uplQ1m02137Tj+XzzCtT9G6Y7Zv/YdIv53onpvtPy8OYXLqTTjeX6m8/ty//nL1Gs7GPXjWHsMG9/O/ybfwMf+hA84Qmr32sWmh/6ELzgBfCTPwk/+7O7P8eNOJiLzYhrt/D9/vaKpxC0bcFu4BLc7AwXnzhP73hCOQdVV3O/Dp9Y5KW3/ANPaj9AJhWJeDJqPluc4Fnt+7klcZxOVigJ9FpnqA87njz7IMfSJf7owWfxuQuP4cJjU6rOHJ35FnmWwtKSCU1jVzEbNRu9hkiAXwVeBNwPfAxtID/ZFP77gfPA44FXAm9CF5yGYRiGsS4PPQT/6l/BYx8Lt9228X7Pfz78wA/Af/gPcPKkfmY/cKAXm9sZdua6Xa1wWVa7Es4mrRZubpZw43GWTycU8+DzwKGnPsqzjp+hkxR8aukkf/SFr6Cs9e5o4jxOAu28pJXU9Eq9I1rVjto7uq2CVz3mDl576q+479s/y1ve+c343FG1Wxw5l+9e1UvDiJiNmo1eQzwHuAe4Nz5/G/BSVi82Xwr8dHz8e8CvoD5Ju0NgGIZhXEII8C/+hYbQvvWtkF5m5SYCv/Zrujh9/es1r/Of/bPdm+tGHOjFJmiIG8FfvlCICJLn6g1x2kJhVQieCNJqEfqDq84zu1JctwvHj3DhGYcoZ6Cc99RHSl52y9/yZw88jbNLM5RFStnLVMpIQFwAgUUJI3kjLjpCAiwvtfl//HN4xtEHeP6hzzD/rEc5/+mjpD2hONalfeI4/vwFKwZi7Cpmo2aj1wingC9NPL8f+JrL7FMBF4GjwCM7PjvDMAzjmuNP/gTe+U74hV+Apzxl8/3TFN72NnjhC+FVr4LPfAZuvXXn53nZOe3t4fceSRwhCGxSlVKShOASJEv1cV2Pcskk9uwLRbF71S3zjHquzfLNjroTqBcqbr7pHD2f88D5eYrzbfAgXghO2yk0t85X3UKP4haAWjhbLvAPwMn2RZ538h7+4MsLFPMZyzfl5I8eQQZD2AUhK2mqLS2uJl/PuK4wGzUbPYC8Lm6Uw72tNGwYhmHsHX/5l3D4MLxhitT9hm4X/viP9bN7vdAEmC5j3AA0f6xpDO/aLfWWpOnYYzJtBb9tQNKUeiajd9JTtwPHT17k+275//idT3wt5UMdkhWHGzioBakFqeI2dLi+w/WaLUH6Dhk6fb+XcPbMId7+6a/kK2fvI5srGB7znH8arNwyi8xOV8Rhq7i5OdxMd1eOZVw/mI2aje4hZ4CbJ56fjq9ttE8KLKCFgtbyZuB24PastTvfp2EYhrH/eNOb4J57Lh8+ux7HjsF3fqc+Pndu++d1JRxoz6brRqEUS/m7bhc/GF56pz62FXDtNqH2q8LzJE2RTpvQ3+WwtTyj6iQQoO56QhA+1TuFLKW4oWMUhRcCUqvLJCSBdMXhKsBDyLTieEgCwYGroM4B56hXEj6xfAutdsnyfA6LCcWsI7Smq3y3VeTQPNIf4JeWduV4xv7EbNRs9BriY8ATgNvQReUrgVet2eddwGuAvwZeBnwAy9c0DMMwLsORKbpfbcSf/Rm8/OXam/Orv3r75nQlmGdzPUQ0Tww0/yvLtX1BVW3Yly8M1xHAO0Ry7CjViQUGhxNcJWSHBwyrhD/7wlORWnAVuFJLuruh4ApwBSR9IRmCVCpa02XIliFbErIlwQ2FtKdbMhQeGCxwbHaF1oKK9KQIhJm29gzcaaqaUE9Rk944mJiNmo3uPyrg9cB7gE8Dbwc+BfwM8B1xn99CczTvAX4E+PHdn6ZhGIZxLfDbvw0vexn0+1c/xnOfC4cOwWtfuysZNutycD2bbp3+VX4snCRxhFJzvSRLwXv8YE1hkaZjagi7lwcGyPwcw8MthgtaOeSmI4uc63XonZnFVYJUIPFeuStkXGikAqn1Pakh6aN5YgLBQd0GKn3sUzg7mOVwq8fKTM65MENSBHwnI12Yh0d32Cdflpvm6BnXOWajZqPXHu+O2yQ/NfF4ALz8SgZUz/bm+03TLzJf3t6bLe2/vW+q/Xyrtek+0p0uJLtuT3ePPL8w3W+z6k5xcZPt7Y4+bT9OV2z+pSbDKXtZllPuV013riHffG5STPddTduP0zAOGn/4h3DXXdDpXP0Yhw7Bb/4mvPjF8MY3wn/6T9s3v2k5kJ5NyVLN51qDHwzU8xHC6mqO3q9b3dG1WuDcrofnhcRRziUMj2grhRec+Cy3Hj6PVEIa734EiaK11scIuFpFqitVxIoPuFK3pAhkyypYQvxV3Hf2sLZhSCuSoSAefJYQ2vnOn+NwFwu5GPsOs1GzUcMwDMM4qJQlfOhD8KIXbX2sb/1WeM1r4Bd/Ee6b7h7htnIgF5tXQiiLDdsISLsFSaJN53eTLKVqC3U7tkmo2iwVLRWtDpKBkK1oqJ2rIBmAGwKBUYiehICrx3fDgxPEB8TH0L5KqB7p8ODKPP0yIwj0jiXUnWRXmsaH4XDXWlQY1zZmo2ajhmEYhnE98dGPwtLS9iw2AX72ZyHPdQG722xlsXkz8EG0YfWngB+Orx8B3gf8Y/x7eCsT3G5CVRFK3bY8Vu21cMkuCLtJfCejboHPNfxkuW4xqFKtaFmLCtS4AbGHX3y4dqpBhavUUcRWE+K25ekVGct99TBVXcGn2xtOtCHewy5WDr1OMRs1G905zEYNwzAMY0d43/vAOXjBC7ZnvJtvhi9+UT2cu81WFpsV8G+BpwJfC/zr+PjHgfejVfnezz4rgKBCttAiIt5vTTCV5bYI4itB0pS6k6nXpBUIuafwKUWVaJ6XR2sbTpxScDHnR8bhekFEH6OC11X6GRfzxXwWaB8aMCgyhrHpfEjUuzLKgzP2O2ajZqOGYRiGYVxjnDwJr3619tjcLpqx7rpr+8achq0sNh8APhEfL6HV904BLwXeGl9/K/CdWzjGjiBpiut08IMBfjBY1SZhugFEWzK4nYtCllYLWVNUQdKU5Pgx6m6qwtQFukd7LGR9nIy9JD6DuqXbKC+sGovYjQ+qf6o2FMcrXvK4T1IUKXI+Jzg48pmCbLnC71JrBWPLmI2ajRqGYRiGcY3xgz8Ib33r5vtdKX/wB/C0p+1uOO12KbFbgWcDHwVOoCIX4MH4/NpCBNduX36XbkdD/TZos7BVQlFckg8laUqYmyHpVSSDgJRCWaRkUtNKK3yKejeil2RUwXBSwIaJ11j9ft0SFbFHPLfe9jDPmvmivl3qzj4T9ZrsAn443LFre0AxG91mzEbNRg3DMAxjuzl3DnaqJMKLXwynT8OP/djuZRhtx2JzFvh94A3A4pr31gSLreJ1wB3AHSXDbZjG9hJqj6TppeFoIkiagTgIfue+qRDWHztNcJXHldoyobyonpWZrKDuXFqKXMPqovckQNXRpvCTYtenUGeCT+Pz3HO8s8yp9DzBawETid+khIDsxq9zo/M3rgaz0R2ZgNmo2ahhGIZhbC8/9VPwmMes6va2bXQ68NM/DX/zN5oXuhtsdbGZoSL2vwN/EF97CDgZH58EHt7gs28Gbgduz9i8B9euEgKhLJA8R5LVPbgkSZBcQ9TCbhfHcE6F9LDWCpYFtB7W+R1trxBm69XLhgAh1a3p1Vcc8VRdfa3Ohbol+Fy0kEmTN5YEUvHMuQG+dNpSoQRXBaT0O/PrN3YKs9HdxGzUMAzDMIwt8Bd/AV/1VTuXCfQ93wPz8/C2t+3M+GtJt/BZAX4LzQP7xYnX3wW8Bvi5+PedWzjGjiB5jnQ70Outet11u/jBUPv4XY4QCL2eek12ET8Ykjx4Fnd4gXQ4hysdBDjTP8Sx1jJPvOVBvnTvY1aL2ViMpJoJ1I8ZcGhhhQv/eIR8UX/Bo2IkUcT2T3iOnbrIcw59nv/ywLcgKylSQd4Tkn5NulzglvrsxplLmiJ5jl/zPRlTYzZqNrqjmI3uPMK4+vBWKeaSzXcC0sGUBzw0N9VucuLopvtUC5cPi28oO9OFiSf96VTaNFEAdTbdWNtdCVqmqG1WzuxNMTC3svlvKSRT3uyzemaGMWJxEe6+G773e3fuGO02vPSl8N736r3pHSxvAWxtsfl1wPcC/wD8XXztf0MF7NuB7wfuA16xlQnuNJLlEHOc/GCoXpIsHT2fFLWS5Ui7hSSOenF590PIgscvLuOOxnJSsd/eX3/2sdx80zmefuQBvvSsQwyWW4ShQ0pHyDzknqRV02mXJC4gNw5YarVoPZQgNdSdQDUbyG5a4ak3PELuKv70wWdwz+dPkJ93pD1onwu4YYWsDAi9Xe5ZaFwtZqNmo4ZhGIZhXCN88pP695nP3NnjvOlN6t3c6YUmbG2x+ZdsfD/qhVsYd+fxHmoPLkESB84RahWsa59PIolDmvywzTwrO0EIWpAjTUYtEAiQfznnfneY+daAxx9/hP7hjOUiZ3nQQiSMviQfhDypOXFkkd5MzoVkXs+rXdOeHfINj/kcAPcsHufzZ46RP5CR9oRkCO0LNa6okUFBGO5O/l7wQXskGleL2ehuYzZqGIZhGMZVcued+vcrvmJnj3Py5Ob7bBdbWWxes4SqguEQ19Y8tFDXhOFQWyWseR6KQvcHFbhVtbf5UCEQUoerA2lPC4m0HxGSXptPn7uFZ37V5/iWE/9I1xU8XM7zj8s3cPe54yz32oQAhw73OdFeopOUXDje4Ui+QhUSUql5yaG/4yfv/k7O3neYzpmUZKhFR5JBoPVoiQxLvR6DXSoW42vC0ITsQcRs1GzUMAzDMA4aX//18J//M9x8884f60//VD2c73sftHawNMeBXGxOyygPSQTX6WgrhV4fPxjs6bykrJm9r0frfM4jT28hHrIVcJXjH/7q8fztwm0gILVAgHTZ4YaCC3D3F2b4TBa0yMhEi4Ug8CfpV5I/ktApNPRPvOaJuQqyh5eQxWX80vKen79hNJiNmo0ahmEYxvXC05+u227gHHz4w7rYfMlLdu44B3KxGeoaCq1kGcoKgte8MNC+fBuFhRXlxu/tInJ+kWS5j/RncU9pqSCNjeGzJcGViQZPBvV6uEJGzeSzUitbNon7rpiIsnTghipgXaXjhfgLkd6A0O9f0ldwZ09UW1iEchePaewLzEbNRg3DMAzjIBECvOc98NVfDUc3r6u2ZV74Qjh8GH73d3d2sbkLaaH7kBA01C5JRtUqJRYc0b58Xnv3jbZYFbIo9kV+kl9cwp87jzu/SH4xID5oxUo0RyztC0lfSAa6NSJWYg6ZK8GVEjdIhtqiIRnoPuJVxDZi2NVhFJq3m60kJEnG34txsDAbNRs1DMMwjAPEfffBi18Mv//7u3O8PIfv+i545zthJwOiDuZiE/SOfLuNdDpIno9fznNcp7N6i3ljfjgc54btIb7XIwyH+AsXOfbhM7gyejcE6pZuvhWo2wGfQzUbtK1Cru+FNLZRcOBzqNvxc81lEH296qrIzXoBqopQ+11vJWEcYMxGzUavLW4GPgjcBXwK+OF19vlG4CJaHfrvgJ/atdkZhmEY+5rdKg40ySteAUtL6lHdKQ7uLemmD981iqQp0h5n84aEKFTDqvqjdQzFE8DnAVcJPgv4iRZZAqMWDRIEqTREjwDH/75Pfu9ZjQJst6Dv94WYNw4AZqPjscBsdP9TAf8W+AQwB3wceB+6+Jzkw8AOBiwZhmEY1yLNYnO3cjYBvumb4OUvh0OHdu4YB9ezCdoeYJOQu1DXhLpG8myXZjU90m6z8tQT1C0ZNX5fd7+JIiM+DQQX93W6hfh4VePwoF6VciYldNsanlcU+yIfzjg4mI1iNnrt8AC60ARYAj4NnNq76RjGgeVbgbuBe4AfX+f9H0FvAt0JvB+4ZeK91wD/GLfX7Ow0DWM1d94Jj3sczM7u3jGzDN7+dnj+83fuGAfXs4m2V5D0MpfAey1OAjC3Dy9VnnH+SasFtoRxAcvm+eQLIWEkeINMiFxAKlm9bwrDQwmtw13k3lh4JexePphhmI2ajV6j3Ao8G/joOu89F/h74MvAj6IhtxsTQOrNv9PgNmqpOyYppvttDOeSzXcCFl9841T7FfOb71O3p5ub1JufJ0C2PN299Nb5zY/bujhdaPo03wFA+/x0kQch3T5/gEx5DyqZsmtS0t/8XKe9Hslw8/2mnT+QAL8KvAi4H/gY8C5WRxj8LXA70AP+JfDzwHcDR4D/Pb4X0OiEdwHnpz66YWyBO+/c3RDahhDgwQe1KNFE1tK2caA9m5vhBwNtDB88odff6+mMcO22PigrijnwyYRgbYqHxA0/fn0tIxE7+X786zN93LpQk5zv4WY6JEePIDvZiMcwrhCzUbPRfcgs8PvAG4DFNe99AvWiPBP4v4E/2mCM1wF3AHeUw+UdmqZhXJc8B/Vo3gsUwNuAl67Z54PoQhPgI8Dp+PifoKHv59AF5vtQL6lh7ArveAf89E/v/nHf/W646Sb4xCc23/dqOPCLTT8c4vt9fH9CqHq/+nkI+nwfegxcucbzMSFipRbES6xeKdpCYa14jS0UkoEgXiteuipWxSyjGE6cFmnpti/vZdpGpNXatWMZ+xuzUbPRa4gMXWj+d+AP1nl/EWhWj++O+x9bZ783o96V27PWLsZTGca1zyngSxPP7+fy4ezfD/zZVX7WMLaVZzxjbzybT36y/v3U5eNsrpoDv9gkhNEWykq3qhqLVhFwyb4TsTLTJczP4OpYsTLRv4DG3gVZJXAhCt7JaJWwOoRv5GmJz10dh3JOO786h7Rbo36HO3ZuaYqITnQUImkcXMxGzUavDQT4LTRX8xc32OdGxt/wc9D/gx/d+akZhrEOr0Zv6vzCVXx2FH1w9uzZbZ2UcTD56EfhLW+B3WyV3XDbbdDp2GJzVwhlodtEJUdJM9x+KzziHBxeoDgxi1TgUw2p89lYuY4LjoTYQiH+FUb9/gRGzeZDMk4kmxS3IRVCNs7fkXYbNzujAn8nENE2F84Ram/N4o1VmI1OfNZsdL/xdcD3At/EuLXJtwE/GDeAlwGfRHM2/y/glawbQG0YxlVyBm1D1HA6vraWbwb+PfAdQJOpOu1nYSL64Pjx41uZr2EA8La3wQ/9kLYX322cg6c8ZecWmxYDdS0iwuDWIzz6jJb25FvnloFWvoziNf5wvQRCGkaN4PETnpUg+AlnSEi0UIBPBVIH3kN/QAgB0pTk2DFC7CW4pTYLIrhO55KX92tIpGFMhdnoQeQv2bDe8IhfiZthGDvDx4AnALehC8VXAq9as8+zgd9A8zEfnnj9PcD/ARyOz78F+ImdnKxhNNx5p7Y82YvFJsDTngYf+MDOjG2LzWsAabU0VM1rObZQVaS9imwpp+zKSN64WvBJQAijNgtNc3iI4jaWtwwODdETfV98wJUy8pg0Ard33OGqDrNnc/yDD6uQBVyrpT39nNuSz18mvC+hrscheSZijWsIs1HDMIx9QQW8Hl04JsBb0IrPP4OGvb4LDZudBd4RP/NF1MN5DvhZdMFK/My53Zq4cXAJAf7+7+G7vmvv5vB93wcvepHOZbsDo2yxuVu4BIKfXqA133QISJKAD4RDCw02AAAgAElEQVTm8z7gSk/S6MfmR+FBJjwoYdXjgKAFRlb1+wtNDtjqlgpNbljVEYYLju58l/BAIETR6gGXJCpEm9swzd8p+vw1vQBDCKP9J8W6Yew6ZqOrMBs1DOMa5d1xm+SnJh5/82U++5a4Gcau8eCD8Oije1McqOEbv3HnxrbF5i7h8oxQVVOHs0lsdBOGmkogWYokDj8YIFmKT+TS0DyJffgAEghZUMUJIEJIgla7REWrq7V3latEe1jJKD1M3y81z6yYFfqn5+iemcEvBs2ZGw4JIuo1aQ7RyqGqpmoq35yXYewXzEZXYzZqGIZhGDvPXbEL7F4uNr3X1ifz8/DEJ27v2LbY3CX8YHDZ96XVit4Rf8m+vtfT9/OcZHaG3nMey/JNKYOjGp5X52FU6skNBZ+HUWheyGI4nqho9XkYqdUqj2I1Ctq0J4SkEbdQx1aBdVtYOZHSPXYE5xJCr8e6rSZ6PQzjWsVs1DAMwzCM3eaFL4SHH9aF3l7y/OfDD/wA/PIvb++4B36x2fSJ21IBjWlxiYrVSKhr8DWS5ePXndPnTYhelmsrg1aueWHdNkunU8o59ZqEFHDj6pUhDRPtFeI5rnFihIkWDJoLpmP4iYKevilQEmLLhkToPf4wrUe7JBf7yIUlFd1FaWF1xo5iNmo2epCRKtA6v/lv3+ebF5cfHpqu8kT/hukSdpaeVE6134nT5zfd5zHzm+8DUNTTyZYvLS5Mtd+5zx/edJ9sabrC/bNfnGo3/JT9aZMpLq/4zfcBvTk1Ddny5vsAuHLz38h6hdHWHWuKua39N9Iwrjf2uqixc/DUp+5MRdoDv9gcJVCJrJ+rFTwhyMbvbzjupf8Qa5hdU3bS69geJImVJCf2a55L4pA8Q7KM0GlRnpinWBDqHBDwiYbhSRN5t56WmOjnF1ysdOlCVKsTIjgJmi/mZFwNM0Thm8LyTSlVx5HPZrTyFJckcP4CfmVl+uuy3qVqxHriIEkIgyE+emYMw2zUbNQwDMMwrlfe+Ea45RZ47Wv3dh5Pexq85z3bP+52LDYTtMLXGeAlaLnptwFHgY+jfcf2bSO2UBbgElyno+Jp7ftVBXWt719Bqf/1WgVM4ofD0VhrQ/Jct7vKG+Gcg7KC+VnOfmVX7xa6cc++pNDQOp82bpJm8kQhqmF5UjUN/KY8h3hXtfHOrJwUivmE9LgjP5HRvjBL9+4c7vn8VOOth7RaJCdPUN50mOJQTt1yzHxpBXfXvet+H8ZVYTa6Dmaj02E2ahiGYRg7x3/9r/BP/+neLzaf/nR461vh3Dk4cmT7xt2OxeYPA58GmkjjNwH/BRWzvw58P/Br23CcncPXlxdNMffJtVqXFhBxyaqG8k2T881EmLRaozC89fK/Vo1/wzH6jz/O8qmccgYVql5zv5JCG8ZLDVLKyHMyahLvRUP40M8lBXgvGtrnRQuQVCC14Mo1oSpR90rN6Dh1rn39qq5WwBzOn6D1hGMkQ08yrJGyRkqPK+I1qmqkKAntnJCn+FZKNZtTdxx17vCphv+VXaGcEeoWrJyYo/34ryBb8WRLFdnffMZ6+m0Ns1GzUbNRwzAMw9hnXLig+ZpPetJez0Q9m6ChtN/wDds37lYXm6eBbwf+I/AjqMT6JsYNdN8K/DR7JGRlnbyIq877CkFFbKziKGlKqCrEabXHMNnHLgpUSRKdQ5bp31SrVZJlhLkuIVaJdA5CkowKiEhZx74F+ubgaIfejRnFvIbaBcZVKiVM5DtE4RnqRsyKti0IQnAB31LPiSPggyCoiHWVIKWOoy0W4ngxz0wCKpwnTjE48DkMF4SqnZIOAq7OkDrg6oAroqcmgFSekDrqllDnQtVxOs9Ec9DqlujfXJ+LF/pOKGaEfMYx/5TbSJaHyMUlqoceNkF7ZZiNmo2ajRqGYRjGPuSzn9W/+2Gx+dznwl/8BTzrWds77lYXm78E/K/AXHx+FLiANtUFuB84tcFnXxc3Sra5xL4IiFtfyNb1VQuhSREsea7HyFKk0x4f1zlcEhVplmurgTxTr0Hq8FmCb2cU8xkh0dC6uuWoc7RNAZAOPJP5ZI1HwWfRw0EUnbWGzkmclsTcLd+0C0wgBG2ZEBLBZ2HUPsEF9ZQ0VS2lZuQ1GeeOMRLHCCTD8es+Xtq6Lfg8FkHRWQCrRW8zt0aoVp3ooYmFTcpZNOQw1R1DIlRd8LmeM4+fI1/q0j7bIRkMqBeXreDJ9JiNmo2ajRqGYRjGPuTuu/XvdrcbuRoOHdLKuNvNVhabLwEeRnO+rqYV6JvjRkZr226Du25XH6zTnmA78YMh6amT+CNzFEc6VO2Euu1UPAqXFh8JQQXihEj0qeCzS3vxlV2nAi5oNbqqHR8XOnZShFEFOp9Ez0T0ogTXeCOEqqPelcZDgY8hfFHcth8dh/e5+Nl0RScY0rGAbQR2vhTwmX4mEWKhEt3PFWNhGtb5VQVRwexTbddQHAqkK0IygGwltnAI6ulxBVTdOI4IKy0V8oPDM6S3PJmFj9yPf+TRHf1+rxPMRs1GzUYNwzAMY59y4YK2PHnsY/d6JsqHPwz33QevfvX2jbmVxebXAd8BfBvQRvPBfhk4FMet0BC+M1uc4xUTimKqpuVXjAjpjSfwJ47QPznDII1FP2Lz9lGFSFS4+VRfVwErSAjj8DeJIXQCroziMREVpozzsoKDfDmMqlG6OlB2YghggKRmNKYEFZR1C1wVyJd0bjRejwH0TwTN/YpejSYsT6pAUk2E6RWTbRZCHD/gynFz+VHJ9aDzEq+VaJqwvmbOCJQzQu+EvtB9IFB39FxBvTUhiYcRfZ4U6g3KevGaBb2eZSIsP/sUnQcOkz54nurMly1kb2PMRs1GR2+bjRqGYRjG/uKHfghe//pL73/vFf/tv8Ef//H+WWz+RNxAvSY/CnwP8A7gZWjxkdcA79zKBK8ESVNCWW0pDO9yYyenb6I+vsDwaJvBkWQkPEOq3gJXNyIsjDwOqwgT4W+guVMxnysIUAck5nEJKhyb/CwXRbCrA3U2FrKrilZK85nxgd3EDuJ1c9U6fa1k9V8JAVfJhEjWuQhBW0HEEECpm3Hj+xPzGXtdoJh3euxSr5OvA6QShWtUsG0dMynCyBM0GerXjF3MOuR4h1bqSEWozjxgIXvrYzZqNmo2ahiGYRj7mP2y0AQtEvSWt8DZs9vX+3Mn+mz+GCpi/wPwt8Bv7cAxLsUlSJ7vSCl+SVPcwjy9J91AOZdQ5xpaV+eaD1XOqIch7UO6oh6LIKLiDqIAZbWQlehpWKO/EtTrQVBx6Cqo2hKLesR9ig1EuqiXxVUxBDBZ49motDqmq1cL2SCAE0IS8CHWQPGCq8JI/I72ix4RVwXqVhyrDHqua7VkNB6fCsVCoP2IkK6EUXXLxqPkynjNnFa6dKXmnq3yMq0Zt1hIqLod8tkTtM6dt55/V4bZqNnoaD5gNmoYhmEYu4338C3fAv/8n8N3f/dez0ZpKtLedRc8//nbM+Z2LTY/FDeAe4HnbNO4e45kOckNx7j4tTcTEmFwSChnhdkve5Ih1AVIJSRFGAmypIQgYexBCCpIJajA9ZlEz8BYqI0EJ42og6Zpe7om7WlV+BtRvNYaZqdhglEsOlEPR1BxvHKTqDDuAB3onFWxiyMeTxBRJSsxVC8pAq7SefpMopckqKDtj8VmM3+JYrLJIWty3Vrn1AMTUshWAvlSc+J6LnUuZMuBbHmjLyKOKYBXr1QQYXgko33raZIvP0x9/vyVfr0HCbNRs9E4N7PRawlBf2+b4fPNx6rz6W6f9076zXcCjt10car9bj/+pU33ee78PVON1ZZyqv3uPTrdLfkPzz9h033OLM5vug/AuRPT7ZeeyzbfCWif3fz7SvtTDTVKBdiMZDDdfukU9wxlup/R+jes1nBJpIdhXAfcfz+8//3w8pfv9UzGNIWKPve5/bfYvG5xRw7hjy3gag1Na1/QHKWyq1UYXQHdRzxJ4TX/axTiNh6jeSwVOK/9Etb1CISxENSkKqJnYRzX54oQi5A0B1KvCiKr8tGkhmQYqHP1RNQtbcmQrkC2rEVAhgtRrA41V2zkxREVLq6OSpoY2lcG/Q8raBVKCVqVsimIAmj7hdITkjinRI/dOetH12IylC/AqFiJ5qIFfKon4VP1TDXn6UoVwaNrGtSTNDg5S6c3gIuLFqp3ADEbNRs1DMMwjGuNpu3JfqhE23DTTfr3zDZW87h+FpvBb3/BEZcgM12q2RauVE9E2g8kQyjmtMRjOghkKzVSBSRz4955yeTcVg87EqYy8f6EiA1unIfViNNRvpUPEPOyEBWR4rVH33pB3z5XIRkSFbDZShh5L3wuo8qYIQEpVWSGsR4eza8JwZNaJ6ZhgDL27tDMsanCGeI10DfT4Vi4hyQK1XjcOlb7TJrjO0Z5cKPwwPiaq8cKuMmHq2YSQqeFZClhaEJ232I2ajZ6/dvoF4AloEYLcN2+5n1Bi3R9G9ADXgt8YjcnaBiGYewPmrYn+6HHZkOrBZ//PJw8uX1jXkeLzUAYbm8vwGR2Bj/XoeokKlSd5mUlw0C6Uq/K7QJIgh+1VKg6brUaFA1xA7kkjE3WKN06l1HYlM+iV6Ici8iNkDChmZ1+tpgXbYMwhNkzftyoPRFcERgeVq+Kn4vhOAGSKh5rJFAnQnB8ACdQBUIuo5w1AFd4vSZr9HSQJv8tPk/G51m34uO2IMvRI5SAlAFXQDrxlU7mpulAE+I/S3CdNvU2/waMbcRs1Gz0YNjoC4BHNnjvxcAT4vY1wK/Fv4ZhGMYB4+67YXZ2exd228Gtt27veNfPYnO7EYHTN1LPtkYvuWKsotYLwQtexW4gkPYbURu3UW7YxP5JiEVMHEnwo8bvdS4aLldB2vercy0mPCNBoF4jmJuxvWiD9mQI2XLQwih9P/Lq+ERD4eq+julTDT30iQptLVASRhUtq46L1yDEfDC55HpodcqAKz1VJ6pVr6GCKyeSkeCtW9o2AWJ4YBEY5LFFRZxHOhgXNEmGnjp3sa1DGC0WxhciUM/kpCeOgzWTPziYjZqNXnu8FPgd9Nf2EbQN0Unggb2clGEYhrH7HD4ML3rRukFPe8of/qGG+P7Yj23PeLbY3Ahx1PNtfO7US9C8PJmudUno3YSYXfvDEahzN+pVl/a8hsqJUGcq6IghaK2LNVJr8RIN1wsTXhQVlBpaFw8SGq08nlBSqKelEawSNDds3DZhnAvWFBcZheuFRnmLimiRkWfH54LUMprfJdekOX7pCbXgE8GLo33RU7WEkAjpYLJRvU4+WxpX1UyGgWTgY5heAK/iWAIwsViYJCSO0Er1vWmLEhjXNmajmI3uOwLw3vj3N4A3r3n/FDBZLef++Nraxebr4kZRrOzIRA3DMIy95Y1v3OsZrM973wvveIctNncWp+FeVeo0jC6KpxFei24wIeaAUdEMqQMhHRcDaXKmtB2DirW0B9rqQHvlaWEPj6s1NG1U2dHFkLg1ArrJOXNlGIW8hVjsQ3z0XlQqlov5hDobF/JY1fsvaOGRpFy/N2DjvRnReIFcFNnxWPhxjltwglTqRnE4fBTuQZwKWD++VqDXJ+uHkfjXaxJWhSTKRDVGL5cuKEIihGQyCc+4rjEbNRvdn3w9cAa4AXgf8Bngf17FOG+OG3k+c/nYbMMwDMPYRk6fhkcfhcEA2u2tj2eLzXVwnTZy8gZc5Qmpi4Jt4v97J/jckQw9TIitqpsgIZD2PHXbqZcgFtWoWhoGp4VE9K+rAlJ4Wo8OVTg6GXlF1BMSIAjBj4Wxz0U9CgGohWypGrkqghOGh1Ky5Rp80DkOPGEhoW5DJYIrGe2fFIGqK6QxJM45oFJRmwxDzH3zl+Sh+VQo51PqXDSEcMWTDD0+dxriJ0Iy1Hy5EMZ5alnP6zlkQhHFuUdiT0A/Es/i0eu9gcQKqUDT3gHdd1TQxTgQmI2aje5Tmvp9DwN/iLYY+p9r3r954vnpic8YhmEYB4RPfhJe8hL47d+GF7xgr2ezmlOn9O+ZM/C4x219PFtsrkUE6bQpTx5S8Siy2jOSjcPsfCaQqSBLhp6yKwSnQnSwoH8laDN5n2leVtbzuCqQrVRjr0vQIhphbdUO4nHabtS/TjzkFwtkWCNljbuwNA72ThzZ0TmkDvg8oZpd03hNNBcrOBn1E0yGQfv01RpWR4BsuSY7N8ANCmRQQDXOrwqtDFo56UqbwQ0tFaWH0nHemm/iBWNoX+VJV9TLVLeTUU+/fFn7FPpUKLta+GTSW+NbY0Hf5IMRX3JDP/5O4qn71CHttNnFuJ4xGzUb3Z/MoFdgKT7+FuBn1uzzLuD1wNvQwkAXsXxNwzCMA8fdd8N998HCwl7P5FJOn9a/ttjcIZK5OWR2BkIgyJpqlZFRM/Q1lSpdBT4L1LkbV3V0sQhIEUPPyljQw0n0DqxJXpooVNI0l/eZ4IaBdFCTLpe488tIVUNVE4YFkjhC7SF4khDAOaTTIiSOcj4bhfBJDb4Vw/1iPlgjLMUH3DCQLZWkywVusQf9iU71IRDKEgYJkiZkK31ctUCxkFN3khiW50fn7PMEqfyo114zhpa9ZNy+wQdcLWPPlDAqkNK0VmiKuPhUxbzbqJjlPkuwNnYGs1Gz0X3KCdSbCfp/6/8L/Dnwg/G1XwfejbY9uQdtffK/bNvRp7i2fsr/8aWa7ouaDCa4HDe1Lmy6z5Pz6dbcJ5rKVZtwa7ZRQeDVHE+XNt3nju5tU431ydZ0JSXPdA9Ntd/y2ptR65Cfmy40Pb843XeaX5zuS816m++3qnDaZaja1/EtKMPYgKbtyX7qsdnQeDYfemh7xrPFZkMjSudm8bPdcfjXWkIsCtLsHxu/a+sD9RT4VEVrcNq+oG4J+ZLX9yM+ERIftBsbMZcr5oA1wji4GI4GpP2a7Hwf9/B5QlEQmvYGIlosxNdQVoRqEVotJAQS5ygOxf+smpYEUTzKqucqctNBTXauh/QGMBgSBgPI8lHxlVCUQKmzu7hIUla0ykOUh9tUnQRXez0PJ/hUSGpZJWIleodGniIfhWnZCGqJ15aYdxYb2DuJ+W+CT1b/aFcVgDkQUXoHGLNRs9H9zb3AM9d5/dcnHgfgX+/OdAzDMIz9yt13w003aeuT/cYTn6j5mq3W5vtOgy02QYuNtFv4wZAwP0O90KZur3+30FWBUIfR+03oXN1OEK896HwqFLOC1BBSKOdg9svqMSF6EZKhH4vlWM2SOFZA880ab0f3SyskjywSLi5SL6/gul39TA0kCdS1frbVAqf5WAwLXFmRHu/SuiCkbaFqCz6KxmbLVgLpUPO58geXkOU+VNV4vOGQUMbqIyEgeQaALwpCr497sKZ1oUV6eA7fzQi5jCtwOiA6hSRA0q+RyhEk0VNOAiFo1cxyRkgHmksnFZQzWrElKQKu1MVAnatAbsFYtDY3a6NINq5TzEbNRg3DMAzjOuGzn4UnPWmvZ7E+SaLbdmGLTQBfE4qC5PG34mdal7ZEWIMESJr+dY33AijayaiCoyuhmNPKk90Hwqh1QdPnbjyYxHYEotUjJUbpCSQDT352BXf2gobHNdPtD5AsRdIUqJFOR0Poqgq8I6yJLHSlR7zgKkHi+5rnFkjKWMnSB6Q/XB1O1x8QQkCSBPJMjzEYxuMECF7nVXuSssI/5ngU8566lUSRv1pcSgijJvMhREEtkA4YC33RCpuNxykZsOqEkqHXypYTFUAbwrRxXca1hdmo2ahhGIZhXCc873nq2dyv/NzP6YLz3/27rY9li80J/EwbnyeEdE3+QABXe3wyoRAnBVMUs6P8JaeCzVVABfmKhpppq4PYcD2M2wgQ2yGEidYN2VJJsqK5X2GlNxLLkufgvYrYLFWPSZpqXllVIWlC8F4FaDN8QPsDls084kkR07NSLariF2aQotKCI/2B/sqqyZ4KaK6ZCCHUMX8rADWhgPRin3q2Rd2NOWgCl3SqHYXnRcUagu4yZBw2GNQ75VOhagk5sX2E09YQ4oOK/gl1ax6Tg4HZqNmoYRiGYVzrvOlNez2Dy/OBD8DFi7bY3D5EIEkImVMhm0yIryi6pPBIW0Z5YGsJEsVWLJLRhL+JVw+LxKbvLrYbaD7TCD2fupGwlTqQnV1GFpcJgyF+OETyHElTDZHzQb0YTXhe4qILIqioLSYKKATG1SdjvlWTD6bHFXw87vDEDEmvIl1McEUJeYY03dfFQV1poROySwUuwKMXSMICvpPiM/VqiGsEs3ppkJH2VU9NzP1aVUgggBRAG6pO9FINPAgUs5fx65vH5PrFbBQwGzUMwzCMax3vY1bOJlFae8mpU3DXXdszli02Addq4Y4dpXIbiFQn1J2UZFCp2F3rVYmkKzXpihYMKWcSmqqVUqN5UY2TYQ3S9KuLoWn5J+9Tr8pl5hyGBSKCzHQJF5cgCs7Q68VfsINai4lUCx2qmZS61QheHaPOZSRogwh1y+GzDBIhqwPy6AWYm4MsJWQp/gtfimI6xx0/RhgMRwVQ9Nh9XJqS5illN6XOHSERXOmp2smqc08GtYYzOu33V7WTS6zOp1DNyKhwiSsCrUUN/9v4wviN3zOuWcxGzUYNwzAM43rgb/4GvuEb4M//HF74wr2ezfqcPg0PPKD3rdMtrhat3jQgM138sQV8ayw+Rxsa/pUMtSSlVAEXc8FcpUVEmqbqIY1tEFIZ5T01IjUZeq0E6STmSsWDB23s7kpPtliQP7wCtVcPQFkRhkNcq4UkE19Vq4WkKaGuqc+d1/ysSSbC1WRQjoucTAjp4JpwuLGwbajaCeWxru5XFNDrIxeX4jwSQlXhz19Q0RjDDfWxVzG72MPngm/ptWgKtKzNs5PGo1Nrc3pXeJJBPbpuTcieTLyfLXuGR6IoH41j3pLrHbPR1R83GzUMwzCMa5OHHtJF3KHpuiDtCadOqQd2O9qf2GITwCX4dqql+yfu3Lvaj0XSSAyGVUKRpphGU1Ckaexea9iZq8JojOBk1CZh0kMQnBYekdIjiysqCifv/ieJekFWvea0KEgzryxH5uZWnVYIASmrkdhUcb1qh3W9OCFRsU0cP5QlYViMctL04jhCWamILquJoiUeBkPyxSrmxjXny6p+fnqtm3OZCB2sojhuhGw9LtiSlCp0h3MOn6+TZ2Zcv5iNrv6c2ahhGIZhXJM0C7gTJ/Z2Hpfj5pt1fufObX0sW2yKjAVaWH0HXsqJ1gcThUIafCpaqCTEPK9YWGRUaGToNY/Jg88dde7wMWRtFUE9FTjwFy6OxamTURuDVVQViEO6HdxMR0P1ZrvUJyZukTQejf4AV9bR8xA9EE244ETYoIQwqoA58nBk6WrxGuclaYqbnyMUJaHfxw+HUNdIloI4QlHQ+vwjeu4T104qr20phNg2Qq99nenPsOnvJ3Furgq4Ii4Uiho3rHFFTTGv3qlLvkoTs9cnZqNmo4ZhGIZxndAsNm+4YW/ncTm+/dvhwQfhGc/Y+lhbzdk8BPwm8HT0vvX3AXcDvwvcCnwBeAVwfovH2RlESG99DH6+u+7bdTvVlgS1p+qmJIPY3T0KsFFRD9GcpWRY472jbjnEq8gNrPYWrDp89Cr0bsyYv7dHcm5Z08YmvRtOVJSK0w2QbodQRY/FsSOEBx4mPPwIbnHpkmOE6OVxdUB6NfnZFcqjXYaHMiYKRa4qDhLQpvWhP9DqmVlGmO3CI+cItVbUDFWF5BnSbmkwd38Q5+u1tcPyCmmvpoqXNhn40UIhHdTqlREhEBAnBB80z27iF9m0VQDweeyZuEHOnrEhZqNmo2ajxnVDe8qKGjclxeY7AVn7i5vu03XDqca6sXVxqv3u7J6aar9/nDm+6T4X0rlN9wEgTCf30t609rv5naOknO7uUtZbp5jZGlxld6qM64eHHoLDhyHP93omu8NWPZu/DPw58GTgmcCngR8H3g88If798S0eY0cJ3Ta+s45nAlYJvUs+J6z2KMT/AEdelxBwpScZ1iSDepQ3ljQek6BtAnyuFS6TxQFhubfh8aTdQma0UXwoSvVSpCnVDfPI7Ix6LEArYrbbSJaNnuOceh6GNfVce/3iHbHipFSB/GJJ+8wyzM2oiG1C/UCb0ce/0mnreRelCubRxdFzlErz5Hy2TpuKwutWhpEXKUzmjMl4azw5oP0I00GIrSFWz3+z3osHFLPR0b5mo+OLYzZqGIZhGHvB854HP/RDez2LzXnVq+BXfmXr42xlsbkAPA/4rfi8AC4ALwXeGl97K/CdWzjGjhNSR0jchnfjQyKx3YKjqVM8yhmLIWtBYn5T3CTE8LLKI6XHTWxSTeSTxWbprUWPLPVgqHdPRUTD47KJO5HOQZrEfn21jpEk1J0Umeki7Ta4hDDbJXTbhJkOMtMhdFrgPW5Yk6yUq/Ow4txHPfUCpIOaZLnAXVzWY0r0Dg3Hd4kbMas5akFbO6xD0i81JM9dKjJdrcVYmmuybl6aaJGUkZgFCIG0zyjPTnzQ95pzMCYxGzUbNRs1DOOg8a1oBM89rH8z9XnAJ4AKeNma92rg7+L2rh2co3GAecUr4I1v3OtZbM5HPgJ//ddbH2crYbS3AWeB30Y9Jh8Hfhg4ATwQ93kwPt+3SKmisAkBG7+hf6pOgm8Jw7mEtKeCzccCIkmpuV6IUHfG1SslsKpX39rwPImDhzhG59MPEHp9fa/xSszO6D4XF/Vvr699+xbm4OLSSDy6wlMfncNlKbK4THFifpyzFsMG3fJAm8AXJW6lQ0gWqNtNDlYUhVFMZuf6yKAktDLtIVhrIZRQRrHqJkT88PKhRe78EhlQdWbwuSMZ6vWSEPS6Te5beK0UmqjQlgAhAZ8zfu6EkCdkK+ptIV5n307UQ1NUVoNkNWajZqOXvbZmo4ZhXGckwK8CLwLuBz6GLhonOwZ+EXgt8KPrfL4PPGuH52gccCcdoQUAACAASURBVB55RMNok8t0CdsPnD4N99+/9XG24tlMga8Efg14NrDCpXeQAhsH9r8OuAO4o2S6fIhtxSUkT3zcxuF5keHhhKXTKcunheHhjLo9/mUEEXzmqLqJel1EtCJjf42Ibao4Nr36msqTVcD1K8Ig5lLlmXpAZrpQxTYORw7TVLkUEUInRzptJE3Be5KBhs6FTk44skA1k+p8UsEVNcmD5+GRC4TFJT3O+UWSQaViMmi7h0bEig/0b5pleGoBf3iWcGQBjizAoXn1yjQVN0EF7YSnSUQIIajwjecXegNCIvRuSMfCuQ5Qx/NvWjKA9g9MxuMFgaollHOXkaYCvp2sqk5qrMJs1Gx0dC3MRg3DOAA8B/Vo3otG87wNjeaZ5AvAnVxyS80wdofHPx7e8Ia9nsXmnDoFZ85sfZytLDbvj9tH4/PfQ4XtQ8DJ+NpJ4OENPv9m4Hbg9ozWFqZxdUiSEDr52MMAl+R/DY6k+FRwRSDt6V38EK9YUngN30tl9RgRn7lx+FsI4+qVxLDAzKnQvNgffygEgve6VRUUpTa5yTOIvfPcxRUYFoRa93Pnl3EXe8iwJKQOVwXSlYr0wpD0kSVt6l5V6mXxAXyNDGuSQYjVLUXPI4mVOxNtHF/O5ZRHulRHZ6iPzOIPz2tuWZ5Bq6WbOA0jXKcaZxgMNZQw9uGbPMemmiWMC7O4ak3LByAdBrLFNddWoG7pfMNEuKQraqQ/XUGIA4TZqNmo2ahhGAeJU8CXJp7fH1+bljZ6k/UjXD7FZHQz9uzZs1c6R+MAMxjAxYv7u+1JQ+PZ3Gqr7K2E0T6IGvST0Nj4F6JhCncBrwF+Lv5959amuEM4IWTJmtyoGDrnVIiWMyoM8yUYFbYTYiNzLarR5Fetymdymkcm1VjESoDgAyQTBUcqr2FwcT6Aik7Q3nmJ0/obWaZ5aLUnLK+Mj1MDF5eRxGkeWDvHDWvSxQFusUe4ECvjiYsejyj6BgXpcobP8pEwD8iozQIO6nZTsVNFpssTskEHqerRry4UJbhEj1+Uq69vDCGUuiYd+Ji3BSRCqKPHZFSwBaT0WqRExvlq6SDQPhcIqUNKP/K/lR0hWxEa/5WEEIXsHnjf9jdmo2ajZqOGYRjTcwtwBv5/9t48yrqtKu/+zbX23uecat73ttxLN2yQIErkGq/kfuETUQmiMeBIiLELoBgbPo0wPmMzMIoajSFGozE2xAZiFwkCYhc1BNKMfBi6kIiBgCD9fW/ztlV1mr33mt8fc+3mnDpVdd623qpazxh7VJ19drP2PmdWPWvPOZ+HTwX+I/C/gD9fst0r4sKdd96ZugMSVsYD8fH+UZhsfvqnw5OeBNvbsLFx5ce5WuuTbwN+DSiwkoWvw7KlrwZeCHwIs1W4KaECYZTNl3gJ1CPP9l2ewUUl3zKVyqbEzE9MMKNaz+b6v/ykbn3pahzZuJ7LlMwdf9gllHW2z5P+qrKSt9tvgcGGZRwubBkBbGwVGgI8KKhPFeQfvwDnL6FlPK44sz6IheE6mSDnL5GXFXCaeug7P71lfy5FCBmoz+Du02SXpl12wgmUM7RcsttoZCR3Z8r6x6fMbskJAztPNqk7u4keXBnQCkJU4swvWXZnfLtneNbKCQHKU0K40Nx8cBPLmOg0ZU2WIMUoKUZTjN4QPAGzFGrwqcD3Af+it+7p2MOdD8bXrwV+8IaMLiHhZOBjwGN7rx8T113O/mD/L9+MtaAsm2wmJFwRGo/NozDZfOELbblaXO1k839gZXaL+KKrPO51hWQZbm2NVp+xx2ND7qgHQl0I+aUKP7On+Tt3ZKyfqVCx3qUGrjZbAFGlODtBnVCeKmIpWqNoaR51mnvqgaceOPKtGlmmEBmUxpagHV7QeduCBt4joyE6KKyvLQDnLkDdGLU7uPsOwiA3Y3sRZFy2GY2ml8xPg00/zEDQMjuZGdzPDW3g4bwiOxMjjfspS3qHZB6C4nZK6rsG8d4rUitOFvrCwBRFfZvGMYERUXbudhTbZqfQZrZk/nOTskIPEEM5oUgxmmJ0OVKMXmu8l05YxGOk9XVLtvsvwJfdqEElJJwwvBWz9foULAa/EvjqFfe9FdgBpsAdwFOBl1+HMSacYBylyea1wtVONo8kZGB+eFaiJ3NZk3LdUQ2EwYWAq02gQz2UG4I+YNxJF0Qy1Al+u8RdHKNFjmwWuzMQjZ2BGDHNtkpkUu5PBsWZjQKYUmVoCGoUOgG0yAmbQ0LhkToYifUOyQoYDihvXessI0Rg4DsRFInrVJHopee2p6hzhLUcPVXMXasE8/LTsozWDh3h3oto236BOhdCDhKiSuhUo4dfiDe1t3/bKxZtE3p8uvP4k/nt65pwvInsiUKK0RSjRxxfhGVDPnTYA0lIOGGogG8F/hB76PNLwLuxCoK3Ycq0n4s9CLoV+JvADwCfCTwR+HnssZ7DWk3+jISEa4jHPx5+6IfgcY877JEcjLNn4VnPMjGjr171kc0SnLzJpggyHKDro9iX1SOlDmYbDgQ2P9KVe6kI9YD2Kb0oqHVQWf+SB781RbbHUdlyvd1P+gSt6ceaKtmFiWUfYFeWpIV3yKCw33fGaFma4iS0/V06KqjXTfzDjSvIMmRQoGtDwqkRs1sK3Cy0wh71yK5ZgrYlb1IrMquRskbOXTR+O1unXsstkeIbgY+AzEorDWyvqWGZC9cgsbfLGVGuC6Fs670d6pUMFhRAAc/8PQuKm2ETin7GpH8qVajq/csdE44OUoymGD36+ErgN/Z47/8C3gV8HLNeePc1OeMKXWP1cDVVYFnRoCaE1TQGb8u2DtxmoqvRkTt8sdJ2F8L44I2AO6kO3MYX9690rFNustJ2G3617Qq33B+3j/fnB48f4MHtO1baLhTXTjnalat9j6rhwd+jvXyW98Dvx6WP7+v9/lasvHYR/w34y5dzooSEy8UTngDf+72HPYrVsLkJb387vPe9V3eckzfZBGQ4pLp1bZcc/+x0hp+Z2Eb/f63UyujBTolRasXPQu/9AA+fRzfX0VFhpW9R5XLXuWulOD+Dh84dXFLmPToaIOOpkceg1s+1sY5urFOdGlKvmWWBHwd8GQiPeQQ68NTDjGo9Wg40ZHLQEXd1QjWKWQ1VGHmygSfzt+PGJZSxfK8MUAK1kp0ft+ub8cloBHmGPnR2yfhN9ERzz2xTKDcbYRdh7UxAhoKKpyh791IVN6nRoiHcsPagvV8P3e5/OIv3+GolsxJuCqQYTTF6hFEAzwa+Z8l778AESLaALwVej5X8LeIb48Jstr3k7YSEhISEo4iPfhScg0c96rBHcjDy3Mp9r9b+5ERONsl8K3DRQmByqzPBkZ1InAaO6S2ekAujhyqkCtFcPbTCGW6nxF3aMYXKS9uWWNnYbRMRchP5AHCTav/SvAZ1jUxm5r3XEDQRwuY69ekh5UaGZpaZ0EwIo4xQWL+Z+q70MGQCmfSyPnuIohQO2SjQ3CPTmuLB7ZgFsu1lGnvJYlkfYNet2nr4zUEVvCMMc5scNMqWtRFaqWknBFosIalxrMOHK6a3ZDCEfDvZYp0IpBjdfa4Uo0cFX4JNKs8see9i7/ffB34G6w17aGG7VumyKNaP/ew8ISEh4aTgO77DsoXve99hj2Q1PPrRNkG+GpysyabzXTlcAHHzYhbqY7lapUYMC6FcEzTrVBabHiUw3zi3PYHzF9FZidS1qUouQUMu/SzgdqZ7l+X1oTpfdpZlyNqQei2nHviWxLqZmbTXo4yQOyOuS7I2c1miJfRFnZj4Rw4igj93yYzrRSDzaJ4hLpa7RDKrTQ/aMjSG8EFxJfipEVhXaTuGVnjEyZKSRtvGTwPVyMaebxPtHyyz5eqAejffH5ZwdJFitPdiyelSjB4FfBV7l9DejU1CFTOfd8DDN2hcCQkJCQmHjDNnjpY40JOfDFsHd0Lsi5Mz2RTBDQeEyRSqGlfW1D5D6MisK8HPzG+vLszDLuTzYiM0PneAuzSBC5eoz5631+trlpjo62hEclZteNxUcdPafPv2In991LVlTtbXjShnnvrO05YdybusSHFhRhh4prdYX1hrvN5kSermmpaQvWWE1gvgoKzQnbH1pW1uEDaH+DIa2TdEvKqWk3INRjarGj8uyaYKF7psiYTd2RvRrjRysXyyXDdyPjxnn1Ozv8wCWjgrB0w42kgxmmL06GMd+OvAN/XWfXP8+XPAc4FvwURMxlhvZ8pcJiQkJJwQnDkDT3ziYY9idfzCL1z9MU7OZFOVMF4uGKCZUBeOYkupRo5qZIbu09NiJXvbsUlf7ThSW4me7EzQ8QQ04NbWcHfeTtgczRE0FaEemk9gPRLKkJNt71zZNfjY5zXKTDxkFqhGjuyBi9Sn1+HWHD+OJW/Osj4SsNLAZXRmcZ1Yz5WrFD+trRct+gUymVKPboVbNnB5Zj1qO8uvQ1WRqoKqQmYOnGP0QMnsdEY9ENRZqZ2bhig8Yj1gflwi05LqlrVdx3SlEgphtulMJbPuBu+mtWV3Eo42UowuufCF1ylGb3ZsA7cvrPu53u8/HZeEhISEhBOIM2fg6U8/7FHcWJyMyabziPdoVeI2NqBRj5RINAvH9BZHvqPRJsHI7ewWIZuAm8V+KNXO5FwVMg+jIR4IOzuod+aV1/R6OcuYuFlNvm3kONtZgXAVeWsWLyImUhKVLfOzO7jZADeroQrkaznVHZumdqmmwhli6d4cYrnbrl4wmf9dKiupUyfUd2ziz+0gkynMStysRnOHrpkgSrefg1GOjCddT1hedLYKs5LBQ2OqjQ0qEVwVMzmLyZZYztfca9TGE3LH4IJSrkG5JgzPa/uZJBwTpBhNMZqQkJCQkHCMUZZmJ3KUymivBU7EZFO8R7xDK3CnNtGhEVkVK/sKhTDbEPJtI6rqoiJjvDuN9H/zhL9PZsU5tMjRLTV5KRE7hmCkzJmFgZsFU8gcl8sH2RDPoEYM++IkVRXXBeTSDr6qkaq219OM8lGnqQe+7bNSZ9clNR1RbXqvtFsnwQRBGpsCdYLT5h4I1VqOlAMcpubpppX5HnrrD2stHuj2p+5IPCFALRAU2Roj1QbqhdrHe6o678ag2vkUQmdgDxRbNeo8kzVHvl1Fq4hIeuuF/RKOHFKMkmI0ISEhISHhGCME+OVftj7Ik4QTMdnsI9x+ijDM59dlQrkh8EBcEU3ks7EJZUgd+7iCzhFMvbRlPVt5gRsNOzKq5u+36DXnppX1kC3DYGDHnk5N2bI5h8bsQjkzawXvYDaD4cDEQMZT3LgiA+rceqIaguhmgbqxTmg8+9RsDdSZEEpnswB15rtsS1AEKE8P8UVGVte4C9tonkGeEU5Hn8Lcgyr+E2dBHCKKqrZ9ZHiP5DmC3cuQwfhOYe0B2VUiKJV5BLbX7gWNmZdsuybkwjQIfhLs84ikWaYlejJK9E4EUoymGE1ISEhISDhuGAzgBS847FHceJy4yeYuRcSmx0vtdz8LoI6wIZz+YEW2VbcEkBC3CwE3qdDtHcJ0CuJweyhchtwzuaPATwPZdmmG6zBnQSAiRmDLqvX1k6JX4nbbLdZ3VlXIcGhm8KPCruXh8/izBXJ6jXA6ZjEC4CAMHH5sBK/J9NQDh6sVN+188ZpSRe3rdzhB4/WGgae8+zTFx84Z0RxPYTKxrEmRo5l5DeqdtyA7U+TcRSPjQYHaEjXx+BKguNCphc5/FhrvsSLTGvWOkHeDyrZqNj8Kfly1JFjqgExKyywlHA+kGE0xmpCQkJCQcMxw5gx88INwzz2wUHh0rHHyJpvQZjfcrLb+LQAlCmM46sKyKOtnYrmaF1CxkrcGs9LcTqPqo2xutE/4m7I3zT0hd0YQBcufz8rdXnftuJwR2BDmCXcd5rI1UtVQRrsD75DJDBkOkKBmqRCvB8GuT7VNUDSiHZoJIZYoNqWKAOrtdV/cAwG8EE6vx1I760/T6QypKsR7yDPYmdqkYHMdgql0tlAl364YXHDk2yz3MKwDlKWR2NyBm9/GVYq7VO0iwTIr0TplTY4VUoymGE245sh2VuujrUarbVcvlgbstR0HKxHf6ZeLgy3io9VqYxuuaLWz5vzBG7HadzfPz660nWO1kvKtjYPZ6Cd2Tq10rDPrq11DPVhNNTr41e7vKpj7W7YX9vqbnJBwhPAHfwBf93Xw/vfD4x532KO5cTg5k023+w+oqwLBS5ToN9uB4JsSNiDEvi4nkDmYdX+spaphUODKkjAr4dSGbdMe3EzcNZM2IyNVQGMJ2jKDdfHRHqBfBtj4+DXWBXUNMyvDU++QLEPLEikrpFZ04NrzNX1tfYURNwlGYr3Akv8VITPCrrFEzwYRT71ekI1n1vOWZehkYmWDYER6MrXSwUGBFAU66bwKVRV/ccZAxJQ3sf4xUYUa3KwyQlqWuGlJyAatJUVTRmj+imG3119VJyJ7HJBi1IaVYjQhISEhIeHY4cwZ+5kEgk4gJICbQp0DheBncMufV7jofbdLHTJyStncsJ/nL1DedQo3q9ssi0rnsedm1osl4xnEEjwGAyTUUFZGlMVFwQ4F1z31FKx8D3GggfrsOdzGOkziPmtD2JkgsxI/LqlH3rJBIvaEcoGszj211PYkc1APAUdW1VHdUzshkGYJwchqaeVx2lhWTCaWUbn1tMluVfFaguLPXUJU2XnMRhRzAUrwZcB96H7CdIaIIGcvoKfuQmMGqCGz/f4wN6u77El64nnskWJ0fpsUowkJCQkJCUcLZ87A2hpsbBz2SG4sjv1kU6Koh85muNFodz9YAD8NDC6a2qU6wVVKtlPjJ3VLplrxEUBCQB8+B2AZDcBP7am9NiVvTkzZclrjpzXZw2Pz/PMeKXL0wsUozJGZaMdw0Fon6CC3zERtJX1ASxjd2pr1YdU1WllPGqpQVridGX4UTeOdIhOlGvlWQAWgLhyuDF2pnuspXfqGOGJ9WVEZU2aB7OLErBTKru+qnxVprkFjGSLnL1rJnfSI83SGlCYiImr9XW5a2zkGA9teAwwHSFkjTqxUD+ayJ25az/sk9rI3CUcPKUZTjCYkJCQkJBx3nDlz8rKacBImm96jIZaRDQbWAxWh3oEzRcjiklAXHj8L5Dtmg0BQpIzktUf8yFz02KvRsjLC5ZuMh5W+VSNvGZeokum2x0ZGXSxvy3OkyJHRCPIMLXKIHoCa+/acMi2hqo3whmDG6JnvbARUwXmoa2Rngjs1JAw8wXcZE43ZmDnPvEa8I1ortP599MoSG5XPKhiJ3Rm3ZYXiXEdiiduPhkhZWRlivdCTogENNqBqGCcMUyWL4ig6GtgEoSztXvQ/w8o8BWlaa5ygoZfNWtZblnBkkGI0xWhCQkJCQsJxR5psngBIYxQfCWejougqpbhQUQ8cxcWabLsyiX9VqBsVzEjyfHyKLxL7tBRcZusllrOJUG5muErx45rsUgXjifVyiZjIyHCIrA3RjTXCWmHZlsyZIXvT71Qrrogld83rncmCz50iw9yyKNtj3GSDephZL1pLZIHMIbMVRAka0ZKmV0vVyuymM3RqGSK8gyyzLE/oyKQOi2UtZrZNJPpWOijUAyi2epOKtYGpVoJZN0i0XQhWjhcKD84yUiG3zI8GELSzs0g48kgxmmI0ISEhISHhOOIf/2PrZDlpOFGTTYilXovrasWVNRsf7pWf7aFk58raSO7aGjKdtqVhblKi3tnihOlpRzaxPjB//7noaechZke481bq9QHVRk41tGyNNERv6NqyujDwqFjZnKsCWeZwD12wUjhAx2Mr7wMINe6hC+QhENYK29dJp2QpVo5oFz1/T9qbolEZbhoN2VWRuka3t+39wQDJ7GvTGsaHYOM4d9HGpcsIc5wAhICfGltuDO4RCGsFbmtixxkPochwEtp+Mjer0RLLmPQ/m0Rijx1SjKYYTUhISEhIOG64777DHsHh4Gonmy8BvgGjQf8L+DrgkcC/BW4H3g78PWB2lee5eoiDQTFHgtz08tUR3YUdOH9pyfGlLc/D0ZI0dWK9XWsjyDJ0WFDeeapTwowWBioQCod6icbqApn9rtLwTEe9lqN33YK7OIaLW8j6mpX+RehkgrvokSrAqSH16PI+4kZoRILiphUyqZDpzAjscIBGz765vjpVpMgtG6QKjcplOeuyKhpTILOS0cOWoXLT0JJ0AOqaMJ7gxxPk1NquCUfCFSHFaHv8FKMpRhMSEhISEm486hpe/3r4nM+BT/7kwx7NjcVqhkrL8WjgHwD3Ak/CunW+EvinwE8AnwacA154lWO8KmhZ2VN8Z6Vx7RU3xuSNkuO+BzE5fwCZlYSLF83gPUr5a7DyOdsg9jqV4GeKK6Mf39oIXR+h60Yu66EnZK4zaY+Ed67GTWJvlth7IRPCwFOvFVbSNhqa518cY/tzMkV2JvhLU6TSLiuy32XG9920xk+qjsTOSiudG5lRvY4KwrAgDPJ20UFu1zYa2LJm5YeNoTx51hJaqawEMt+q8OVCdiWoRWNTFrjH5yKqSB2sT61aoezw5CLFaIrRFKMJCQkJCQmHjAcfhOc+F37v9w57JDceV5vZzIARUAJrwCeALwS+Or7/KuBlwM9e5XmuGFpawkaiiiQ98UVtxEIW92kyAr0n/jKrUJ+bX9x0St3YI0RIaSbnmtn++U6wXrDtEjJPfXodHfTIa6MwuVAKKHXsxWq0RfrjE6EeeMQHZL0AVdyWi6IkvfLCqIrJeIJfK6iH2d6fdI8rSq24rRlSVrT2CYBmHi2G6ChnmYe3ApL3jLFDwHkHeWbHmpVRFVOhDrhphZtZX1dzfYslkVJW0BNiWYSUAQnBJhBJfGQ/pBiNSDGaYvQoQh2UGwf/qz7wgUw81rWEl9U+V8+1e+BQrvhVGq5YvV0uLSmfR75Hyf4iNlfM9d+dLam8WIJH5ucP3Ob24fZKx/rgcLUqkZDlB2/Etf8uJSQcdzzwgP1MAkGXh48BPwZ8GBgDf4SV5J0HGlb1USy7cnhozMZFCGtDpK5bERAd7H/5blqhPRN4N7ZSODccEnodvhLJmNQBqV2rGlmcm+DGJdWdpyhPFS1p7lsZHDz++ZcK4IVqLSMMPH6Yk81Ky+A0xHMytXK5tVGPkO7BQJvTVIH83BjZNi8+zTN0UKADb+S/tH9Ue3KLZUSnyE21cn1kvWKlEVr/0EXKR982V57nd2bm+ScORkPrmdvvtvSIdtjaRqty3+1PKFKMNqe4CWP0m//pWyHP+Nl//bdSjCYkJCQkJBxjnDljP0/iZPNqnk3dCjwH+BTgUcA68KzL2P8bgbcBbyuZHrTt1aNfnuf2fhrff3qv+QKJO3uhE+Foj+vNf85FFUwnuFnATwOae+qNAdVmYSqWTrosiPSW/aALS/8tJ4RBhm6uIXmOTqY20axrEwjZXDeFSJHWj28R/RJFzRy6NiRsrBE2RkZiRcCL3Yu+YfzictBlbK4jmxvIoEDHEwhm1+BmdTeuLLO+sibDchD61goJy5BiFG7aGH3cZ53jcZ91LsXo0cMvAQ8Af9pbdxvwx8D74s9b99j3+XGb98XfExISEhJOANJk88rwDOCDwINYid5rgacCt9BlTB+DZVeW4RVYL9m9OYOrGMZlIMRlbp2VeEndLKHtNWqsBRr/vrC9QxhPWh87AMkzZDS0LIx3lg1RNWVG7wijjHrgopF8t1w1YuYl5I6wPkDXR9YbVkcLBh/FVhri3JC+ZaQ4WPZCcx/7u7wZtbve18Nf3qDVufnyw9yEV8gzmww3PXaV3WuiHYV4j1a1fS7LSGpIJXmXgRSj3MQxKnGbFKNHDa9k90Ob7wbeCDw+/vzuJfvdBnw/8FeBp8Tf95qUJiQkJCQcI6TJ5pXhw8B9WB+YAF8E/BnwJuC5cZvnA799NQO8ZgihExspaxPWaPRCghmzy7S0XqVpZa8XsxSTKTq1pYEbDJBTm91GXtDc4SdWpRi821/04zIhulAmJ1BtFtS3bcAjbu/Ip/eEIrPtG1IYuixJmy0JdKVuhTcS693epXgrDVLQYbbbmsI5NM8sy9RYNoSATMu5cQBLSWxz7Y2n4jHMmFxrpBjlJo5RkejXmWL0iOE/A2cX1j0H638m/vzyJft9MZb1PIsJc/0xl1dpkJCQkJBwRPE1XwNvehOcOnXYI7nxuJqezT8BXgO8A+v/eieWCfk9zFbhH8d1v3iVY7wyiOBGI8LY+ptwjrBWGEGtIwkalzDM5kiT5j5mS2i3bd53oyFBQ+vbB1g2YNRlfYJ3lKc8bhaoBx7NhGxiJX4hd4Qm+7DAwfw0gEBdRK+7y+BoKkIoPLIxwD32Ucj5i8hoSGiuLZbouVnVZjJUIAwy/KRCvWVX/E5p1x+H6HZmhCKby5jIrOqySMPMMh+1osMMmVRdOR9YiV/tkNn8/Qq3niKMMvxOBTovWqB1TXjoIbwG3Ma6KWiuIs5wPEnt1SLFKNy0MWplw5Ji9HjgLkx8C+D++HoRjwY+0nt9+P3SCQkJCQk3BHffbctJxNWq0X5/XPr4AFYidNNAvLcexrKeK9ET1blyO83nvelaElsHZDK1J/5ZNk9k2511zpcvFJ1lQoi+fFIpviGBuZsr1dNMrEeqDHOCJ4vncKWR8L6AiSujubtz6DDHDQfgHK4KhLyXRclcZw+h4Moa9fG8PcIuwTJLi+RQyija4mmPo84hkXWLKjrnRC8sMnYVAWdKlYQlKoCxv0ynM8uu6NwRUTGibCIyy29TwhxSjLY732QxuhgeKUaPC5Z07142vjEulLPV1EYTEhISEm5evO51sLkJz3jGYY/kxuNEiFdLlkGRW2ne4tP1Xo+YRnVFCTpPslTR7R1wfr5HagFN75WfhXk7hEYJs9d3ZiVmXXYkeDHhkua9oF1pXRyD1P31veurAyiW/ci9KVTmWfTBoyOHCxYNUmt3zVFgxYh77NXqZytqW4/I9kLr7QAAIABJREFU/D1wdt6lWYt9hElcGXb35vV3nc26CcPiMbzMjy1ez651CUcGJzFGkRg3KUaPA84Aj4y/PxITEFrEx4DH9l6v1i9drF+rMSYkJCQkHBJe9jL4l//ysEdxOLjazObRQJ4jg4Fxv1iy1sDF8rG2d2pWGYnrk6cQ0J2xWYkcAD+tKc6WVJvRRqE2RccGdh4jsdQBVyvVMJa0uejRFxQ3s31CYdkVVxqBrYf2vr3ZG6MTQubwtRJOjdr+LzdZyPB4IeR+qXdhe82ZI/ie11atuGlpJY7N/YmQKnQkeAEyrc1nr3ftzeONtmyvIdyOuc9Fp9M5X8I2owPIOFkoHDucwBjV2CuaYvRY4A1Y//OPsncf9B8CP0InCvRM4HtuyOgSEhISEg4V998P99132KM4HBzfyaZEpUVxJtU/KLr3GsLWL8dThYX+r/a9oNTjcZT73/tRv9+atb1TbhrL2SSepyFwTW/ZLKDeTNOzcUcE5wRBYvmc9PZr9u1nXprMiJuG+evytJNO29EERqQKyKxHRmPZoA5yI5hNvxy0/WBhlEfBlt44JuZxGAa5Ed1BjoTQeh3O3efpDCny3QqY8X13fgu9dIkwuQEWGwk3B1KM2szMkWL0aOE3gKcDd2B9l9+PTTJfDbwQ+BDwFXHbe4FvBr4BEwb6IeCt8b0fZLfQUEJCQkLCMUNVwYMPnkwlWjjOk02YV31svfPmSdTu3qs9Wm1Udwll+FtvRTY3rLwuet01WQAJav2SDqiV4C3bIaoE73B1LFFT2v4ulEgi4ykbXlr1SvK0s3nACxpoj0tQs23wrrMtgJZEN+V4Jkri5svyGtLtHEKwVb3sCDHb024b75vOeSPSknDN/fz+3u9bRqd5Ztssmyi0gikCmYMqHFeVy5OHExyjbcYQUoweLXzVHuu/aMm6t2ETzQa/FJeVoU4o169Nx4uueBg/Xa3cOfP71Fn3cLbaOHiberjSsR6TjVfarryG379VW4/LFU+5E/KDNzpBkBVu8FWpbyckHDIeesj+NSeBoOMG3UPcAlrlRCOQPSLWkNCq91etR9529SXdcSthVESi7Kz0TYwAqkQhEie4EAi54CogQMgFCaY+KZGhqouvm/4tiCQ39k7FLEqb4YjqlOLU/lArRlCDmgiKWtKky6B0pu8NqZfZkn6tzKHa3If5nrj2OA2RbY69UPbYEt2YfVERGGS7iGz7OYSArg1wWwf8A/bzAioJRxwnPEZbgaAUowkJCQkJCccW999vP9Nk87hBlbCzg1tbQ0YjE+RokDkT6cB6iySY0EYY7SZSsjNBdyb4O+6gfvgshPgITgRdGxAGGVKHNpuodCRP20yE7RJyhwQlm9TUjSF7UPykxle9DAYYia0VP+71TVVKFrdresJCYX1f6syw3k8qZFq1xwnDvHdMbbM0bYnfeAaZR3OPm5RokbX9Xy2afrBRbuOoFTfuvV68d2rvN/eg6fVqJw2RwIZov+DH5W5CvQRShURijxNOeow27w+yFKMJCQkJCQnHFJ/xGfC+98EjHnHYIzkcHN/JZiRL7pbT6LCYf68KrSiGefb5PVUXdWdCOH8BGQ7my8fEnt5LbmqR9Xo+Z3UAltkQteyAn4V5KwUnreplGJjnXysq0ud0vdI8nLRWJlKFVvFS+uqUYUFBMiguWiQYWTXPPkRsuzzrfgfrBwt2/0KRmX0BEAZGWhu7hTDIkWkk3w60yOb8/RY/izkS2+9Xw+6PiMBoiD99ivr8BTvn1jZOBO66Y/mHk3C0cdJjtNkvxWhCQkJCQsKe+Pmfh3e9C7IMfuqnDns0l4+igE/7tMMexeHh+FufDArI/NyqVuCjIVRt39USqf+qQqsSnUx3P9nv9UZVa566cGYKnzsrJYuZD9uWzlKh3Z9obdD0O3U9W22/k8QsR+z3MiUSOtGR5poau4XQbd/u16Cxi2iut1da127XWEw0/V/RdqLtAY3X0B4/hPaalgm3zN0ub/clNL1k3hEG3nq8WnLbfSW1rNCdg/tzxLu5/RKOGE5ojM5da4MUowkJCQlXi2cB7wXeD3z3kvefBrwDqIDnLrz3fOB9cXn+dRxjwor46EfhW74FfvVXzauywVGSBXjzm+Gf//M9O4eOPY79f3/Nsz199zRmBdysws0qe+q/+E1w1hul5Wz3AWIJnjphtukJhbREU2U3cZVacZW2fVC74LusSDtG79rjSOxVMzESRerQEVywdU3/WrMERWNJIjBP1HuR2pbS9RQ5pTRbBAnB7k1zf1Qtu3KZka6Z9cxpZtmjeuRtAjBoxhbMTqFBqE358oDzyHCAeL/vNgk3L05sjDZIMZqQkJBwreCBfwV8CfAZmKDXZyxs82HgBcCvL6y/DVOX/qvAU+Lvt5JwqPiVX7F/Me98J3zkI3D+PHzmZ8LP/dxhj2x1vOEN8P3fv68N+LHGsb1s8R63sbHcq27PnXZvK2tr+Fv3+FujsTxvLaMc9dQ02/cBgWrk23K05rWbBRMV2W84dbBeqWCld1LW+J0ZflziZrVlTkKTQdHdJPUgotlXkOyXz0WRDxM4WWKDsOQ+uJ3Zgedzsxo/Lq1nTSFkQjW0zMme5F4DMp7u+zhIRiOzzkg4UjjxMcpC6nOf600xmpCQkLASnoJlND8AzIB/CzxnYZu/AP4nu+tkvhj4Y8yS6Fz8/VnXc7AnCbOZ9S6ORt3ypCfBZLL3PqrwylfC054Gj3ucrTt9Gs6dg//2327MuK8F7r//5IoDwXHu2fQed2pzniBFomUkzR/8NP7SDpT7mJO3ZW1KNtW2PwvATwOuDq0RfcidZTzU1Cx3lc6pIhX4qm4zIcsJKuC6LIlrxICcQ3NBJj2xErC+s6a0ThUdeMvklKG7N4t9Ws3lxR4vrSMPv9KahZjN0TqeKx4nG9ct357L/vQhDmYlFPnej0YGRcqaHEWc9BglxWhCQkLCNcajgY/0Xn8Uy1Re6b6PvkbjOvH48Idtkvg3/yZ8yqfAe99rvYwXL8JwD+cjVXj5y2Fzs1snAvfdB295y40Z97XA/fefXI9NOK6TTeeRLEPXhvs/8a9jP1fkQK2KYlN+Oh5DHdCqWr5/sDI5VynZRHGzSGZ7vVTijKRq5IlKz54h/nSNb1/Pi69PYhf96jR0BFTqKKISlS6XjZFa29I6LXITFKl1zk5Cm9x+z2DexizgFA1y5b55jV1Ff+yAm9TkVa/kdw/ozhjWhlh1zJL38yyKqDgWfRYTblKkGJ0bY4rRhISEhCOFb4wLDz744CEP5Wjg0z4NPv7x9tnrSnAOnrOYl8Ymm697nflX3nEE9OnOnIFP//TDHsXh4fiV0YrgihwZDe1Je4O+IEcVcNMSNy1R59AiQwe9bYMi0xk6nhAuXSJcurT7PBr7osqA3ykpLlTkOxV+GubN4iFmSbCSt8yyKEYubXGT2nq76jBPYpf1YLIgFNIsC/egWayUT+eyInMlec51KpSNAmbDaWemakl/+4PK9ebukbYqmEbKQ9dfFgJ+Z0Z2cUJ2cbI3kdVAff48Uu1DUIscGQ5xw8HqY0s4PKQYnYujFKMJCQkJ1wwfAx7be/2YuO5a7/sK4F7g3jvvvPNyx3gksdcz3ctB/Jc2h3e9C9797t3b7uzAD/yACQQt4q/GXPV//+9XP6YbgZTZPIaQzU1kc/2gbqgOtSKlRZFc2kHHY8J4QtjZWU6wRHBra5YdCQGCWSQE76yWLZaa1Y2QSGgIaHcIP46lf87Nn2OudG/VCzgA/WM6QQceDQ43q3uiI456mOGmFRJg314y6WV+9iO2auqYUptwi5UExv0WH3MEOtLcP74qOI9e2rIyv/XR8uvKPDIY2F+nhJseKUYXkGI04SpRbB2cMZ6eXu1fvrrVItO71QIgdwez1FxWy3hf62LsyQqXuqOrnXWy4nbnw9pK250pTx+4zcXZHvWHC9DpamNb8WPAVSvcuBX/wGfbK5x09b+1bwUeD3wKNlH8SuCrV9z3D4EfoRMFeibwPSuf+ZhCFX7mZ+C7vgsefNB6La8EX/iFlqX89m/v1s1m8IxnwFOfCq9//fz2r3sdvOxl8PmfD495zPx7994Lz3ve0chqgk2YZ0s0DE8Kjl9mUxXJvJVt9dYhYk/vF4iX1LUtqsiFLfTCRcKlLVNc3KdsTIYDI4XO1Bs7mwHF90RFmoxJY7HgJzX52Qn+3LYJdgTr1WoW6S9N/1ruuxK6xcwJoJEwu1lNKKKQx0KmpR1PWbf+f6HwXaYEyybJPv8ctDGAh5ZwNiqazXtzS5GhmRH1Rmmzs4igtbZoVTj3ge6M0e0xlMtJixY5srGO5MXS9xNuIqQYXdqn2o4nxWhCQkLClaICvhWbOP5v4NXAu4EfBJ4dt/lcrB/z7wA/H98HEwb6IWzC+ta4z9kbNfCbEarwpV8Kr341bG9bFvJKcOYMvOlNuyUWigK+6ZtMrfXP/3z+vVe+0no7n/a03cdbX4dXvQqe8pQrG8+NxmhkwkYnFUd/srn41F4EvId+b1SvNE0XysykrJFpBbOScP4C9dY2Op3u3QMGIA4piq50ra9w2ZTf6XyWRILG0sAKtzVGL20jk9kuP7y5SWJcNHNLP6mW6DbXGsJuZc9eSS0STeqr0B23dz9cFZZOUNvjNFy6R1atn65nydBbWpLrXHcNy4i4b0oE3Z4iImEyRScTZLaHGEyeocPCJhiXU0aYcP2RYjTFKKQYTUhIuFH4feAvAY8Dfjiu+z7gDfH3t2IlsuvA7cBn9vb9JeDT4vLLN2KwNzP+/b+35alPtddvf/uVHedP/sR+3nff7vde9CKjBD/90926D38Y3vhGeP7z9+7vVIUPfADqm1wG4AMfgJe8BN7//sMeyeHhyE823WgEzs+/boidKmHYPbl309LK07LeZZcVsrWDfvyMleSFg7+14gT6hKlPypyYCXq7wkisH1ddf1WeoZMJurWD7Exb24RlJLYRQmlL2Jbdg8amoMhw49LEReK+ofCEYdYu9ShvsxRWosfcsv+FLyGs0e6hfX9hUe/Q0WqWBzookNOn9t6grmEy3ft9EWQ4JJnH31xIMbpHjEaZ1xSjCQkJCQk3G0KAl77Usosvexk84hHwtrdd2bHe8hbIMvgrf2X3e496FPzdvwu/+IumTHv2LNxzj00yn//8vY/5679udijvec+VjelG4X//b/gX/wIefviwR3J4OLo9m87jlvi2udtuRVf1cxOBh85apiTskS1Yup9DRwPCKJ8nxQouBKQM1ltVmqCIBCX7xDmoanCOcNsm7tSmEbOdCeRGMgl0pLB/TZNepqDJlBQZIXO4SWX79lqtgLa/wU3KtlRORXCzzhpFncxnWZbaGizJwjTj6N+v/nZNyV9Zd9mROo47M7GX1v5BozXEfv0YGuye1zU6mXR9Y4vIPNx2Gjl/AV1hQpJwnZFidP8Y1W7fFKMJCQkJCTcTXvtaeOc7rVy1KKxPctXJ5mxm+zR4y1vgyU+GtT3alV/8Yps0njkDj388fNu3wTOfCZ/8yXuf4957u2N/5mfuvd1h4/777edJ9tlc5fHyLwEPAH/aW3cbZnb7vvizaaYW4KcwQ93/CSx5hnFtIG6JpBWYumW2pMwr9h015WkAcnEbnUzRujaydFkDiFmBJeqPTcmcVKaC6c/toLH0ryWiowFENc62VI5ev1TMSohab1hf0bIxc0forBWWcdBm35h5cWVtx3DOsimFNzsGJ/M9ZNhxNfemzrm4LGZHFu8L7N2Ttux+HaSBrWqfT9CObDc9fjED1JYBemfm8SerTC/F6NIBHIEYhRSjCQkJCQk3FVTh+74PnvhE+JqvsXXPf76J8hyEF70IvviL59fdcw98xVfsvc+998Lf//uWqQRToW1Kd/fC4x8Pt9568/ttNpPNk6xGu8pk85XAsxbWfTfwRkzx643xNcCXxHWPx/yHfvbaDHM3NGhX2tZfn/cERnpkRqNQRiPwgSrh7DnCXv1FKw1C5/qawEr0NDPLET8uka0xPHwO7Z1HqgCDAl0boqOBkbHFfjDnWhXMRWN367HqrtF8BMPya276wDSe15l5veauJbJGLnsXEfepBz72ajkrtYu/0xBaN99P1hD7Rj1zjvA237Rl2ZYm8yQLWZyFe71rVXsvHMTeMwAZDqxf7+Qgxeieg7jJYxRSjB49LHu488+A92APcF4H3LLHvn8B/C/gfwBXWJCWkJCQcH0hAr/2a/CKV1g/Jdhk8R/+w733uf9++MmfNOXYN78Z3vGO7r0f/3H4zu/c/5zf9E1792cug3NmgXKzTzbPnDFxoOFqwtHHEquU0f5nYDGR/Rzg6fH3VwFvBr4rrv83GId6C/YP95HAJ67FYOcQasJk7zIsdQ4d2uVp7iFT3LgkrBVorbidqfV/weqleQuQWYVUlsGoNyJxUst05H/6QbSsUDXC7R51N4wn6NYWUlXo6U3rW2uyJdPaiGzv2O219PqpVOjIZ3/clZHZepSbZUOT9RBMkVMEcoc6MSGUWcAvk7cXIWQOLaykz3hnVxKnUc2ToIioDSGayRuxNELpphX4mNxoPiZn2R837kj93K3PPDrYh4A6gdGQMMqtlLHJIsXPuc2GndrEBaWe7tM7drxw3WP0EY/d4cf+zZuvyWBl7U9s0gO7Ji4S1L7fChICujOJ71xmjIpD1oaxx9Emaurn/4u5rbF9t8EmkoMC6jg5ds6yr8333ol95/c43VzmT5ifGLaZvubEdqzHPeEMAC9/5a/O7avN7u0v/RN165vJ7OJkeu5cunDu5vzCfEmu9n7R+dOqAOKs9zMe0z6XJed1DsmiJ6rasZZ9xtQBqhqtruJBwgH483fdwn948XU59CuBn8biqMEfYxYJFfBP4+/ftcf+XwA8dF1GlpCQkHAV+O3fNu/KH/5h+OzP3v3+Aw/AeAyf9Em73/uRHzGLlLe8Bf7JP7GJ56teZX2YGxuXN5FcFffdZ1nQixfh1D5yAoeJS5dOdgktXLlA0F105PT++Brg0cBHett9NK677pAsw996q02sco8OFsr0RAjRFF7KulNMvJKJZpy8lbevMblrjekdZjokqmSXpuTv+ZhlSeoavMfddSd6aZtw8RJha5v6oYeRydT6w+gmlhrN2+eyESKdOIg3MY+58jPV9no1dzbRjJPWuYlmQ069WLaksI8+FA7NYpZkLbeMSuaoc0c99FQjTz3KqIeeeuCp1jLKDRMwsVLBLovSqH6qE+phRj3MCMPcjjvK0UFu41xSPqeNSMw+kCwzJUvY9zPW0cA60U82broYRQTJcqDJrC35HvT7DdvJ0BXEaJy0aeYJhSPk3XdL6oDbmdpEU23mJkUBVbCew7pGy9LO35uMNiNplsXz7ZpkLlw7Tf9lWHqEdsxt9tF15a7an/S2GUm6EtvFpSnhbf+OzI9P6bYl/l2wSaizGF52DctKeZde5/5ZUBWZe9B2BPGf2W2H8EfYRBPsIc6CK1xCQkLCzYvZzBRTv/zL4Q//0CaUy3DPPfCP/tHu9R/6EPzcz8HXf72VxH7d18Fv/IZlO1/yEvhLf+n6jPsrvsJsWfIVZSAOA7/8y/Cnf3rwdscZ14KR78GcDsQ3xoWSq89ASZYhpzYI3neTtUX4XiYgXGb/1yJcV46nIjCpkVnA7czQS1vWYxYUVwg6HKBnz8/bNdTNhFBij1Z3aPXekhcN0e2Rzl2ldM61BFCi8mSzrUYD+9a2IPRIqoh9+kqbIQyZgMQescxRDwTnXfsJS9A2o2rZJ+kyMP1hBbUJbPNWEBBFRXEV4Go0dGV9IXMm0gL7fy7OdcIyexFVbw8b3LKewJOLq47Rj33E8x1f+PQDNt8fbjjE3XUnYXPdqg383pMNNy6RrR2qD3/0ih4IyWCAPOFTmN25Tj20GCkulcgskJ3fQT/0sS5GR0N45CPQj59Bx+M2RrPHPNrKaJvv3EKMQhejoamiaCd23bW5WU2ID1JE1bw7gZf/wq+AE/7ff/DC+Rj1XZxLsIoBqa2ioBp5XG3xF/IYo5UujdFsp27Fj9q+UGgfEjUxahdAW7HgqoBMy04QyAv1WmGT9GmFbE+o//wvln4ubnMTuftOwqnRvpNJKWvcA+eoPnH/QR/lVeJQtOa/HvjNPd5TbGKqmL/fK27UoBISEhKW4QMfMDXYt73NhHn+2T+DwWD5tnuJBP3gD9pzxmYi+m3fZlYmP/uzlun89E+/PmN/4hNtuVpKf71x0vMfV3r5Z+hK7x6J9a8AfAx4bG+7x8R1y/CKuJAzuLI61h6kKND1kWW7VnlivkzV8TLhqkCo4qStVvz2FNmZoP1vfcwc6KQ30Vzsk1roX2uI6xyaS1q4tlB4K+/rZ4La49rvIXeow4zsm8yGWPbDT+tu8uiEKnftNnURMySxNFgqI70uEmIJEkvstPUrlMpEQkLvMZM43S1OGYk1ImjhkHEww/rp3mV14h30+/32gE1kTvxkM8UoN3mMttnGFKPHCC/FMpy/tsf7/zcWb4/ASm/fg2VKF9E9jJ1tU64dHC/F1sGDkxUJmVSrZZ3rcPNa2KyqdbyjB38Pz4c9mPcCLoXRStt9rLz14I2A+2cH1wU+vLO+0rFkutpn5WcrbYZb4QZXo9XOme2sYGe10pESLheTCXze58HODrzudZbZ3A/33gu/+7uwtWWlsQDvfS+88pXw7d8Oj43s4vGPt57Pe++1iehXfdX1u4aqMkGi5zzHJrk3W9HM854Hz342PPe5hz2Sw8OV/qd4A9C43zwf+O3e+udhfxfuAy5wHfo13XCIW1vDRQ1lGQzaxzBuUpmE/w34trlxRX6ppDg7I394G/nIGer7H0DrgL/1FtwnPwa57Vbq937AepN6Qh06GhA2BoS1IpawFtTrtrTldr3FSuNcT5kSUMVvz+YyoPX6IJqzd9kLCYqrLENSDyxz6eqAH1cQ1IRIBt5sIBTqgWN6i6lc1kVcckEzYgkfIFCNoh9iLJvt1DrBTyobV5NFbUqCfe8e5H45ad8L12DycYKQYpSbPEYRK2dNMXpc8ALgy4CvYe9KgubBzgOYkNBT9tjuFcC9wL3ZcLXJREJCQsKqmM2sOGU4NBGgd77z4IkmwOd8ju33znd268ZjePrT4bu/e37br/oq+Iu/sN/vu+/ajX0ROzuwvm6T3b/1t8yn82bBeAy/8ivwf/7PYY/kcLHKZPM3gP8PeALW3/VC4EeBv47ZKjwjvgb4feADWO3SvwZedI3H20LrmhDNw3U2M8GgQW7EqCnPO4jMXqEwUB9SBeuTvP8hdDy2Pk0NhIuXkNiT2bdskKIgu/suwvqwVaysR3lHVvdY2gxLsyxeSrzWxqOv6aHUKAaiTqgHjnLDBI2kDGhmBDZkjpBZdiXkgnojqyGzRX3cv4gCQ7Fkz09DmyVxs3r+fi6SzoYA9+9dXZvZ/Szen6qGcnnWxK2tIZsbbd9twhxSjO6DmzVGm8xmitFjgWcB3wk8G9jZY5t1YLP3+zOZV7RNSEhIuO5473vhcz/XegkB/sbf2N/Pso/P+Rz72S+lveceeOMb4RGP2L39q19tPz/3c698vAfh1CkTNvqJn4Df+z0b47lz1+98l4MzpgN44gWCVnlkvVfy+4uWrFPg/7ny4VwGgsKiKXjvifx1g/MmJtJkCIIiZU3Y2m4JqwaFsrIsQZ5ZdieKBclwgN56ylRbW2uEHsm7jFyzRLIotdLVyC2QYOnOYftg905iv2nMwIg2ZFVi72bs4QSkBt/v+WrK/2JWpBE96RvQL/UFJJYGOofU3WfXWkKEgE5nSycYsjYy4Z99+vxOMFKM9nFEYrRfLtucw/YhxejNjd/AlJ7vwB7ufD+mPjvASmPBRIK+GXgU8AvAl2IiXa+L72fArwP//oaNOiEh4cTjt37L/DKHQ3jkIy9//7vvtvLYv/bX4OGH4Yd+CF72MrhlD7Onv/f3rKT29OmrG/dBEIEXvxj+8l+GZzwDXvMa8+08bCSPTcOxaFmVokD2kqLqq1teA7jREHf6FHXRs9uIhubayxS40RAdFoRRjnvkI5DJDPIMHRZUt4zmxuamlZW4RRJ7kOJjYyIvZVSzLWvjlWIWLI3AyJygkIKfBfzUSGPIo7VJJLFUShgJ1UhaAhu8ZUxcBdkUskkjMCIEdYhEGxXVTkwE5tUyRZBop2DvCWGU4bdDW+7bXldVE/awK5GNdcLaan0zCTcfUozujtFOTCjulGL0qGDZw51f3GPbj2MTTbCKgidflxElJCQkHICtLXjhC01Q5/Wvh0dfoQ79V3+1/Xze80xx9uu/fu/J5tOeZsuNwhd+Ifzoj1of6s2AlNk0HMnJZphM2t/d2pr1gw0H+2dMokIjmBojwyszFHe3nKa+y6JKekquMhrBZIrWNeIEHvtIwlphZW93xib/ZnhNP1R83fZSLajS7m3q1wzG7EkAU52MhvDLJpqLx7TsRVSmjMogs01PnQuhsIyJK7XdX4K266SmEzzZCzJPZtvrro2Eh0HW3cMVoEWOFkfy63oikWK0GczeMTpvZrn7mClGExISEhKuFV71KrhwAX7qp658ogmWrXvxi+E3f9PUZz/rs67dGK8WIvBdezkcHwJmMysvTpPNIwDJO9Kp5RKptFU923pk9opL+aLdyOI6d/ut6NY2qCJFQR1JbFeGt3C+RRLYvA5iypAt2Z3fTzRaIbSENL7hoyBQq2zZ209NiVIRpIpk3hF9O0HFoVmXJVFni50vDssLWWU2Cs3xliJmTBqi3K23DIspXErPb/BgSF7YZ9yuOOBeLuyrVXnNsmYJy5FitHeqVWO0UbbNXYrRFKMJCQkJ1xV33w1f+7VXL9bzznfaRBPgpS+9+nFda4QAf/RHJhp02BnOv/N3bDnpuPknmyImpx/Jo1ZRnKIlfsE8Ky+HqFwNiV3ctyGEp9aQ6O0YhgN3Ui0mAAAgAElEQVTqgfkILiOitpHsIoSNeuWudMnSDOWCaqTQZkxCFAdq99HOpN0F7YROhOjXZ2V56mMmxUlLZqVp25L4e6/1rCm/2+3/SfQf7a2L6qPNSLT3e3cD1LwPFyAHZcQW0fsuSJ5135mE64MUo1cWo81k1JFiNMVoQkJCwhVhNoP/8l/gC75g93PWPv7237blavF5nwdf+qXwAz+wtx/nYUIEXvQieMIT4A/+4LBHkwBXbn1yYyCCG43moseNRrjRqM2khOnUFCanK5pDSdMrtYSUHgA3GpmHHE3GQcwaYK2gXh9Q3XWa8u7TVLePzKqgUZDM+kSxI7emGKntIg1JDOxf/oZlQ8Ig+oNF9cv548bjBLrjAmHgqEaOemgT0pAJwVvGpFO1xAhx0fWLSWCBxNo2rRCR75aQO6o1s11prplGcXOve64m2KKL/WDOm/BI5pZ/ZsuM5ScVuodiZsI1RorRPXFgjEIsf00xmpCQkJBwZfjhHzZRnC/7MnjwweXbvPa11rN5LbCxYaqv9957bY53rSFi2cT/8B8O3wblpS+1kuOTjps/s9mHCDIamhpiWXWrhwMYXFl/12WdfjRE82wuG9ASM2fKkSFzVCMfPfN6+yqoWi+VqxezBc3PqBzZpjywrAQNQVUa8/Y5sY+mJ83FbVVBpSPK7SCa0jkjlSGP1gm5efTZayvbMzWTjrjWBeTb8+PWBdVJjdmSeuAIkWM3mZZAVMts78f8sWRSoVXFIsQJ3HbaTOD3QBhk1g9XK/UwQ2YVLpLeMB6n8rwbiRSjlxGjvWO2g0gxmjCPkMPkzoMfuqyfOfhYbvfHd1XbTcrVKMS58mCv0EthuNKxLrnVHlKUutqz9DXZnalfxHuqPdRPFvBgtXnwRkC94nP+aTj4/l7cXu2++Z3VzumX63/tQp0f/J0cnl3xi5RwVdjeNhXW//gfzYbk138dPv/zu/ff/W7LaP7oj95c/YzXE899Lrz85fCGN8ALXnB443jzm03596Tj5s5sLkNVWVleA1VkOET3ILLmS9dbCiuds6f4l3n5PdIaMkfIfaf8mgnBO+rCEQqhWnPUI0c9dG3pm/WSLZTtRWI6R+wiUW2Ja9DYh9VcVG+7Od+8OMxY5ReyaJ3Q+PMVQj0woho8VAPXlueZX590/WDSy6AQycfi5LUZRi970s8Q1YWjGto5Q8+uYemtLSv7bPuIFhY6yNuSxJDbgOz+x89AQL1lqaSON8F7JMsTiT0MpBhdOUbbctYUowkJCQkJV4Af+zF417vgLW+xPsWXvGT+X/BP/qRNeL7hGw5vjDca994Ln/RJ8O/+3eGO4/77kzgQHLXMpio6W/JUczhAh8ttFdS7bkod7Em/1LZCnPS93Fc6P1imJBRRYTIoVKElVppZBkJ7WQOJnnnGBAWcWkldXK1IS2btd1C0FSLZayxtuRzakuyWEItlQ/r9YhpL8sQSn9QDe88yJ5jCZTNunSeyftZkbFgqGtIv2Qsx62IPZQUJdhw3k972gjjQEEsTy2q+F0wE8R4ZDAgxY6Ii5n0Y1CYQXlry3pzfzeIxnLNesGViNQnXDylG58ayb4zSxKFrf08xmpCQkJCwClQta/mkJ9m/l3vugbe/3UpHnYOPfxy++Ivh/e83m5Lbbz/sEd84iFh28zWvgbKEvZzXridU02SzwdGabF4NAriyJjiPVME89S4za6KTKa5XGthlJhzlhp/LQDQKlw6NT/tBgqk9upmLhFqtXysoblp3JFQVaUrtViDaLfHtTyzFyHQ1lDbjod6IdVOWVw1jtiODegDVOkgJrgYqcKVlS1ypcQmxvywKjmgsQ4yletYXRuv7V+eWJZE6Zl2acTkjpABSK35SwXS2a5IieYYMB1FYpesna/vg+nD2gYRRZmQ2BMJkxXqghJsDJyxGm/GVaylGExISEhIuD//pP5ko0G//Njz72bZuc9MWsP7N06ft385J7Bt82cuslHY/0aTriQcegJ0deNSjDuf8NxNu7smmKmE8NtGP/TbLM8Ig6zIZtWUgQtbLmDgIA29P66sAkymXlzKBMJ7g6rrLcPRL7ZoytYasiWUafGnldX4ave9UUSedQEgkw31y5qb17tKyvdoj4rms/K8rlbOMh5jqZaztq4aCnxmRrQuoR5bhqIdQj5TgIcMySU4jkZ3ZdbhSrY+tKSlEY19Z0zgWhUqCkdZq2LNVUFpBE3oke9m17Hq95K+EinSk3+1+b9cxUpne9UOK0bnjL8UeMdoeN8VoitGEhISEy8RP/ATccQc885nL33/yk+G//lcrqT2sCddhYmPDfr7jHfZv5rM/+8ae/xOfsGzzF3zBjT3vzYibe7IJMXMwHyla1/PlXC7612XOCE4jcrFLHCNmKsr6ypQQNVh5WtObpbSWAq5UNDZiqbOyMz9T/MyIrFSKqzSSugURj8bnr0maZG6OfMmiWEmfvKpa2Voch/oeoW2yOtFPr9EaUB8FRwaR0A6VMLAMSKhBSomZDhuziwS8FT5pB46dK3N2zKia2ZQDNsRWNF5DLA00y4VIRpuPta5t6d+XakH5srFv0AUyu/gxZQ4yj3iPVpc3WUm4AqQYvbIYbbdNMZqQkJCQsDre/374nd+B7/3egwVoTuJEs48Xvxj+5E/gx3/cLFGu1FntcnHPPeZJmnAUJptLoLNZR/RkCVmNPVbLIFWAWYlOZ+iKhuW74Lpjq7PXfhKs/K0UZGhEM9sJ+FkgZIKL2RMry1PqYRTN6A9TjPSFos9EwY93K7oZeRTcLFAXrhNBkZ6ASEMmm0mnE+qhrQ+5kdhqPZLY3IhmKMW0WUpTpfMzG7M6mSPUzflCFj0A+yImXmh6x5oSRCP0dq+C64zr2+NNZ2g9Tzp1NiNcMq3uJhuyH4FtEHKPy7Pk33eISDF6cIwiNDa4KUYTEhISElaCqtmdZBl8y7cc9mhufrz2tdaz+q3fCm96E/zar11/f9Aq6uklJVrD0ZpshkCYTLrXIiAOHRVW4iZQDT2+6bXqiYX0IVVNvb1jKYLLRZ5RD7M20yEKGhRXBfykxk1K/NloZqSK5hnVHZutBUFTmuemtfn85fOPnBQgLNBwt0jWu0xKuZF1fWlxu7qQ1iohmyhIJ1M+uYPO6qBQ6qGigwBeobLeMVuUwaVAthOQKlgmwjVEWUzBM55PfUfIJVgPXHudFWSTYFmlWNrrKo1EuyHfoOPxUqEQEaFaz3Gz3dmPhtQufr72XYiWCgk3FilG4/UcHKON+m2K0YSEhISEg3D+PNxyi/1bfdvb4Gu/Fh75yMMe1c2PO+6A3/1d69/8nu8xT9Jv/ubre843vQm+/Mvt51Oecn3PdRRwtCabe0DKGqlC2w/WYE9z8qtBCLgyUDf9Wxpbm2rFX5rgLo3Ri5e6PiQR8q0dGBSEWzao16PRfeGtVG2BpKIaFTi7zEA98LgyLM8UNQQ2lsWBkWVXWg9aY+ngasVPIb9opXkhB81A8wBZJLLqTDgllsE1Fgku1tFVo6zr8WpESHzPJkIVV9r560K6Er+yy7wsws1qso89TL1oqdDIgDan6xP+ZrV2n3FjVu9m9vlIdQWTlITrhhSju2NUgg3O1aQYTUhISEjYha0t+K3fgle9yiaYH/+49SL+5m/Cp37qYY/u6MA58xh9zWush/N643d+x7qLnvSk63+uo4BjMdkkhE7M4yC0ghlXiOkMt1O2nn1AW45GsLHoeAIiuM0NM7IPGnvWzE+vG7dlR0Kvb00ai/iG9AWNZYBAn5v1xTwaEtvnt2rktXYgwbIh3oGfRBLbWCZkimSK+EAIgnrtiLHE7YJdY3/sErTtM2tKCwl2Tomc1M26ksQ5O4b4U9TUM8P5CyCuI/9L0B8TYXeZ3lypY9B5k6mEw0eK0V0xCnFMqilGExISEhJaXLwI3/md8Ku/CtvbNrH8ju/o2uY/4zMOd3xHESLw5jd3wkHXC6qWSX3GM2Bt7fqe66jgeEw2F7MIsovTtQiFQ/Ps8v37wMoBx2P82YuE4W2x7yuSqqDUpwZICOj9NSJCuPt2pncsV+n0ZYDSnvaHUZftsbFHMruoOaLdNvZTuh7N3j1o3g9eejYITfYEK1/LlVAoUgRcUeNcQEM8VrRdaFNCDVn2tCS1GrmOwGPEVrD3XRnwM4yoR5GWUDjzMuytkzIg09IUREdW2L6rTM/NC6uEXPDj+MH1sieu7onOJNx8SDG6NEY7gZ4UownLkY2V2//04L5WVx18b/1stfufba+mKLJ1fn8V6gbvuXTXgds8ZeMDKx1rUl5bw7z7q9MHbvNgtXlNz/mh8R0rbfeOBx574DazC6s1nw23VnuAl+2s9h0Znl+hMuFKe+4T+LM/g1e+0kplX/ACeOpTr+4ZbIKhmWj+/+y9e5gkWVnn/znnRERmVlXfhum5D8wwDLcRGHEYRQFBUa46LoKAuoCAiIguD7irCD9lXZV1FdgFYREQubgirHJTkIXlKshwEQYWBlGYGed+7emuqq68RJzz/v54T0RGVmV1ZXVX93R1n+/zxFNZEZERJyLrrfyeeN/3+923D0455eic48or4eqr4Td/8+gcfztiW0w2w2CAyQuMW+cLMFoV+K5VcmPjY/wp/+fsMCoqbtK/D8D2uuozd+cBODv+lRolkaHrsKNA6OTYc8+iPHM3kulkbxqr9nXJWdtioXU9U43ZY6YgFI5Ql/fF89fn8EUUCTEGXyh5FWfwudooDHdFC4VCCN1AVniy3ONcIARLcDGjUfds1aqaxP4ro1mQrC8qOBJFSNxQ77etBDsKja2FehaunTG4QUV2x0HYv6jXdPDg2psUMylu6LUkMghuIPE6tZeuXLD0bisnhFE2EidJ2HqkGB2vh1ljVC+/6poUowkJCQknOUTgc5+Dhz0MfuAHdMKSejK3Hu97HzztaXDFFXC/+2398f/u7/TnE56w9cferjjuBZFNXmxAYpUkmTC2LYBJcjexe24PWwfaFAWmyCFXv8CxZ1+rLym3yEKvJTYSx7Rqqctc7ShoNkHGS5vEGtEMS60MqRYKq8Yl4+u2ZZ2VkEbkI8RMiC/qPjHNgJAFXKYk1jTpj9a9MuPj2zLghqFlj2AwlRLYrB9w/dD0Ytk4Xjv0mDKoSmaQxvtQDw5hZw9O2fipslse6j1aBd8xrOy1+I5t7ncDazFFseGxE44cKUYPN0Zj1jHF6HbDW4FbgW+01r0CuAG4Ii6PX+e9jwW+DXwHSM+9ExISALjzTnjSk+DhD1ebDkgTzaOFhz1Ms8Svfe3ROf4Tnwivex2cffbROf52xCyMbtoX6x8B/wx8HXgfsLu17aXoF+m3gccc0eiMwTirJPZQ5LN+sr+K7DRktuY4Bu3hWo8UbwRnwTnIsii60R6D9iyJs4RubZYHjcH66sULJpK+umyt8bqD8e/R/4+g2cq6B63ePpEZEhpjes3WaGalLrmTrD1WMJlgrWBtJLJixsdrkViCjqteGtJcRYI7CNiRx1Z6TcbXSyTVdpJs1/DdDL9DS/NMlk2vERHBLq7ofaqHVmfJCkO5AOWCmxAn0c/dYJxbe7wTEylGa2yjGJ0YU4rR7YS3oZPG1XgNcHFcPjxluwNeDzwOuD/w9PgzISHhJMbll8P3fq9mxP74j5N66dHG3r1anvz2t2s57VbjoovUZiVhjFkY3bQv1o8B3wM8EPgXlLyCfnE+DbgovucN6Bfs4UGEMBgQBgP17Vtvt9wROo7QsU0mo+lhqslR+zWssSrYFMJaUiZG1RilqIlmi7SGtYtbKbEjP+6PQsmiq7MMXrMOdtRSuIxosirx2Mg4a+QGnqyvYiyjBUPVg3JOf4YMQhHFR/KAcSHeZoP3luANxsfsT+z3dAPBjaKtQk0Qg67TDEkkt87gBhVu6BvCu0ZsZT1IwO7aie2t7f8R7/E33owdVmPiLuB7lqqnx17Zq6V6k59RIAyGh1WKuQ2RYnQ1tkGMgvZVpxjddjH6GeBwKMql6EOeq4AR8FfAZVs4roSEhG2G175Ws5nGaAntS14y/ZlewtbiP/wH6PfhD/9wLLq0Ffj85+HDH97aY54ImOVbftoX60eBWgf/cuCc+Poy9At0CFyNfrEe8TMa0+kcstzKlL7pOTIyJobT+sGU4B5eJEt/gBxcQaKPYLuPy4haBJhKCLnDrVS4lUr7z4L2obnFEdmBIbZfjd9bl/hZgy8s5XyGOKjmHNV8puTYar+Z77pm/4aIi2Yvxr58SurK3tprbEruPNiRRcQQgqGqHFXlkMpiSy29axQqYz9Xtlzqz4MV2cFKFSozzUodqv+qEUipBUTqTJY1E3990h8g5WprhaDrvG9Ie32usqf2EMUS9E8XRm0iGz9jY83h+TRuP6QYrQ+3jWJUpvz3TTG6rfFCtJLgrcCeKdvPBq5r/X59XDcNzwO+DHy5HE3plU1ISDgh0OnAT/4kfPWrKaN5LPGAB+h9f/vbx8+Kb7vtyI553XXwlKdoVjM9MJjEVjxSfjbw9/H1Zr5MZ4bZ6FNr9Rghdamcmew/2gKYXhfyHLyPnnprySwiWpJWepX2j2WDYg3ScdG7T3u6JLPa3xW9MGslx3qpPf4ks801iTNgV5UHMiaTVc+qCq2oWbupxj1gE5+2gHhD8BYff+KNluO1l5rQetGMSBjfa1tJ83vdrxYyi+84fMfFTAuTGaz2uL1oKV89SVktPSoy7verQpMhAhrvwGJRNBPUkroSZ5HDLcM8MZFitN5+HMVoPZ4UoycE/idwAVpCexPwqiM83puAS4BL8mL+CA+VkHDSYaPe6A7w7rj9C8B5cf15QJ9x7/Ubj8bgPvMZeO979fXznqfej7t3H/o9CVuPv/5r+OQnIcv0eemDHwwPehC8+tVwyy2bO9add8JjHwtLS/D+9x+27MQJiyO9HS9Dsyf/6zDeO35yy3D9vTYisXUJVkvkQ6wSx0bso717LfRxGDCdjvamhaDESsa9WxPwAlVQTz9bl7xZQu4IvUxJVuwd87mWvtV9W+JMY9QeskhoI4EVO17qcjk9eD1AFeQQS0M0bcW4h7OtuilAabU0L2gGBW9aBDa+pykf1J4vAOIkwY6iKEogeg0apLCEjmZ4arLZzpoAjWCL2iygRHa9z7m+x1Vo1DdhTFyLpdBYRjRvyUyK9DFSjHL8xqgKeaUYPQFwC+qyGoA3M71a4Aag7WVxTlyXkJCwdZilN/o5wJ3AvdBe6z9sbfsu497r52/VoETgs5+F5z4XHvUo+P3f12ed7a+JhGOLPB+r0XoPL30pdLtaynz22Sr08/nPb3ycfh8uuwy+8x2daD7wgUd33NsRR/Jt/yzgicDPMaZSm/kyHT+5ZR2fKGO0R2izpKTOXkSEXJ/kA2RLI8zK4LD8n2QwLiMzPkwS5VgeJ1ZtAKSbEXoZIV/VDucFN6jG57d1xkTJd8jUqqDOoFTzjmrOKaG1rFnGxM7gO+Pet8bLUFSQJF8SuvvG4kG2MpiBJYwcYeTwI4vxaixfk19bSZO5aTJCUYwEwJYeW3qMD1TzGeWOnKqXNZYHutTZnzGBBSLZzZCO06yYtczSu1X39IUMsNDZX64txYxjleTxlWL0OI9RSDF6gqCtG/nvmBTrqvEl4ELgfKBAe6c/ePSHlpBwUmGW3ujLgLfH138N/CiTNR1bir/9W7jwQu3N/Ku/0mzmpz51oj1v294oCnjBC1QJ+Mor4T/+R7VG2b9ft193nQo5TXsO/q536YOEd75THyQkrMXh+mw+FvhPwA8DK631HwT+Eng1cBb6xfrFwx6dCKHfx3Y6M0XlmuxFhC1DQ4DsYl97uqqNTbJXw995AJNn2IV5Qi+bzECs3rebaXlbFYU70Cf/torCIJ1sUpijJnkiuDL2tcUeL3GAqI38RlARlDFxxOgxTNDj2BGYqla9tFRzvsmYUBlMZSYzJk1JXit7EUQzIdYoIY3EVbJxGZ6PY7A+Wj0EwY5Ejd0B2/drrRDWu6YgMCoxZYEprPbYxUyJHfg13xB25DFltbbk7+RCitHjPkb12L4gxej2wruARwKnomXovxN/vxj9RK4BfinuexbwFtQKpUL7Ov8Pmn15K/DNYznwhISTANNaRb7/EPtUwAHgbvH384GvAovAy4F/ONIB7d4N97gH/PZvq73JwsKRHjHhaOJ+94NXvhJ+7/fG6974RviDP4D73Aee8Qw47TQ4cECzoL/wC5rNvOSSu27MxztmmWxO+2J9KVrz/rG4z+VoucE3gfcAV6IB/CtoadHho36M4JwuUfhjNbT3KTS9VhOkVsCg5MusDAj9weGV6QWPcR1Mt6tleMY0x5XMIAGMdeoTKGC8ZhRqpmWr0PSJmcIh6zxIa3sRTtyKQ9Ra1GV11it5rUvW6vUYJbJupNtC0F4xRlbz23WPZ6sXbOp5JBJLpyS26jpCodmexmrCqFF9cDqebAAmGMQKUkrspYsZnNrovSyRQ8h3mcEIO+zg5/NxpskCtkW82xOLk8s0PsVojS2M0efe+HH29Xbwv+/58DWn2YoYXb3+aMTo8679P1y381Ted+EPphjdOjx9yro/W2ffG5n03Pww021R1oXxQn6w2nC/MEMPbL4y2+S+e8dsDxmq62fzSb3CnbvhPvsGs/WmnrOwf6b9OnbjewYwDBvToMWyO9OxMjPbv9Lv7Dt1pv2W7pzbcB/Tn01M3M747G6acNnU8/qN43e9/1HHMW4C7g7cAXwf8H5UuX1xyr7Piwu3baAs8/CHw8c/vqXjTDgGaDtz/cZvwD3vqYJCL3uZrnvIQ+DFL9Yy6DTRPDRmmWxu5osV4PfjsqUwtX/eehB9Il/lhz6OHFxRInu44+h0kLkuduQJzhCsqkqGXBmcWC2t69xZjgls9J8zpdelPyR0c0w7ayJM2AYYqQkyjSdfW0hlDakVzU6IBVP3hKFfMDb2UQVnsJHImgBuaAh9S8h1e5Mx8bQM3hmTwuiVqOIehmrO4Ts29q5pmWBNZMsFfW0rAeJxC3AjFQyB2A8Ws0hSVYdUpZSVFUyvA9LTDE1dqldYHXfM5Iw/qJOqCSLFaHscWxCju5fv5Mdu+Sr//gde0hy3U474la99iB+5/mtkIfDdnWfywh/6ZSSDp/7LZ/jpq/+RXaOD9F3BJ856EG+4/xPwtnU/VsVojb0HFvmtz/9v7rfvevb2F3ncM17ODbtPWROju1ZW+MTv/jeu2XMaz/6pX8UE4aJ91/Dcb32Uey/eQMDw9R3n8frzHs8dvV2IM7zrPj/MGz/3J7z/fj+A72QpRhMSEk50zNIqUu9zPcqDd6ETTIFGoOCf0P7Ne6PaBavxpriwd+/ebfvkLGE27NwJz3mOLlddpVnNiy9OX2Oz4nDLaI8pwmCAtRbT25wdYD1hm8CRlm0VOdIZP82t5hyjnRZb6v8aVaSEIpavGWe1/wuQXNUfLWivWCzdy1Y81ZxDwrjHS4hKnSOmZlDMtHpEgWygE8SmjBZwpWYo8hWoOpaqa6jmwBXaQ2a8ZjTqXjBbCbaWutCTTU40C0u5kFH1LFVHjdtDAdWcaTJWVQ+yqNgfck3MlF2DLSFfiscMQVVB5+f0nvQHSDndq1EGQ+xo/GjWldJEuR2NJ8igvWaSbUuz+G2LEy1GH33bP/OFU+/DoKO9qtmK5ze+/Tc4Aj//o7/OUjbHvfbf2MTo5069P39/1iUs5z12jFb4L1/9C5581Wd5zz0fseraxjFqozqsHQlfOvXe/OX5j+KNn3093X2BwsqaGH3pez/MVXtPx5XSxOiOYZ+/O/tS/um+F8Aw8CvXfphfv/r9/ObFv0C5kHFLr8M1u07joXdcycfu86AUowkJCSc62r3RN6C90T+7ap8PAs8EPg88GfgEyrT2ojZiHrhnPM5Vx2TUCdsG97znXT2C7Ydt0Z5sciWOMlhHEbPyWp636ql5LTiypegPsCsD7eeyhqpnGOxRtUrrwXohOMNoZ6YlgUHw3ayxGgiFa6k/xqGK4IYB1/dkB9UHsPblM16zQbblqacLY/ETqcvqVBjEDQJuqGQ060tj6m4qJYCuFOxIy/XcKHr2VaaxVJiY3LZf21bpbK6TTF+ol57vqCl9vYirFy3Vq7OpdnViJOjnGvqD9Xv06slHS22zvje+sDpBbpX0qJfiCePdty1wosXoJcvf5Wu7z29i9O7Lt/JDt1zJq+7zUyxXPcQbvrNwdvN3eHP3FFZsV/seQyBgOOfgHYeM0brEbEkW+MC5D+XbO9SBxlZrY/TB372ae990M3/zvQ/RN8U/9y+cdl8+fdoDWMm6DF3BB874fi5aunYiRr981r34oRu/lWI0ISHhZEC7N/pbaNvIN4HfBX4y7vNnaI/md4AXM7ZHeQTqlXsFKhz0fNZ6WCckJGwS2yKzCegT9vXQNoln3AtWC3DoL2BDAOcw1hx28kRGIzi4Qu3ZbYSJSaBaHkR7g8wgpf5EasVIweZq/G4EqAS8YAnqaReEaiHWGYbxdUntSlDbNDDeZvz4dbv9xNjxZFWPIWAsNjNju4UKTOT71ptxOe8qhEytIEKm1xNcVOSsrSByxj1aQmPhIFHWW1zsVysnD25EkOFQSeyheriiymadGbFVJMqta2mOeQTWGQlHgBMoRs8b3sZ183ubGL3vgeu4pbubZ3/7Y/zYrVdwR3cHb7vg0XzmtO9pruVHbr6CF3/r/cz7Ifvzed5wn8ePPS7Xi1FpPVBq/rZlQnHWjQKv+MD7+K2ffgr3u/7mQ8boA5av5ZqF0ydi9Oq7ncaPXPf1FKMJCQknC6b1Rv926/UAeMqU9/1NXBISErYQ22KyKeUIJMNk04fbmJgfAkYEO/SYPMcUhfYfHQbCYIAFbHkG3mVkK4G529S6oG0doBk/q030tfhJpv1jtqcZFxMEUwbc0BMKhx157MEhvrv2Oo22VTVWAaZlGu+GtfokiD0pVwEAACAASURBVHEqyBGzo7rdN2IppTVKbqtxj6b1hoBmXIyMy2/1RESTekvI7Crz+jF5DXldJqe/u3JSHMDnhmJJyAb1LKNm3oHQ72+KeBrRawuZ0azJSLMxTU/riWOnsG1wosXogh9wMO80MXrayn7uefAWPrfrfvzchb/KvXr7eOXX3s6/PeQ0rp0/DYBPnH4xnzjjYs5auZ3H3PQV9hc7mjFNjdHoO2q94IYeG6/XVDIRo8/4wj/w9bPvwZVnnMv9rrtZ7/eUGL3nyq38/HWf5GXf98yJGF0uOuwY9lOMJiQkJCQkJBxzbIsy2g0xKjGjDYipF9y+g4jfAnk0a9V/zhrsKFAseuwoUPXUs657wNNZ9PhCS/U0exAneWWgmssQZ6LVgNdjRcIoRUa2UmLLMFk2Ky31y3Y2CFSkJ7eYIGR9r+/10izErEq9j5bkatah3CX4jmCjWXydNREDtOxTpqpsSl0qV2dEdB1GX2crghsJ4gzzt3o6Sx43bIkc5RbprFWLsXNz07uuRRqSmvWFrC/4jiFfFtxo+8nenVTYZjG6lPXoyaiJ0UHRoTSOv7j7D1N2O3yzcy5X7Dqfh9z+L2ti9Ib5U7lmxxm86Mr3jy9tSow25bWtGAUmYvTU/gF+7p/+gT9+/OM0Rut9VsXoWf07eOXX386f3OeJfP2U88f3QWBhOGSp6KUYTUhISEhISDjm2BaZTQDxfq0BuAhjKf3JbWK0fMtFUUsTBLO4TGiZvm8WJi/GvUlxEma9QCWEwpL1w0RZYN2jVZfA1qQUwHecZh+ioXy2OFCCPF80JHLyekxzrbKK49lKvQLr+2DKoCbszT3SDIeqy45tCEwAt2JUACT6Ba577VVAnBufWwQTTGMsb0cG3409XwMtzw3O4EZCZznEMdZjQDO5PjRKl+MTTSewJssgc1p2OApkKx6xjnLeqgDS4X2kCVuIEylGr5o/g3MP3s6/zp2N5I6r5s8ABDvwlAvdmKGc/Fttx6glcFb/jmbbtBitBbjUk9I0npaGcQbyATdfy2mLi3zk1f8NBLpVSbcs+eg7X8FPXPb/AXB6/07++Io/4513fyQfO/PBa2L0/H238i+nnIUdkWI0ISEhISEh4Zhi+2Q2RQ4pu78GRq04tDdSCWQ4uIIMhodlFg9oRtFEe4e28EckY1k/4AahEQCqhXxCYcfm6KFeJFowWCVqsa8y5BZq0ikxW9KeZNrYYFUvTPaDQSTMPsQl9kZFUm2qOguj78sGYIdjcttMOGs+aeuxTE5yTSz/qyettYeX8eAGkVyLYEsoloOS2CiO0kxAvGBCwLTtMkSm9/7lWWOrYauggkojIWR67rbnlxFSmd5dgRMoRr94yr150L6rmhj9+s57cFu+i6fd8llwwkXL13Lx/qv48p4LMSI8/qYvsXu0jBi4x8qt/NxVn+Qrd7tXE6Ov/sqbeeY1Y6M1EwRDXLyQ+xFF9LAsRhWdcoQR+Nw59+XHn/9ynvTsl/Ck576E1z38sXxr79k8/adfTHCWU/sHePU/vYX3n/NQPnTGpVNj9Ptu/i7/eM59U4wmJCQkJCQkHHNsm8zmkcBUgu2XSL9/2H1gADIcYvICU+TYoSd0J5U0bRkgGHzPRv867Y0a7XB093l8YaHtgR0ncFkJo9PmMUFwg4qwSqGzyZhYFTCZIJRMyTK0jq/WDHUKxWCcZnh0oqmWJdbpOEI+OeFUQq7KndJ1kcjH8wa9vuB0fzcSwtDEiaf2m+Uroqq4Za2eKw3JdAOvZNMYTK+HLC83ma8wWOuxaIpiopyvLhX2Bczf4idK9MyogiP4nBOOPY63GP378y7hLZ/7H+RUjLKMUDpefvEz+PV/fi8/8w+f49bubv7rfZ/MdfN7AbjowLU8+6qP0fND9hcLfOqMB/Bn9/7xmDE1nDY8wDd23mPKgDVGP/KP/7lZ9Y7LXw3ADz75j5Ay487eTu2PNrBcdKms447eTvIV4QnXfYmz+/t45tUf55lXf7w+JI95wu9hAuxdWuT8/bfwyXt8T4rRhISEhISEhGOObTHZNJ0OeL8uCZXhCFNqViAbKGEUa1VtMk7OxFrNeGzVmGJ/lmmRs1rsIzvo2Xe/gs5+oVgO5CtBS8lGMbMY1TFtGbCjAEGFUSRai9h+RSgcONNMNGtRkxq2DBN2KLR7OltjrLMJ9Xub4zSldnGda/Vf1hNOg2ZmrAoTrVYOrUVMxBnKhVieK0RxEiWxWV8tHrLlshEXAs0k1cjn5zacZMhohOkPMblrCK1Y9SAUY7BVwIyC+iaOKqTy+nlLslc4FjjRYvRAZ4GPnvVgLvu3y3nf6Q+FIFybn8qvPuiXwJlxjKIPZf7bRU9u+q5rT1pbBrLSs3dlP3fm83xl9wWTMVr3X3rhxy/9z03lQsgs5Y58aox+4KJL+dD5l6qIj8Db7vtjvOOCR8eMpMQYG7/v5771Kd5+/x8hkOG7KUa3LbxsuItlSrZ5FfLF2U63MONH4oazWRcN9nc33Oema8+c6VjX7jx9pv2kO2OP8CGe124WpjPjjdu/tg96GqzfeHDFnbP9z+zdNlslgVvHvepwIDP+Oxe78XWmOoiEhO2LbTHZxHvEH+KfeDnCDFVUR2X2BXGyprdxtbDO4cB0O5i5OX1dBTCxFBbGPVde6O5T5cuyZymWA76j27IgSIjfb0KTKTCRCI/LWGsSbsbls/WmKOJTl8RmtxzA+IA4LR/0u3pIZicIiomHD4WLvnpjb716sVN4ZDMxdWZykhqhapORDFsggBXRMj0v42t0ZuK9Yoz2gwGyZydmaVn7/dYpw5RRGa8x9o3GSXaI39liTVN+nMrz7gKcgDH6lns/Fjtq+UYeZozeke3kJWc8jfym/RMximGCQR2NGH3dg36Ccs7GGI0PjFKMJiQkJCQkJBwjbIvJ5kZldVJWmFGpIjaZiz2L0mQEtwzGYLpdZKHXKFdKpsIeRmj1fAlzt5QcPCOnmlNT9qpT9z5a3DAg0dNPe7oEIVoheFHSamMZqx1nS0Cvp61SawclcsvtSAiYhXlMUcCuno41ZkTa/ZwhN4Q82pZkNMbuq+/VhI9fLQhixmMCGn/NUMRz2TF3zldiD1gk3SGzrHk0GSfDflcP1+1gRiWyXs+f9yCCxBLjOmslmb4WayDbPi3IJxpO9hj91MdeuvmxHtAfH/3i7xzWpf7A0/944rr15/QY7S0c5Hcf/5955ad+nVuXNDOUYjQhISEhISHhaGNbTDY3QugPMHMj/WUVWfJdp0/vtwim26Ha1RuvkHrSp/1hvrBIbrFlIGRQzRl8YXBDYdg1jHYY5m8RNVE3FslM4/NnvZaZYWKZW9bq0WyV1Lmh9kLZYQVf+zb0epgzT6M8e3e8IWB8ABFCN8eWXkl3nYlxdUbS4DsxI2nACqpMG8aehMbSiHtK3bMZl/4pUUEz3l47glDoNXcO+FgyrPfH53aczV0FqcWODjOrZeP9mDxoGA884S7HiR6jdwU2E6NPuPcncMbz6PM/yV9+42kpRhMSEhISEhKOCU6IySYAEsaG4S24gRIqABMVKDdjTj7z6WN/k5YHannawk0Vw75j8R5WMy5esziLd8/o3R7I+gLDoMKyXgjGYuqyvPZEs04GhDjRFCE70MfesUjIMkyRQ5ETMovrV+qNJ+NsaMgsxqG9oWXAViZ6cJpmolkbvdem942FQ6kZqFo11xeWsmcY7h5frwngC5102mEszYtlcrWap+t7vaYptgmaAZFDltaZTgeK2AdmTPNZ1+WLpvJashf76I7GZ5xwhDiRYzTiEY//Q9wwYH0guzPG6B37MPNzcPqpDM/c0cToq3a9GRPgxY/4RdrCPNV8RrXgGM1bhrsswz00MYrAt/7gxXqyGWN0d7afH7jHFwhieODZ/4+PXPkYFpd3pxhNSEhISEhIOOo4IWqajHOYLGsyDGrMruI1ptUXKTVhOgpQgkxTHijG4IZKVm0JIaMhhyGH4S7DaMHiO1GQI5LW4OIEsOXJOXEeS9N3RQiYXTsxOxYIc0W0kajL6WLW0aK9XDHjIVF0aGwg3xIEqn+vM5XVpLjQOBuqKra6Ee0BixmSbCB0DkyOWwxNdqm+JuvDuFQ3CGbnDux8j3Vhxxmk1ROWplS4Xp1I7HGHFKNTYpSYhdxkjLYxS4w++n4f5wvfvRRj4AtXXcqPXfCJFKMJCQkJCQkJxwQnxmSzyKFTILnVkrBKRT1sKVMJ2uGfyE4vI5Na8VIaEZG6Z8qNAp0D0mQNAUwFw92G0S5D1dVJYU1ma9hKs5D18Wt12FBYJbu9HNm5gJx+CtVpuyh3dfBdG7erZ6A42wiYYGmEUppxRI894+vfo+hQ/XulAi6S2WiNouP1HRrfzma88Tj5itC9vYx9YJP330Rje9OY2o83+lN3YhYWDn37pxD7ut9s/HsisccjTvgYbc4/e4zWpa6bjdGJ080Qo2fsuplPXPkorBE+9c+P5O6nXJti9MjwVuBW4Butde8GrojLNfHnNFwD/L+4/ctHcYwJCQkJCQnHBbZFGa3tdpGqQqoKOzdH6PcnnoybokDyo3gpxmB7Pcz8PNIptPfIQei4cblYQHsorYEOBJQw2lLYefWI2763gy/AifZaGVFCuHyuZe5mQ34wkK0E8hX12TReYv+kUFsp6GQw4HuOpT1zVN0Fqp4K9AAQIDvFka8I2TDg+gGxhqzvwUsr66Dk1ZbgRq2ezZH+3ihUokRcrKHc4Vg51apH3wjcQJoskBjwBXQOCPnBEI+vxB6r5wodhx16FWkRmlI6tU+ZoW9rGokNqqhJkEZt9AQgstsSJ32M1sMIs8eoZAYJUHXdpmK0wYwx+saPvQBjPT5Yhrft4M3/61fJxKcYPXy8DfgT4B2tdU9tvX4VjfzTVDwKuP0ojCshISEhIeG4w7aYbAKs678nQfuEVhHZpgQt9kIZEZXtPxyIEAZDsj27kUxl/UO2ljhJXkv+gzESszYCzlAsivrNOZBgsCPBVAbJNIMixhIy7QMr7hw1Sp2Zl6YkVpzBdyyjBctwt4mZF8H3tPbVBINbMXTutGQrFjcQugcC4kzsrawzO2A9uGHsjauzKH5csmeCRCVLS8gN5ZzFjSIBrv01DYgDn+vY3Cg0/WMqqKLnMjXZd0YTtLXdSyUqZDTrxxA9CBsrinjrQ2ExITQ2DQl3EU7mGI2wZZg5RquOwQRDNW83FaPN/dtEjNIRRAxuJClGjxyfAc5bZ5sBfgb4kWM3nISEhISEhOMX22eyaQ1YN9XLz2QZIW+ZS8fStIZk1n1gR6J8GDxkTo3n10FbldJIJGkxSdjZLwx3q/KlWMj6qO9dpVmPkIMXA8aSL1tM8FrOVpfYiUGs+u+Vc4bRTiWx1SkVbqHE2oAES7mSIVmO6xvcwIC1uAG4Ug3c6/sDY3Gf+ncTYm+VF+0FM+A7Fl+o558bSSSy4/vcCJeg2SA7UtVJLVWMapm1BUJLNMRU4948caYhvoeEMY1PXy2mYoKWDtoRUI/LqdhL6gs7xjiJY3R8AmaO0ZBr7Az2bC5Ga2wmRq0EgtgUo0cfDwduAf51ne0CfDT+/FPgTTMd1ZmN95lB0dkyW3xlB2fajbkZHw7lfbfhPm44W1dPubzxsUBVrmeBObRrk55z52zX6fr5bOec8d9cyDY+r8x2mY2P8EZYoxq97nk3Pt5wz2wUs1ia4YYcnhB2QkLCcYBZ/hO8FXgi2qPyPau2vQT4Y2AvWhZkgP8BPB5YAZ4FfGUrBmqcwxhDGAzWbswzxMX/uAHE2aZkq4HIoU3nZ4AUOTijpWFDj+9mmnGY9n8yCnoYH8BY5m8c4osu5QJg6zI9FRuxy0H7rAr9fbgnp3tH7AfzseHJOu0Hyw3lDkO5U6h2efKdQ3bv6NPN9Btzab7DYrdH1c8wfYvvWVzfkK0YiiVpyKgJSm6p+6liZinEDIst9XW5w+LzeM0jzZZgUE/CmhB7PaYbeOzINz1xjRpl/bpNlEc+ZmT0c3N+hm/8VTACdiSabXIGyvpzyrDZ9nmOsgVIMVof4q6K0eYmzB6joaMTseVz2VSM1thMjGbB62QzxejRxtOBdx1i+8OAG4DTgI8B/4xmSlfjeXFhVM4480tISEhISDgOMcu3/bT+FIBzgR8Hrm2texxwYVy+H/if8efRgwiSZ0huG6IUihaRjSTtaJzXBDV6X3eXrC6PC0AgGwrZShQEsQZbCvkoRGGd0JTIlfMW33GYUkVU6p5NMdq7ZfRwAHS7Jaf0VljIhxTWs9ztsK8zYmnQ4eBKh2FR4JYt1byhmjPkBw1uIGQDMH0hG9bldJq9yQ+GKBAC5e6MEC0i3KjOcOg4rJ8ks/mKXm8o6j6tSnu4Wv1ybfiO020h+oUCsnOejLOobrhx7b3s97GDeQgQOlnjHZoNlNw36p9WiSwnJpFdDylG1znvMYvR+nibiNEs9/hgGJ7mNxWjNYyX2WM0AxGTYvToIgOeBHzfIfa5If68FXgfcCnTJ5tvigtFPn/CpX8TEhISEk4ezFK38hlg35T1rwH+E5M08TKU8ApwObAbOPMIx7gxWr5wtvSxX2sVwQwceclWniGZln+Fwk346x0SdRYhaNYhX9bSteDqHifNloRc+8WKRY/vWMqdxcbHjrBG6LiKhWzI7m6fPXN9di70yXcN8Xsqyt2B0S6hXICqp8IndRmMCdprlvWDTgwyi+/WnoS6PWQmKngqaayzKG4YMzFh3G9WX/PYNmHKgONnJiYKkRiDdHJkYW7q9a1riSFQ9lTJ01Rh+rlOfKQYrbGNYjRznsyFzcdoxGZiNC89IibF6NHFo9FM5fXrbJ8HdrRe/ziTirYJCQkJCQknHA7X+uQy9Ant11atPxu4rvX79XHdEUFEIAT9uQFM6cFGUjjFnPyIxhFJrJ5oxv6HugQu9jYar6VxdR9WyFreeLn2XdlRIGR6DSF3E3YLbbVKGLcxWCNkJiiZzYfs7AzY1RuwMD+gWBjBjhK/I1AuCL4HvjCNvUItEmJLzWiKA19EcZXYcyV1b2bLqN1W0izGMybs0iKx9X0I6xBRoxYt9f2VzqGzHev5GiLMpph58iDF6LGMUeDgPeAZT38L97r7vwCyYYxmJuBs2HSM1thMjLoQCMGmGN0avAv4PHAfNH6eE9c/jbUltGcBH46vTwc+i8bkF4EPAR852oNNSEhISEi4K3E4dUxzwG+hT2WPBE1PSsnwkDvKcDhblZ0IdlAhVk3Nj0ppXn2eYUXoZDNnTkLhNGtSQjlnKOrMSczu+BxcqeSw3JnhhlqyV+3IyRdHSgytwa/SH+jkFSIGizCfDTlYdei5kswECluR2UCReQ4WBStWKE2OCQ47MtpHZWuyPbYmEKMkuoYJgvPomEIUSilM09OGQDaIqpZTyvGa+1W4mUQF1oX32GGlfXgtFAdV9CShQYrRYxyjAAfPg7ufew0/d87beezK3XjPdT/BV7lgaow+au+Duc/Ol5Obs/nIj+7n9f/yUd57zbdmjlFgUzHqJCDBpBjdGjx9nfXPmrLuRrQ/GuAq4EFHZUQJCQkJCQnHKQ5nsnkBcD7jjMk5qMDIpWgm5dzWvucw7lFZjaYnJadz2JTTdruqbAhaOtfLx9mAuxi29BBEe7tEyGLPV9U1KjySjcl2428JFPurWK6nVifZUsxmeu3fCnndF2bwwdDLVHVj32iO3AQyE7BWsCZgjeBMILOBEAwr/UyJaEfJc2NWH49f7nBxXDoWVwp2pEQx5FZfV4IJds1EwXcsjDR74bvas2WrABVKPrcwixUyS4iZnWLR44YnDJHdCqQYnRFbFaM1Kp/R7Qw5a9dNPH/hbdxWnsKHeCQr7hRAY/Thd7uUZ53/LArbAeCM3im87HuehDV/w3u+++0NY7TBJmLUEBCxKUYTEhISEhISjikOZ7L5/1AlvRrXAJegSpcfBF4I/BUqOnIAuOkIx7g+jMHs2okUsU8LCLmarde9TcfKQNxU6mdZy/3X46nHSdD1xgvWm8ZixNXDixxPnMGOPLY0KqJSuOZYdYZGop2BGGlX2BKiMkmIOzojFNYzl43wYlnJc1bygGTRUN6xJusTMi0VrJEvB1wsGQQaw/e6VE5VM2W8zRkCFluFWHqngkPrkliRNZYKJtc+OPFe7SwA2+tCR9fXxzZeKJYDbqj33nczPVdCitFpQznCGN21sJ/nPOFP2bNw5+SDFgOfeT6EDuS+bFZ33Yhz3c38gvwNi2EHH5bHMZQeP33uT9NxnYmxdV3BL1/4GD5w7Tc3jNEadUzOEqNZ5QnBpBhNSEhISEhIOKaYJb+wXn/KNHwYLRX6DvBm4AVHOsCNYOZ6SmStZuOksNqjNAi4wVEkNVEhFtAStKjgiohmS0S0H62eDdalcCH2WEk0bS+jiMdICZ1OJI1mHEZBxUlq5U4bCfCqCSpAwBDEEOLK+qeNWc3cqhiJzQIhiz1UZvIYUIuLaN8mBtwoROJoxj1dbaItQKDx5GsLvyhZHveVNV6KzXslli22neoNttfFFDnGjQ3ETK+HRCJrqtDc8+JANXGfmp6wLe4FPM6RYnTqibc2RvPK08mG5FlFnreWrCJ01huEIsMjMUbvVtxt6j6ndffMFKM1NhOjFvX4TDGakJCQkJCQcCwxS2Zzvf6UGue1XgvwK4c/nE3CWKRbNCTLjjyjU7qzK1Ae9nnNZE9S6/d2mZtktuF8vuOimmQFZPgujYG6GygBdAAGDp7dYe6WEQj4PJbpxYwExqgJdRQ0GVaOfpWTWU/XVXgx+HrCKZYghipYfNjguULsvdRSN0vIoFgMiAGf22abOBVKqeG7KvJSLPoxeZySqWqsE6whRIERW4U1WQ6xFnvKbti3H2GcJaJTrBUmCUyU5omh+RxcfsLZKhwKKUbXnHfrY3RxsJtX/c+XgYHRTtfE6MrpBZf/1a9z6w/DV16a45z2tw58wX6/gw9UP8rtvTPZIUO6tuL20R3s7Zy6Zsi3De489DXFGG0uKcweo36hrnxIMZqQkJCQkJBw7LC9v+0lYPYvYeY7SOGm7uJzi/NridWRnVc96nynFhRpkSmnRM2OPJK7ptfKDT3BWULHRqJX2woYfJemz8qWAQyNmEax5DUzUQbwhmrOTmQ7NBEqWKM9mtCaZIqlCpaVqmDoM4ZlRigdrqzLX/UnonYIduAZ7lFBFTcaWySYSBiNTHoWqpG8Zn98V3vF6jK9/t6CYn9FVrUyIjD291sPzhB2L2CWlqHfuuV5hkTVz9DJ8B032ffXyk4RQDKH6XSQ4aGFbRKOMk6WGI3IXMVwVHBgtJP3XP8TfMnel51nLHOmWWxi9D3XvZfnnv/MiVLagR/xp9/5yEwxWmMzMeqCEBhXRqQY3UYws6k2m+nhdViwfsaKg/7GuwBU3Y2LqNxgtv8B5fxsT6p2XDPb8YZ7Nj5eZ/9s5wwzMqpyfrb9uosbn3fpnn7DfQAwszXKz9pPXyxvPLZsxs9UZvnbTYUQCQnbFttusmmyDKkiERJBBkPMqMJk0/9DHpGy4qrzTh5Yy17NqrIz47WX0gQBr34E4mxDaAmCREGRukxOUPN4XWcwlTSk0A0DVc+BN9G2YPKft13tXwDNRHPkM0bBMfQZgyqj8hZKg6lMtCoZ98uJNdggZIOAL+zEF46JZXnB2abnrR5vczusDliI12QPcd/razBmaqZFMovxXvvBmkEYsJaQxXtpxp+tOKN9dvWYLJBn2IV5fCKyxxwnY4wCzP0b3HjT2XzqG4/iS+UDGewF7ubXxOjn7/gCIVh+6V6PITdnc+twP3/6nb/n7274BpXvbBij4+trXfsGMerwiNh4LaQYTUhISEhISDgm2H6TzaJQglMTsOEQU3otjdvo6a8xayZrs53UYIpizfEn+phqyLi/qS7XkxxCbjGVYL1QRX/B2lah5qK1GTsSxUt8VJjclWEr0/SRmUBjXRBW1SMGsU1Gc+AzyuAYeceocpSlw1QWW9Esxuv11cQzX6ww8xnl/HhiIMZgkLHVggimAlepFUPITUNeTeyDs1W8drPOfd/gs5JR2QiPjMfRIq/1cYFQGNwATAhN2WMoMtzCPNyx75DnSdh6nIwxCrBwDbz1nb/MaHeGOSs+HGJ6jH769i/zqNN/By+GF33lqQyqjFGVzxSj07BRjGKFIDbFaEJCQkJCQsIxxXFiQDA7wsrKmqfu0snx3WyNt1t7nyO6UpHJ884CYwiFo5rPGZxSNKV3vuOacqGQq9egG6lYylQfOgvDnTqha8RLPDr5LA1lFTOXPmcUMgY+wxolloMqZ2nYYVRl+GCRYLEDgxsa3FD9AkNmYtlcVJSMwkRGwA30p2SGquuir6CM76kxTUlvrZDrC0s1Zwlu3GPakM72MuV+rbsNMKMSOyhxQ48bVI0FRfMROfBdh+869QntZYQ9O5IIyV2AkzFGm0NuIkZFdCK62Rhtn2vWGLVWdNKbYjQhISEhISHhGGLbZTYb1ATFWkzpm0yFkid90h8KqxOnUJMvCzJjf8Oqc01kTVaTozaxjvAdB85MiHVInJSFTjRqD3VJn47blkpmQ2GxZcDEa5q/ucIN695NwQ1FyeiKZdjPGcxnZDYw8tr4UAbHsMrolxkihmGZMRrmVIsFRV8zDG6oCptZPxLoFkl3Q0/nTmkUZnEGk0WPvrbCpwFEs0OhMFTdMXF1ZSzjE1G1y/UmAS3blENBihwpsuY+qtiMEn9b6v3TXtOAHfnG9iHhLsRJFKPNMGKp6CwxWganJe/ebjpGATp3ljPHqBUto00xmpCQkJCQkHAssT0nmw2htJhOoeIJDSGKsv812SkjSTMGYw2yke7BIdQa29snLEhaaFfMiTWE2D8VnFGBjDYHFs1c1McJkfg2p4rXlC+VzfFMJbghZCvgO4bBcs7+7hyDIidzAWOEsnJUwVJVSmxHEh0p9wAAGi9JREFUw4zQz3AHLXZkmtI8E1R4SD306vFrOV07gyNeMEYg021G9D5IvN+1IEk9dhP0ujCAM7C21bQ5X61ZIKsJrXOTpX1mTJKxRnvZbHzPKBA6DslM/OyjfUtmsb0eod8/vNLMhMPHSRajze9eNhWjIob+sNhUjNbYTIxaI4RgU4wmJCQkJCQkHFNsz8lmhLEGs3MHIXdjpcN6W5wwNdkUY5QcVYdQWQTNjsCkQqKI9p21d7QGCWNSp+egGYfxorYgTnujQmEb8mZLUYIbJJLJWLJXWKqeJVtp+dCJ2kUoSbS4YSBfCSrCYQwhdwyrOQbdgOl4jBUkGAgG8UqczYrD9S1ZXzMMpukDQzOTbcJsVl0PsTRw5BsSLkZZvBgdM0YVaass7utVfMV3lNw6PIQWCdajjI8laGZGRO8pBtMpMIMcKUfjjyHeX4kll7VCo43nq1lxKGpxF0OxZzdSVhPHSTh2OFlitBlbkJljNFQWERgsdTYXoy3MGqPGBkTGarQpRhMSEhISEmbERRfB618Pj3zk5t/7rGfBOefA7/3e1o9rm2B7TjaNxdhITCPUMFz7gZpMADXpAuMMxrkmc7ceNpLhnyBTLh6rJoL1+jhh0xI8Ja1TBTdrIjby+MISCiW+xWKpipjOjG0PPBA8LghdEbK+o7NkKRYt5YJety9yQlEfO5LjDNzAKIENkC9DsSTkKwFbShQLiZzZqBehEc3O+J6DSLbd0GOifYSJY6/mnGZ+RoJYKEppVGxVRAXNXsRskRGarJWZyF7Fz4p4T31QUjpFEEWMwfeyiexTiD1gtXG871gl/UB17qm4gwfxB8qUOTmWONlitN69nD1GzdBigPzmfFMx2r6fG8Wo2eU568wbEG8Qb5kfDNi79xZuuOXcFKMJCQkJCQmz4JvfvKtHsD5uvlkJwpvfDM99rq57zWvgda+D22+HhQV46lPhj/4IVqv2HyNsO4Eg0GxJU9tVVpBZQsfpU/ophNFUa3urZj5XlmHymh2aNeRK6nUtElsrVpoguJFmOXyh/VShMEpao2qkGwXcMJCtePLFiuKAegNqf1NLuIM6I6H9W1nfky8HugcCxaJQHBA6B6A4AJ39UBwwZCuGzp2GYgmyPkSv+YZc1otOADK1VvChyaLYURj7CrKqJLH9lyM09gzNKjvOnjT3ZZoIzDRyaQ2UI6TUDJfpdMCNia2WXY7768ZEWbPALpYXhtzO5E+XsPU46WK0HssmYrQuld1sjLaxUYwW+Yin/dQ76HVWkGB4xEM+yYPv/6XmHClGExISTkA8Fvg28B3gN6ds7wDvjtu/AJzX2vbSuP7bwGOO7jATEo4QZQnXXquZ1zZ+8ifhK1+BxUX4xjfga1+D1772rhkj23SyWT9RN8ZAWbbITJv1tQhOkMMmskDs42plFMxaMtvOltTKmkaUyJm6N2piTFHsZyBRdMTjBp5sxbeOQyTI9Ylkgszq/oG8L2QDNcUuFoV8WcgOCtlByJf0HCpYIoQMQg5VR1U2Q1b3TsVxt2xVtP9sPPkci46MyxCb8rhY6jeR5Qkxo2TW3rP6etaD+NDYKpiiQOz4T1VLG+O9aBNaYxryjDE6WaizazMaWidsEU6yGB2faPYYNV4nm5uO0fZt3iBGV5bmufKfH8hF9/kaxgQufdDn+ewXx2VAKUYTEhJOMDjg9cDjgPsDT48/23gOcCdwL+A1wB/G9fcHngZchE5Y3xCPl3Cy47zz4P/+X339ilfAz/wMPOMZsGOHTvS+/OXxvl/9Kjz4wbrtqU+FwWDyWH/3d3DxxbB7N/zgD8LXv67r3/1uOP98nSAC/P3fwxlnwG23rT+uq6+Gs8+GU0+dXH/BBXp80O9xa+E73zn86z9CbM8y2prEAjIc6dN80af8vjZjN1qq5QaaNWFUHtappKq0h2w1EVun5G5a1ga01LTZLQjFMGCr0Cp7G7+3UZ6MxzOWpk8KiOWHAQv4jlUBEw/GG7oHAmWvztrEkrVCx2tLGO1Ce7Q6eo/ygxbX99gyRDN4aSab066vQQAXxy7GUPWclshlljBLpuIIy+VMFTBez+N7bnzMSGjFQdW1uI4j73axxQphcASTmYTN4SSL0fbxYbYYNR4MQn6QTcXoITElRv/x0w/nl375dQxHHb555QNY3LcHkx/6MECK0eMES0s33P7JT/7Wv61afSpw+10xni3Cdh8/bP9rOKLx3wW09R4z7ncpOryr4u9/BVwGXNna5zLgFfH1XwN/gn5jXBb3HwJXx+NcCnz+SAaecALigx+E974X/vzP4eUvhxe+EC6/HEYj+Kmfghe9SNd94APw9KfDb/yGvu+rX4VnPxv+9m/hkkvgL/5Cs5Df/rZOTD/4Qfi1X4NXvQqe8xx4y1tg797pY/jiF2FpCS68cPr2v/xLeP7zdZ9TT9Vj3kXYnpPNoL2BNZlVW4VAyFVAp5pziIN8KT51XxnC/sUtOXVdkue7DjucIt/vjPr0DSdJkxuFsRpnnMyJNUjhsCPfiJOYKqzN/mDGE04ZZy/EwGinlvOF3BAKyFYCbhiP7aIhfTCxRFYwoS4j1KyKOBrT97r0bQLTyPmqBIQRIetrtse7saBKW0FTsxwCviVA0j7XOhMDjMXebQ8hWyfrYbVXjUBD/t3QN8JFvmcJe3ZiqgqGw9QTdqxwksVojY9+8XdmH+hz9MeX3vGS2d8zDRvE6IEDe7j++nM4//yr+Ow/PFKzrylGtxOmMY0vA5cc64FsIbb7+GH7X8N2H/96OBu4rvX79cD3H2KfCjgA3C2uv3zVe88+OsNM2NZ42MPg8Y/X1//+38N//+/6+vLLtbT1RS/S78cnPxle/erx+970JvilX4Lvj3+Sz3wm/MEf6Pt++IdVhOiBD1Qhop/4CXjiE6ef33t4wQt0orlegudnf1aXf/1XeMc74PTTt+baDwPbsm5JvFcyK4KMRphRhfGh6bGqSZEdedxKiekPkeHWKh3W4ibrIWRW1Sit2irQKikbX8j4OKZS4qcZoHFJnOStj8iqOIk425QkWq/HsZVEJcuAHYZ4PC3b0xK+oEbzUYQE0W1NaSHrlNG1YVn3L6a2s2hbRLS3hcxMP74BaZFUI4IZeggxm2QNYWFuYp82xBi9z6syPrYMzfX5nR3M/Nyhry1hS3HSxuhdjXVi9OMfewyX/+PDWFrclWI0ISEh4cjxPHTC/uXbDlXmmHBi4owzxq/n5rRUtqrgxhu1rLX9XXqPVlL+3/5NM4y7d4+X667T94H+/pSnaJ/lSw7xIPoNb9BJ6SMeoSW5h8KFF2qp7wtesPnr3CJs08ymV6s2myFVhR2MMFUHyQwh+rfZSlSdcbmP9Pv6pMFughROU8SUqAzZIqBT94sqle3fzZQMgRHB+NAIlTSb6+ylU5LmKj0ngvY3icTMpcGWgs9VybIR9zGaxQw2EuRgsE7Lae1Qs5nGQzaUZjxttcvaGw/GE1BVxJwkp1MRRC0UbGs/iWTVe3Dqo9ieCIjT7Gt9H43343tqLNLLGzEWHRMTgSzRokJ9BfVe2yrgBhA6lmohxy10Vel0A1uNhC3CSRajj37Y7+k5VsdoZil3ZJRzel3WC907SsQYXnPKmxBjeNFjnxcfIhl8YTh4umtitLMYyA+qiJGpJJbjykT8zRKjt9xyNrfccrZeV4rRhISEExc3AOe2fj8nrpu2z/UoD94F3DHje2u8KS7s3bs3lWMkKM48E264oaniAVTA54IL9PW558LLXqbLNFxxBbz1rVp6+2u/Bh/5yPT9Pv5x+PSnodPR3/ft0xLdK66AP/mTtftXFXz3u0d2bUeA4+iR/ObR9IQdXMGulIg1LJ+VEXKD6wfs/oPIjbcQlpY3d2DrsL3e2vMNyqaEznfs2tR1u9+xFt44hD9erTTpu26NymQoHD5X5U7fdZrNdNobKc62LCSUuLmRUCx6NZ23en47VBVN9TIU3EjoHAh0DgjFkpANWqS1uSYIzlL1srhEBdHa7L4lotKIrkCTIbVefQapJ8cyJr2q9unG967Obg395H2akl1pZ0ZCVAJtPq5RnGRbmpJCUwlu4HGDQDVnqXZ2sQvzUz+LhKOHFKOHiFGh8eVMMZpidJN40109gCPEdh8/bP9r2O7jXw9fAi4EzgcKVPDng6v2+SDwzPj6ycAn0P+GH4z7d+L7LwS+ePSHnHDC4KEPVXuR175WH6C/973aW1njF38R3vhG+MIXlI8cPAgf+pD2VQ4G8PM/r2W1f/7nOml9wxumn+dtb4NvfUsnl1dcof2fv/M78Pu/r9vf8ha49VZ9feWV8MpXwo/+6NG99kNge2Y2WzDGwKjEDEe4YcAX6v2YrZTIDTc30vxi0cbdWfqBgif0+2vPNSoxVaH/hhgbk2tJakUoJgkW1kAQXBnwU0rtgjOqwhh959acL0R/v64bnyvuK9E/0A0DBWhGxyt5C7mlFuHQnk0wowBi6CxqH2etACrWEHLljlnf67/bVk8ohoZA19daIxvo/u1S3BpuEFZlX4gZJsaZVKZknJqLN5gsx/a6BDQLIk7tM2y0TTBBsKUndJwSXQNuGAgdp9kfLw0JD4XD7N4FBxZTT9gxRorRdWI0xkKK0RSjh4HtPlHY7uOH7X8N233866ECXgj8H1RJ9q3AN4HfRctePwj8GfBOVABoHzrBJO73HlRMqAJ+BUiqZQmzoyh0gvmLv6jCQY9/PDzpSePtl1yifpgvfKH2UvZ62v/5iEfAS1+qmc9f/mXd9y/+Ah71KPixH1srAlQrzbbPu3Mn7Nqlv3/uc5o9XV5WgaGnPAX+y385ete9Abb9ZLMNsYasD8WSxy0OCKNWD5iPfWSHgMky3UdkTHasw1ij60clVGOp1oa01k/8p7U8WkNwFhMimY7ZEVONyVRwUDvKN6V89TGdmRAFqo+p9gE05BWI5E0VMLUs1hAKO/bNrPQExtclflEkJFqW1AIh0tQQ0iK1UanWsK5oSLucT83itVRPWjvVBFZyC7EksL6XtaG8ZBZjLXa+h9mzeyLDZOJnI1k0hb9zBbOzhyzkhMKqb58bj1+swY7idc33UKWl9N1xVyHF6DhG9Rr0vSlGU4wmJCRsGT4clzZ+u/V6ADxlnff+flwSEsa45prx61e8YnLbeedNPiC95BItaV0Pj32sLqvxmtdM/v6gB2l57Cz41Kcmf//zP5/tfccI23ayaazR/q4oUoFVE/bOUqDYN8AcWEbaZV8SNnxabrJM39MiOiZmNfAeGZWYENa+T5goK1utGCuFVbJpDMHoduuDlvNZCEX8GOrx1f1jhrUKj0GgVpaNlgxqw9Aajw8NdZTMRMVJASwWtU8QCz4zuFpMqBE8MU1Wo7l1NYlt3z4Zr2/6xFaRXMmUfI57u5q34guLk6B9YAihcNpzWgqhyMicxfR6+FN36nui+XtdIinOQAnsX8RmDtNx0HGEIp4v9sBBVBkV8POF9oTN8LeQcORIMbpBjApAPZHc2hjduWM/P/24d7PQW0aAr3zlUr7wpR+i21vhyf/uXezedScHDuzhPR/4WfrlfIrR7YPHAv8Dzdi8Bfivd+1wDgvXAEtoxqhieyiivhV4InAr8D1x3SnAu4Hz0Gv6GdS78XjEtPG/AvhFoFa3+S3WTtASEhISjhjHTc+m6XQwdaPrpt9bIL0C3zEUByrcvmXC/gO6UaLx+AzEJQwGjUl5DSlHyHCovwyHEMVCsOO+IzsKEz1dYtDt9WLQvqpYZtfYADDONKyBTC4mMFbKDGNSGTpaOmdkUjSkhh346HcXjemr2B82CtihrjPxeL6jPWahXU5YZ13a44hj91073nedyzBV0FK+iZVM9IPRkGczXt/pQKdQMhp7z5r31QiCLB+k2tVFMqs+n3Gf2kS+Ic/WEHoZdmFeJycJm0aK0VU4jmNUKstHPvlEXvf2l/CWd/4KD7nk85y69xYe9oOf5uprLuD1b3gJV199AQ976KdTjG4fzGJWv13wKOBitsdEE+Bt6ES/jd8EPo729X08/n68Ytr4AV6Dfg4XkyaaCQkJRwnHzWQTNENRE9r2shGkLDErQ/IlT744gpU+UhvEb+LpuOl0mCZ8oRstYThUtUZaWYV279S6Bx4vYtXjTwna+L1tArYuIpl0Q+21CsXGhKwmuMYH7KDElAFTBWwZyFeqhnw3mZX2/VpNpMPafaaNV6KQSa2Y6zvTxxlyFSNpk04VY8k0S7W0THarei+aSjMfdV9ccctB8hv3YbqdJovS2Gq0YEeBkGk5sVij+ycie9hIMbo9YnR5eQc33ar2cMOyw223n8bOHYvc595X8rWvPxgxhq986/u4772/mWJ0+6BtVj9ibFafcPTxGbS3r43LgLfH128HfuqYjmhzmDb+hISEhGOC42qyCZHMrl6ybH2CCVFRMqgtQOkRHzRbslmso0rZ3t7YH9RP+DeLurfJmQl1y2YiFw3p25nChoy2SGl9rHos62VfxEaPu8xGU/XY9xWk6Ulr26jUHoJ1X1qTqVk1IbBtD8P2qU2rfLYem11nbAbtkYvXrD1qtVKnQFk1EwdieV62NCJbGmIPLCODIezZ1RDhJmtlae5vcx1Bs1tS+Y0/54RDIsXo9orR3Tv3ceYZN3L9DeeyML/M8sGdSGZY6u9kfm45xej2wTSz+u1oOC/AR4F/Qr0KtytOB26Kr2+Ov283vBD4Olpmu+cuHktCQsIJim3Rs2mKAsoKKQ9t+i6xzMtYA8ayWRGxjY4PjAU1Yl9XM8ZVr7UdS1RoA8akM/aK+cJqyZwXMOo5KAZ98h8zCCbuzyy8y9CIfLRL9UKhNgbGC/lEf5w0RLwmk27gqaxTIZQ49mlZJyMxG5G7SKKlWR+y2Ic1bcyHuA4xqCCJjAVJyDOkyNW+ITO4gxXu6pt1/+EQM9djdObuNY9MQlGnssAMogLo0OMOjpClJaQq1x9IwmEhxegMg18Vo/9/e3cXIlUZx3H8O7n24gtI6sZS0SaFUREVUUkSEvSCSBBEJVFCQdGV1UVkQS900btkENVFgYFtGSVJkJTteBX0smVaqemCUlJuXVTURZltF/8zzc66J3di5jxnZ74fWHbm7MD8znPO/7zsOed5hnfHoNDtrNGeGX9x/TXr2LR5GX8cPDa+r6FGx51kWqNqv8XE2IW9wPvATuLK21Q22a1AmTwPPELkfgR4GrglaSJJHel//Nu/LX4Efgd+Sh2kROZhe4xVxvY4BZifOkRBrNHDlXGd/FdPD5XVqzltaIhf167lAMDAAGevXMmukREO9vYyfc0aFi5fzpct+soytkcn1egiolOXK7P3q7Lfj6aJ0xIPAb8BT6UOMgn9wDvUO9jZBSwhrm72AVuAhWmiTcr4/JP9m47sR2DfET5Tpu2jWfKVKc9UyzIl9refpg5QMrZHI9sjPZdBo9K2x+golcFBXqlWeWbs9GqVJ6vV6MikWuXewUGeaOHXlrY9OkQP8bxmbbD6L4CzkiZq3kxg9pjXHzJxxzVl1A8N/5h5knqnQPdCS2upHcbn7xvz+i7iGWC1T5m2j2bJV6Y8HZNlStxGK0mavC1buKRS4SZge7XKVoDRUe47dIjHenpYX61yK7Dvzz+5Lm1SNSFvsPqp5ARgQ/a6B3gV2JQuzqQNEFcx5xHPyj5IDDuzHqKWoNS1NFH+JUQvtKPE0C23J0snSQUp0xl8GdgejWyP9FwGjWyPRraHJE2sTNtHs+QrU56OyVK2/uWHUgcoGdujke2Rnsugke3RyPaQpImVaftolnxlymMWSZIkSZIkSZIkSeoaVxFdiO+h3rNbt9kLbAe2Ur8v+nhiDLLd2e9OHnD5ZWCExp7y8ua/AjxLrC/bgPOLi9m1rFFr1BqVpOal3n82s+1ut5OBKvA10bnZyoR5jgU+Jnr1/gp4OJt+KvARsbxeJ3r+Lso04HNiGKLUWTrqmGcaMAwsoN6V+5lJE6Wxl+glbqwnaOxW/fFCExXrUuKAdOzGMG/+lwLvEge0FxOFqPaxRoM1ao1KUjPKsP9sZtvdbn3U//k4G/iGaI8UeSrArOz1dGI/dTHRw/QN2fQXgDsKyFJzN9FDd+1kM2WWjjrmWUR0416zivpA1d1kooW6i/o4WH3Z+042fgywvPl/EVie8zm1njUarFFrVJKaUZb952S33UV7G7i8BHlmAJ8BFwE/UR8Wcvzya6eTgA+Ay4iTzUrCLNDiY56jWhTq/zoR+HbM+++yad1mFHiP6OnptmzaCcD32esfsvfdJG/+XWeKZXsHa/Rw1qgk5SvrtrAM+65+4DziimKqPNOI20RHiNtCh4GfiTGNodjl9QxwD/B39n5uwizQ4mOeniN/RAVYDOwHeokVfue4v49mP92q2+df6Vmj/63b51+SpqIU2+5ZwJvAncCvCfMcAs4F5gAbgDMK+t7xlhEnvEPAkkQZxmvpMU/qK5v7iQeGa07KpnWb2jyPECv8hcABGi9XjyTIlVLe/LvOFMv2Dtbo4axRScpX1m1hyn3XdOJEcx3wVgnyQFxBrBK3qs6hfiGuqOV1CXA1cevqa8SttGsSZalp6TFP6pPNT4DTiR6XjiYehN2YNFHxZhIPStdeX0HcW78RWJFNX0Hc295N8uZ/I3Az9c5HfqF+WV+tZ41ao3msUUnKV9b9Z6p9VwV4CdgBrE6cZz5xMgdwHPHs6A7ipPPagrOsIk4m+4l1ZBC4MVEW6NBjnqVEj1TDwP2Js6SwgOihrNb9cq0N5hIPC+8GNhNdDneqAeJg9CBxX/qt5M9/BXiOWF+2AxcUHbYLWaPWqDUqSc1Lvf9sZtvdbouJWy+3Ec9KbiXaJ0Wec4hhRrYRJ1IPZNMXEEOi7AHeAI4pIMtYS6j3Rpsqi8c8kiRJkiRJkiRJkiRJkiRJkiRJkiRJkiRJkiRJkiRJkiRJkiRJkiRJkiRJkiRJkiRJk/EPoTKRqkkaRrQAAAAASUVORK5CYII=;" parent="1" vertex="1">
          <mxGeometry x="101.97" y="620" width="586.03" height="160" as="geometry" />
        </mxCell>
        <mxCell id="pt6QbWdC-NO7s24zDjeB-1" value="" style="group" parent="1" vertex="1" connectable="0">
          <mxGeometry x="89" y="867" width="670" height="276.46000000000004" as="geometry" />
        </mxCell>
        <mxCell id="pt6QbWdC-NO7s24zDjeB-4" value="" style="rounded=1;whiteSpace=wrap;html=1;fillColor=#d5e8d4;dashed=1;dashPattern=1 2;strokeColor=#82b366;" parent="pt6QbWdC-NO7s24zDjeB-1" vertex="1">
          <mxGeometry x="10" y="-44.47" width="530" height="149.93" as="geometry" />
        </mxCell>
        <mxCell id="pt6QbWdC-NO7s24zDjeB-5" value="CT-PET of prostate&lt;br&gt;[32*32*32]" style="rounded=0;whiteSpace=wrap;html=1;fillColor=none;" parent="pt6QbWdC-NO7s24zDjeB-1" vertex="1">
          <mxGeometry x="21" y="-12.173333333333332" width="129" height="46.13333333333333" as="geometry" />
        </mxCell>
        <mxCell id="pt6QbWdC-NO7s24zDjeB-6" value="Dose by MC&lt;br&gt;[32*32*32]" style="rounded=0;whiteSpace=wrap;html=1;fillColor=none;" parent="pt6QbWdC-NO7s24zDjeB-1" vertex="1">
          <mxGeometry x="21" y="45.49333333333334" width="129" height="46.13333333333333" as="geometry" />
        </mxCell>
        <mxCell id="pt6QbWdC-NO7s24zDjeB-7" style="edgeStyle=orthogonalEdgeStyle;rounded=0;orthogonalLoop=1;jettySize=auto;html=1;entryX=0;entryY=0.5;entryDx=0;entryDy=0;" parent="pt6QbWdC-NO7s24zDjeB-1" source="pt6QbWdC-NO7s24zDjeB-6" target="pt6QbWdC-NO7s24zDjeB-9" edge="1">
          <mxGeometry relative="1" as="geometry" />
        </mxCell>
        <mxCell id="pt6QbWdC-NO7s24zDjeB-8" style="edgeStyle=orthogonalEdgeStyle;rounded=0;orthogonalLoop=1;jettySize=auto;html=1;exitX=1;exitY=0.5;exitDx=0;exitDy=0;entryX=0;entryY=0.5;entryDx=0;entryDy=0;" parent="pt6QbWdC-NO7s24zDjeB-1" source="pt6QbWdC-NO7s24zDjeB-5" target="pt6QbWdC-NO7s24zDjeB-9" edge="1">
          <mxGeometry relative="1" as="geometry" />
        </mxCell>
        <mxCell id="pt6QbWdC-NO7s24zDjeB-9" value="" style="editableCssRules=.*;shape=image;verticalLabelPosition=bottom;labelBackgroundColor=#ffffff;verticalAlign=top;aspect=fixed;imageAspect=0;image=data:image/svg+xml,PHN2ZyB4bWxucz0iaHR0cDovL3d3dy53My5vcmcvMjAwMC9zdmciIHhtbG5zOnY9Imh0dHBzOi8vdmVjdGEuaW8vbmFubyIgd2lkdGg9IjIwIiBoZWlnaHQ9IjE3LjUiIGZpbGwtcnVsZT0iZXZlbm9kZCIgdmlld0JveD0iMCAwIDIwIDE3LjUiPiYjeGE7CTxzdHlsZSB0eXBlPSJ0ZXh0L2NzcyI+JiN4YTsJLnN0MHtmaWxsOiM0Mjg1ZjQ7fSYjeGE7CS5zdDF7ZmlsbDojNjY5ZGY2O30mI3hhOwk8L3N0eWxlPiYjeGE7CTxwYXRoIGNsYXNzPSJzdDAiIGQ9Ik0xOC45MSAxMC42M0wyMCA4Ljc1IDE3LjgyIDVoLTMuMDdsLTEuMDYtMS44NkgxMi41VjEuODhoMS45NGwxLjA2IDEuODdoMS41OUwxNC45IDBoLTQuMjd2NWgxLjczbC43MyAxLjI1aC0yLjQ2djIuNWgyLjI2bDEuMDUtMS44N2gyLjgxbC43MiAxLjI1aC0yLjhMMTMuNjIgMTBoLTIuOTl2NC4zOGgzLjRsLS43MiAxLjI1aC0yLjY4djEuODdoNC4yN2wzLjI4LTUuNjJoLTIuMDlsLS43MyAxLjI1SDEyLjV2LTEuMjVoMi4xNGwuNzQtMS4yNXoiLz4mI3hhOwk8cGF0aCBjbGFzcz0ic3QxIiBkPSJNMS4wOSAxMC42M0wwIDguNzUgMi4xOCA1aDMuMDdsMS4wNi0xLjg2SDcuNVYxLjg4SDUuNTZMNC41IDMuNzVIMi45MUw1LjEgMGg0LjI4djVINy42NGwtLjczIDEuMjVoMi40N3YyLjVINy4xMUw2LjA2IDYuODhIMy4yNWwtLjcyIDEuMjVoMi44TDYuMzggMTBoM3Y0LjM4SDUuOTdsLjcyIDEuMjVoMi42OXYxLjg3SDUuMWwtMy4yOC01LjYyaDIuMDlsLjczIDEuMjVINy41di0xLjI1SDUuMzZsLS43NC0xLjI1eiIvPiYjeGE7PC9zdmc+;fillColor=none;" parent="pt6QbWdC-NO7s24zDjeB-1" vertex="1">
          <mxGeometry x="233" y="10.89333333333333" width="55.56" height="50" as="geometry" />
        </mxCell>
        <mxCell id="pt6QbWdC-NO7s24zDjeB-10" value="voxel-wise dose value" style="rounded=0;whiteSpace=wrap;html=1;fillColor=none;" parent="pt6QbWdC-NO7s24zDjeB-1" vertex="1">
          <mxGeometry x="321" y="12.829999999999998" width="80" height="46.13333333333333" as="geometry" />
        </mxCell>
        <mxCell id="pt6QbWdC-NO7s24zDjeB-11" value="" style="edgeStyle=orthogonalEdgeStyle;rounded=0;orthogonalLoop=1;jettySize=auto;html=1;" parent="pt6QbWdC-NO7s24zDjeB-1" source="pt6QbWdC-NO7s24zDjeB-9" target="pt6QbWdC-NO7s24zDjeB-10" edge="1">
          <mxGeometry relative="1" as="geometry" />
        </mxCell>
        <mxCell id="pt6QbWdC-NO7s24zDjeB-12" value="Post-therapy: voxel-wise prediction" style="text;html=1;strokeColor=none;fillColor=none;align=center;verticalAlign=middle;whiteSpace=wrap;rounded=0;fontStyle=1" parent="pt6QbWdC-NO7s24zDjeB-1" vertex="1">
          <mxGeometry x="13" y="-46.77333333333333" width="220" height="34.6" as="geometry" />
        </mxCell>
        <mxCell id="pt6QbWdC-NO7s24zDjeB-23" value="3D U-Net" style="text;html=1;strokeColor=none;fillColor=none;align=center;verticalAlign=middle;whiteSpace=wrap;rounded=0;" parent="pt6QbWdC-NO7s24zDjeB-1" vertex="1">
          <mxGeometry x="229" y="60.486666666666665" width="60" height="34.6" as="geometry" />
        </mxCell>
        <mxCell id="pt6QbWdC-NO7s24zDjeB-24" value="" style="rounded=1;whiteSpace=wrap;html=1;fillColor=#d5e8d4;dashed=1;dashPattern=1 2;strokeColor=#82b366;" parent="pt6QbWdC-NO7s24zDjeB-1" vertex="1">
          <mxGeometry x="10" y="126.53" width="420" height="149.93" as="geometry" />
        </mxCell>
        <mxCell id="pt6QbWdC-NO7s24zDjeB-34" value="Dose absorded by prostate" style="rounded=0;whiteSpace=wrap;html=1;fillColor=none;" parent="pt6QbWdC-NO7s24zDjeB-1" vertex="1">
          <mxGeometry x="441" y="12.830000000000041" width="80" height="46.13333333333333" as="geometry" />
        </mxCell>
        <mxCell id="pt6QbWdC-NO7s24zDjeB-35" value="" style="edgeStyle=orthogonalEdgeStyle;rounded=0;orthogonalLoop=1;jettySize=auto;html=1;" parent="pt6QbWdC-NO7s24zDjeB-1" source="pt6QbWdC-NO7s24zDjeB-10" target="pt6QbWdC-NO7s24zDjeB-34" edge="1">
          <mxGeometry relative="1" as="geometry" />
        </mxCell>
        <mxCell id="pt6QbWdC-NO7s24zDjeB-36" value="Sum" style="text;html=1;strokeColor=none;fillColor=none;align=center;verticalAlign=middle;whiteSpace=wrap;rounded=0;" parent="pt6QbWdC-NO7s24zDjeB-1" vertex="1">
          <mxGeometry x="389" y="11" width="60" height="30" as="geometry" />
        </mxCell>
        <mxCell id="pt6QbWdC-NO7s24zDjeB-25" value="CT-PET of prostate&lt;br&gt;[32*32*32]" style="rounded=0;whiteSpace=wrap;html=1;fillColor=none;" parent="1" vertex="1">
          <mxGeometry x="120" y="1025.8266666666668" width="129" height="46.13333333333333" as="geometry" />
        </mxCell>
        <mxCell id="pt6QbWdC-NO7s24zDjeB-26" value="Dose by MC&lt;br&gt;[1]" style="rounded=0;whiteSpace=wrap;html=1;fillColor=none;" parent="1" vertex="1">
          <mxGeometry x="120" y="1083.4933333333333" width="129" height="46.13333333333333" as="geometry" />
        </mxCell>
        <mxCell id="pt6QbWdC-NO7s24zDjeB-27" style="edgeStyle=orthogonalEdgeStyle;rounded=0;orthogonalLoop=1;jettySize=auto;html=1;entryX=0;entryY=0.5;entryDx=0;entryDy=0;" parent="1" source="pt6QbWdC-NO7s24zDjeB-26" target="pt6QbWdC-NO7s24zDjeB-29" edge="1">
          <mxGeometry relative="1" as="geometry" />
        </mxCell>
        <mxCell id="pt6QbWdC-NO7s24zDjeB-28" style="edgeStyle=orthogonalEdgeStyle;rounded=0;orthogonalLoop=1;jettySize=auto;html=1;exitX=1;exitY=0.5;exitDx=0;exitDy=0;entryX=0;entryY=0.5;entryDx=0;entryDy=0;" parent="1" source="pt6QbWdC-NO7s24zDjeB-25" target="pt6QbWdC-NO7s24zDjeB-29" edge="1">
          <mxGeometry relative="1" as="geometry" />
        </mxCell>
        <mxCell id="pt6QbWdC-NO7s24zDjeB-29" value="" style="editableCssRules=.*;shape=image;verticalLabelPosition=bottom;labelBackgroundColor=#ffffff;verticalAlign=top;aspect=fixed;imageAspect=0;image=data:image/svg+xml,PHN2ZyB4bWxucz0iaHR0cDovL3d3dy53My5vcmcvMjAwMC9zdmciIHhtbG5zOnY9Imh0dHBzOi8vdmVjdGEuaW8vbmFubyIgd2lkdGg9IjIwIiBoZWlnaHQ9IjE3LjUiIGZpbGwtcnVsZT0iZXZlbm9kZCIgdmlld0JveD0iMCAwIDIwIDE3LjUiPiYjeGE7CTxzdHlsZSB0eXBlPSJ0ZXh0L2NzcyI+JiN4YTsJLnN0MHtmaWxsOiM0Mjg1ZjQ7fSYjeGE7CS5zdDF7ZmlsbDojNjY5ZGY2O30mI3hhOwk8L3N0eWxlPiYjeGE7CTxwYXRoIGNsYXNzPSJzdDAiIGQ9Ik0xOC45MSAxMC42M0wyMCA4Ljc1IDE3LjgyIDVoLTMuMDdsLTEuMDYtMS44NkgxMi41VjEuODhoMS45NGwxLjA2IDEuODdoMS41OUwxNC45IDBoLTQuMjd2NWgxLjczbC43MyAxLjI1aC0yLjQ2djIuNWgyLjI2bDEuMDUtMS44N2gyLjgxbC43MiAxLjI1aC0yLjhMMTMuNjIgMTBoLTIuOTl2NC4zOGgzLjRsLS43MiAxLjI1aC0yLjY4djEuODdoNC4yN2wzLjI4LTUuNjJoLTIuMDlsLS43MyAxLjI1SDEyLjV2LTEuMjVoMi4xNGwuNzQtMS4yNXoiLz4mI3hhOwk8cGF0aCBjbGFzcz0ic3QxIiBkPSJNMS4wOSAxMC42M0wwIDguNzUgMi4xOCA1aDMuMDdsMS4wNi0xLjg2SDcuNVYxLjg4SDUuNTZMNC41IDMuNzVIMi45MUw1LjEgMGg0LjI4djVINy42NGwtLjczIDEuMjVoMi40N3YyLjVINy4xMUw2LjA2IDYuODhIMy4yNWwtLjcyIDEuMjVoMi44TDYuMzggMTBoM3Y0LjM4SDUuOTdsLjcyIDEuMjVoMi42OXYxLjg3SDUuMWwtMy4yOC01LjYyaDIuMDlsLjczIDEuMjVINy41di0xLjI1SDUuMzZsLS43NC0xLjI1eiIvPiYjeGE7PC9zdmc+;fillColor=none;" parent="1" vertex="1">
          <mxGeometry x="328" y="1048.4833333333333" width="55.56" height="50" as="geometry" />
        </mxCell>
        <mxCell id="pt6QbWdC-NO7s24zDjeB-30" value="Dose absorded by prostate" style="rounded=0;whiteSpace=wrap;html=1;fillColor=none;" parent="1" vertex="1">
          <mxGeometry x="430" y="1050.83" width="80" height="46.13333333333333" as="geometry" />
        </mxCell>
        <mxCell id="pt6QbWdC-NO7s24zDjeB-31" value="" style="edgeStyle=orthogonalEdgeStyle;rounded=0;orthogonalLoop=1;jettySize=auto;html=1;" parent="1" source="pt6QbWdC-NO7s24zDjeB-29" target="pt6QbWdC-NO7s24zDjeB-30" edge="1">
          <mxGeometry relative="1" as="geometry" />
        </mxCell>
        <mxCell id="pt6QbWdC-NO7s24zDjeB-32" value="Post-therapy: organ-based prediction" style="text;html=1;strokeColor=none;fillColor=none;align=center;verticalAlign=middle;whiteSpace=wrap;rounded=0;fontStyle=1" parent="1" vertex="1">
          <mxGeometry x="112" y="991.2266666666667" width="220" height="34.6" as="geometry" />
        </mxCell>
        <mxCell id="pt6QbWdC-NO7s24zDjeB-33" value="3D ResNet18" style="text;html=1;strokeColor=none;fillColor=none;align=center;verticalAlign=middle;whiteSpace=wrap;rounded=0;" parent="1" vertex="1">
          <mxGeometry x="314.78" y="1098.48" width="82" height="34.6" as="geometry" />
        </mxCell>
      </root>
    </mxGraphModel>
  </diagram>
  <diagram id="GwvH_QSx6OwStmZ5F7HX" name="Specific-treatment">
    <mxGraphModel dx="1270" dy="751" grid="1" gridSize="10" guides="1" tooltips="1" connect="1" arrows="1" fold="1" page="1" pageScale="1" pageWidth="827" pageHeight="1169" math="0" shadow="0">
      <root>
        <mxCell id="0" />
        <mxCell id="1" parent="0" />
        <mxCell id="4xiStDwNxjF1E1v_tIgF-1" value="" style="rounded=1;whiteSpace=wrap;html=1;dashed=1;dashPattern=12 12;fillColor=#f5f5f5;movable=1;resizable=1;rotatable=1;deletable=1;editable=1;locked=0;connectable=1;strokeColor=#666666;fontColor=#333333;" vertex="1" parent="1">
          <mxGeometry x="30" y="31" width="770" height="163" as="geometry" />
        </mxCell>
        <mxCell id="4xiStDwNxjF1E1v_tIgF-2" value="" style="rounded=1;whiteSpace=wrap;html=1;dashed=1;dashPattern=1 2;fillColor=#d5e8d4;strokeColor=#82b366;" vertex="1" parent="1">
          <mxGeometry x="650" y="44" width="140" height="137" as="geometry" />
        </mxCell>
        <mxCell id="4xiStDwNxjF1E1v_tIgF-3" value="" style="rounded=1;whiteSpace=wrap;html=1;fillColor=#dae8fc;dashed=1;dashPattern=1 2;strokeColor=#6c8ebf;" vertex="1" parent="1">
          <mxGeometry x="40" y="44" width="440" height="137" as="geometry" />
        </mxCell>
        <mxCell id="4xiStDwNxjF1E1v_tIgF-4" value="" style="rounded=1;whiteSpace=wrap;html=1;dashed=1;dashPattern=1 2;fillColor=#fff2cc;strokeColor=#d6b656;" vertex="1" parent="1">
          <mxGeometry x="491" y="44" width="140" height="137" as="geometry" />
        </mxCell>
        <mxCell id="4xiStDwNxjF1E1v_tIgF-5" value="Imaging data" style="rounded=0;whiteSpace=wrap;html=1;fillColor=none;" vertex="1" parent="1">
          <mxGeometry x="50" y="104" width="80" height="40" as="geometry" />
        </mxCell>
        <mxCell id="4xiStDwNxjF1E1v_tIgF-6" value="Diagnose" style="whiteSpace=wrap;html=1;rounded=0;fillColor=none;" vertex="1" parent="1">
          <mxGeometry x="150" y="104" width="80" height="40" as="geometry" />
        </mxCell>
        <mxCell id="4xiStDwNxjF1E1v_tIgF-7" value="" style="edgeStyle=orthogonalEdgeStyle;rounded=0;orthogonalLoop=1;jettySize=auto;html=1;" edge="1" parent="1" source="4xiStDwNxjF1E1v_tIgF-5" target="4xiStDwNxjF1E1v_tIgF-6">
          <mxGeometry relative="1" as="geometry" />
        </mxCell>
        <mxCell id="4xiStDwNxjF1E1v_tIgF-8" value="Therapy plan" style="whiteSpace=wrap;html=1;rounded=0;fillColor=none;" vertex="1" parent="1">
          <mxGeometry x="250" y="104" width="80" height="40" as="geometry" />
        </mxCell>
        <mxCell id="4xiStDwNxjF1E1v_tIgF-9" value="" style="edgeStyle=orthogonalEdgeStyle;rounded=0;orthogonalLoop=1;jettySize=auto;html=1;" edge="1" parent="1" source="4xiStDwNxjF1E1v_tIgF-6" target="4xiStDwNxjF1E1v_tIgF-8">
          <mxGeometry relative="1" as="geometry" />
        </mxCell>
        <mxCell id="4xiStDwNxjF1E1v_tIgF-10" style="edgeStyle=orthogonalEdgeStyle;rounded=0;orthogonalLoop=1;jettySize=auto;html=1;" edge="1" parent="1" source="4xiStDwNxjF1E1v_tIgF-11">
          <mxGeometry relative="1" as="geometry">
            <mxPoint x="290" y="143" as="targetPoint" />
            <Array as="points">
              <mxPoint x="390" y="161" />
              <mxPoint x="290" y="161" />
              <mxPoint x="290" y="143" />
            </Array>
          </mxGeometry>
        </mxCell>
        <mxCell id="4xiStDwNxjF1E1v_tIgF-11" value="Clinical validation" style="whiteSpace=wrap;html=1;rounded=0;fillColor=none;" vertex="1" parent="1">
          <mxGeometry x="350" y="104" width="80" height="40" as="geometry" />
        </mxCell>
        <mxCell id="4xiStDwNxjF1E1v_tIgF-12" value="" style="edgeStyle=orthogonalEdgeStyle;rounded=0;orthogonalLoop=1;jettySize=auto;html=1;" edge="1" parent="1" source="4xiStDwNxjF1E1v_tIgF-8" target="4xiStDwNxjF1E1v_tIgF-11">
          <mxGeometry relative="1" as="geometry" />
        </mxCell>
        <mxCell id="4xiStDwNxjF1E1v_tIgF-13" value="" style="edgeStyle=orthogonalEdgeStyle;rounded=0;orthogonalLoop=1;jettySize=auto;html=1;" edge="1" parent="1" source="4xiStDwNxjF1E1v_tIgF-14" target="4xiStDwNxjF1E1v_tIgF-19">
          <mxGeometry relative="1" as="geometry" />
        </mxCell>
        <mxCell id="4xiStDwNxjF1E1v_tIgF-14" value="Radiation therapy" style="whiteSpace=wrap;html=1;rounded=0;fillColor=none;" vertex="1" parent="1">
          <mxGeometry x="520" y="104" width="80" height="40" as="geometry" />
        </mxCell>
        <mxCell id="4xiStDwNxjF1E1v_tIgF-15" value="" style="edgeStyle=orthogonalEdgeStyle;rounded=0;orthogonalLoop=1;jettySize=auto;html=1;" edge="1" parent="1" source="4xiStDwNxjF1E1v_tIgF-11" target="4xiStDwNxjF1E1v_tIgF-14">
          <mxGeometry relative="1" as="geometry" />
        </mxCell>
        <mxCell id="4xiStDwNxjF1E1v_tIgF-16" value="&lt;ul&gt;&lt;li&gt;Simulation therapy&lt;/li&gt;&lt;li&gt;Dosimetry&lt;/li&gt;&lt;li&gt;Safety assessment&lt;/li&gt;&lt;/ul&gt;" style="text;strokeColor=none;fillColor=none;html=1;whiteSpace=wrap;verticalAlign=middle;overflow=hidden;" vertex="1" parent="1">
          <mxGeometry x="320" y="44" width="145" height="60" as="geometry" />
        </mxCell>
        <mxCell id="4xiStDwNxjF1E1v_tIgF-17" value="Optimization" style="text;html=1;strokeColor=none;fillColor=none;align=center;verticalAlign=middle;whiteSpace=wrap;rounded=0;" vertex="1" parent="1">
          <mxGeometry x="310" y="138" width="60" height="30" as="geometry" />
        </mxCell>
        <mxCell id="4xiStDwNxjF1E1v_tIgF-18" style="edgeStyle=orthogonalEdgeStyle;rounded=0;orthogonalLoop=1;jettySize=auto;html=1;exitX=0.5;exitY=1;exitDx=0;exitDy=0;" edge="1" parent="1" source="4xiStDwNxjF1E1v_tIgF-19">
          <mxGeometry relative="1" as="geometry">
            <mxPoint x="280" y="146" as="targetPoint" />
            <mxPoint x="720" y="141" as="sourcePoint" />
            <Array as="points">
              <mxPoint x="720" y="166" />
              <mxPoint x="280" y="166" />
            </Array>
          </mxGeometry>
        </mxCell>
        <mxCell id="4xiStDwNxjF1E1v_tIgF-19" value="Evaluation" style="whiteSpace=wrap;html=1;rounded=0;fillColor=none;" vertex="1" parent="1">
          <mxGeometry x="680" y="104" width="80" height="40" as="geometry" />
        </mxCell>
        <mxCell id="4xiStDwNxjF1E1v_tIgF-20" value="Pre-therapy" style="text;html=1;strokeColor=none;fillColor=none;align=center;verticalAlign=middle;whiteSpace=wrap;rounded=0;fontStyle=1" vertex="1" parent="1">
          <mxGeometry x="40" y="51" width="90" height="30" as="geometry" />
        </mxCell>
        <mxCell id="4xiStDwNxjF1E1v_tIgF-21" value="Therapy" style="text;html=1;strokeColor=none;fillColor=none;align=center;verticalAlign=middle;whiteSpace=wrap;rounded=0;fontStyle=1" vertex="1" parent="1">
          <mxGeometry x="480" y="51" width="90" height="30" as="geometry" />
        </mxCell>
        <mxCell id="4xiStDwNxjF1E1v_tIgF-22" value="Post-therapy" style="text;html=1;strokeColor=none;fillColor=none;align=center;verticalAlign=middle;whiteSpace=wrap;rounded=0;fontStyle=1" vertex="1" parent="1">
          <mxGeometry x="655" y="51" width="90" height="30" as="geometry" />
        </mxCell>
        <mxCell id="4xiStDwNxjF1E1v_tIgF-23" value="Reference" style="text;html=1;strokeColor=none;fillColor=none;align=center;verticalAlign=middle;whiteSpace=wrap;rounded=0;" vertex="1" parent="1">
          <mxGeometry x="655" y="144" width="60" height="30" as="geometry" />
        </mxCell>
        <mxCell id="XI0V0LjRLyuYycgjnU3y-2" value="" style="rounded=1;whiteSpace=wrap;html=1;dashed=1;dashPattern=12 12;fillColor=#f5f5f5;fontColor=#333333;strokeColor=#666666;" vertex="1" parent="1">
          <mxGeometry x="40" y="240" width="540" height="200" as="geometry" />
        </mxCell>
        <mxCell id="XI0V0LjRLyuYycgjnU3y-24" value="" style="edgeStyle=orthogonalEdgeStyle;rounded=0;orthogonalLoop=1;jettySize=auto;html=1;" edge="1" parent="1" source="XI0V0LjRLyuYycgjnU3y-15" target="XI0V0LjRLyuYycgjnU3y-22">
          <mxGeometry relative="1" as="geometry" />
        </mxCell>
        <mxCell id="XI0V0LjRLyuYycgjnU3y-15" value="Imaging PET&lt;br style=&quot;border-color: var(--border-color);&quot;&gt;&lt;sup style=&quot;border-color: var(--border-color);&quot;&gt;68&lt;/sup&gt;Ga" style="rounded=0;whiteSpace=wrap;html=1;fillColor=#dae8fc;strokeColor=#6c8ebf;" vertex="1" parent="1">
          <mxGeometry x="63" y="251.78" width="80" height="40" as="geometry" />
        </mxCell>
        <mxCell id="XI0V0LjRLyuYycgjnU3y-30" value="" style="edgeStyle=orthogonalEdgeStyle;rounded=0;orthogonalLoop=1;jettySize=auto;html=1;" edge="1" parent="1" source="XI0V0LjRLyuYycgjnU3y-21" target="XI0V0LjRLyuYycgjnU3y-29">
          <mxGeometry relative="1" as="geometry" />
        </mxCell>
        <mxCell id="XI0V0LjRLyuYycgjnU3y-40" style="edgeStyle=orthogonalEdgeStyle;rounded=0;orthogonalLoop=1;jettySize=auto;html=1;entryX=0;entryY=0.5;entryDx=0;entryDy=0;exitX=0.5;exitY=1;exitDx=0;exitDy=0;" edge="1" parent="1" source="XI0V0LjRLyuYycgjnU3y-21" target="XI0V0LjRLyuYycgjnU3y-35">
          <mxGeometry relative="1" as="geometry" />
        </mxCell>
        <mxCell id="XI0V0LjRLyuYycgjnU3y-21" value="Imaging PET&lt;br style=&quot;border-color: var(--border-color);&quot;&gt;&lt;sup style=&quot;border-color: var(--border-color);&quot;&gt;177&lt;/sup&gt;Lu" style="rounded=0;whiteSpace=wrap;html=1;fillColor=#dae8fc;strokeColor=#6c8ebf;" vertex="1" parent="1">
          <mxGeometry x="266" y="251.78" width="80" height="40" as="geometry" />
        </mxCell>
        <mxCell id="XI0V0LjRLyuYycgjnU3y-25" value="" style="edgeStyle=orthogonalEdgeStyle;rounded=0;orthogonalLoop=1;jettySize=auto;html=1;" edge="1" parent="1" source="XI0V0LjRLyuYycgjnU3y-22" target="XI0V0LjRLyuYycgjnU3y-21">
          <mxGeometry relative="1" as="geometry" />
        </mxCell>
        <mxCell id="XI0V0LjRLyuYycgjnU3y-22" value="" style="editableCssRules=.*;html=1;shape=image;verticalLabelPosition=bottom;labelBackgroundColor=#ffffff;verticalAlign=top;aspect=fixed;imageAspect=0;image=data:image/svg+xml,PHN2ZyB4bWxucz0iaHR0cDovL3d3dy53My5vcmcvMjAwMC9zdmciIHhtbG5zOnY9Imh0dHBzOi8vdmVjdGEuaW8vbmFubyIgd2lkdGg9IjIwIiBoZWlnaHQ9IjE4LjYwMDAwMDM4MTQ2OTcyNyIgdmlld0JveD0iMCAwIDIwIDE4LjYwMDAwMDM4MTQ2OTcyNyI+JiN4YTsJPHN0eWxlIHR5cGU9InRleHQvY3NzIj4mI3hhOwkuc3Qwe2ZpbGw6I2FlY2JmYTt9JiN4YTsJLnN0MXtmaWxsOiM0Mjg1ZjQ7fSYjeGE7CS5zdDJ7ZmlsbC1ydWxlOmV2ZW5vZGR9JiN4YTsJLnN0M3tmaWxsOiM2NjlkZjY7fSYjeGE7CTwvc3R5bGU+JiN4YTsJPGNpcmNsZSBjeD0iMTAiIGN5PSI5LjMiIHI9IjEuNiIgY2xhc3M9InN0MCIvPiYjeGE7CTxwYXRoIGQ9Ik0xMi42OSA1LjhsLS43NC0uN0g1LjU4djEuNGg2LjM3eiIgY2xhc3M9InN0MSBzdDIiLz4mI3hhOwk8Y2lyY2xlIGN4PSI0LjgiIGN5PSI1LjgiIHI9IjEuMjMiIGNsYXNzPSJzdDMiLz4mI3hhOwk8Y2lyY2xlIGN4PSIxNS4yIiBjeT0iNS44IiByPSIxLjYiIGNsYXNzPSJzdDAiLz4mI3hhOwk8cGF0aCBkPSJNMTQuMzggMTMuNXYtMS40SDguMWwtLjc0LjcuNzQuN3oiIGNsYXNzPSJzdDEgc3QyIi8+JiN4YTsJPGNpcmNsZSBjeD0iNC44IiBjeT0iMTIuOCIgcj0iMS42IiBjbGFzcz0ic3QwIi8+JiN4YTsJPGNpcmNsZSBjeD0iMTUuMiIgY3k9IjEyLjgiIHI9IjEuMjMiIGNsYXNzPSJzdDMiLz4mI3hhOwk8cGF0aCBkPSJNMTUuNiAxLjZsLS43NC0uN0gyLjE4djEuNGgxMi42OHoiIGNsYXNzPSJzdDEgc3QyIi8+JiN4YTsJPGNpcmNsZSBjeD0iMS42IiBjeT0iMS42IiByPSIxLjIzIiBjbGFzcz0ic3QzIi8+JiN4YTsJPGNpcmNsZSBjeD0iMTguNCIgY3k9IjEuNiIgcj0iMS42IiBjbGFzcz0ic3QwIi8+JiN4YTsJPHBhdGggZD0iTTE3Ljg0IDE3Ljd2LTEuNEg1LjE0bC0uNzQuNy43NC43eiIgY2xhc3M9InN0MSBzdDIiLz4mI3hhOwk8Y2lyY2xlIGN4PSIxLjYiIGN5PSIxNyIgcj0iMS42IiBjbGFzcz0ic3QwIi8+JiN4YTsJPGNpcmNsZSBjeD0iMTguNCIgY3k9IjE3IiByPSIxLjIzIiBjbGFzcz0ic3QzIi8+JiN4YTs8L3N2Zz4=;" vertex="1" parent="1">
          <mxGeometry x="176" y="246.00000000000003" width="54.26" height="51.55" as="geometry" />
        </mxCell>
        <mxCell id="XI0V0LjRLyuYycgjnU3y-27" value="PBPK" style="text;html=1;strokeColor=none;fillColor=none;align=center;verticalAlign=middle;whiteSpace=wrap;rounded=0;" vertex="1" parent="1">
          <mxGeometry x="173.13" y="291.78" width="60" height="30" as="geometry" />
        </mxCell>
        <mxCell id="XI0V0LjRLyuYycgjnU3y-33" value="" style="edgeStyle=orthogonalEdgeStyle;rounded=0;orthogonalLoop=1;jettySize=auto;html=1;" edge="1" parent="1" source="XI0V0LjRLyuYycgjnU3y-29" target="XI0V0LjRLyuYycgjnU3y-32">
          <mxGeometry relative="1" as="geometry" />
        </mxCell>
        <mxCell id="XI0V0LjRLyuYycgjnU3y-39" style="edgeStyle=orthogonalEdgeStyle;rounded=0;orthogonalLoop=1;jettySize=auto;html=1;exitX=0.5;exitY=1;exitDx=0;exitDy=0;entryX=1;entryY=0.5;entryDx=0;entryDy=0;" edge="1" parent="1" source="XI0V0LjRLyuYycgjnU3y-32" target="XI0V0LjRLyuYycgjnU3y-35">
          <mxGeometry relative="1" as="geometry" />
        </mxCell>
        <mxCell id="XI0V0LjRLyuYycgjnU3y-32" value="MC Dose map" style="rounded=0;whiteSpace=wrap;html=1;fillColor=#dae8fc;strokeColor=#6c8ebf;" vertex="1" parent="1">
          <mxGeometry x="480" y="251.65999999999997" width="80" height="40" as="geometry" />
        </mxCell>
        <mxCell id="XI0V0LjRLyuYycgjnU3y-41" value="" style="edgeStyle=orthogonalEdgeStyle;rounded=0;orthogonalLoop=1;jettySize=auto;html=1;" edge="1" parent="1" source="XI0V0LjRLyuYycgjnU3y-35" target="XI0V0LjRLyuYycgjnU3y-36">
          <mxGeometry relative="1" as="geometry" />
        </mxCell>
        <mxCell id="XI0V0LjRLyuYycgjnU3y-44" value="" style="edgeStyle=orthogonalEdgeStyle;rounded=0;orthogonalLoop=1;jettySize=auto;html=1;" edge="1" parent="1" source="XI0V0LjRLyuYycgjnU3y-36" target="XI0V0LjRLyuYycgjnU3y-43">
          <mxGeometry relative="1" as="geometry" />
        </mxCell>
        <mxCell id="XI0V0LjRLyuYycgjnU3y-36" value="DL Dose map" style="rounded=0;whiteSpace=wrap;html=1;fillColor=#dae8fc;strokeColor=#6c8ebf;" vertex="1" parent="1">
          <mxGeometry x="378.78" y="389" width="80" height="40" as="geometry" />
        </mxCell>
        <mxCell id="XI0V0LjRLyuYycgjnU3y-43" value="RTDOSE" style="rounded=0;whiteSpace=wrap;html=1;fillColor=#d5e8d4;strokeColor=#82b366;" vertex="1" parent="1">
          <mxGeometry x="199.99999999999997" y="389" width="80" height="40" as="geometry" />
        </mxCell>
        <mxCell id="XI0V0LjRLyuYycgjnU3y-46" value="Evaluation" style="text;html=1;strokeColor=none;fillColor=none;align=center;verticalAlign=middle;whiteSpace=wrap;rounded=0;" vertex="1" parent="1">
          <mxGeometry x="295" y="404" width="70" height="30" as="geometry" />
        </mxCell>
        <mxCell id="XI0V0LjRLyuYycgjnU3y-47" value="" style="group" vertex="1" connectable="0" parent="1">
          <mxGeometry x="388.78" y="330.78" width="60" height="50" as="geometry" />
        </mxCell>
        <mxCell id="XI0V0LjRLyuYycgjnU3y-49" value="" style="group" vertex="1" connectable="0" parent="XI0V0LjRLyuYycgjnU3y-47">
          <mxGeometry y="-19" width="60" height="50" as="geometry" />
        </mxCell>
        <mxCell id="XI0V0LjRLyuYycgjnU3y-35" value="" style="editableCssRules=.*;shape=image;verticalLabelPosition=bottom;labelBackgroundColor=#ffffff;verticalAlign=top;aspect=fixed;imageAspect=0;image=data:image/svg+xml,PHN2ZyB4bWxucz0iaHR0cDovL3d3dy53My5vcmcvMjAwMC9zdmciIHhtbG5zOnY9Imh0dHBzOi8vdmVjdGEuaW8vbmFubyIgd2lkdGg9IjIwIiBoZWlnaHQ9IjE3LjUiIGZpbGwtcnVsZT0iZXZlbm9kZCIgdmlld0JveD0iMCAwIDIwIDE3LjUiPiYjeGE7CTxzdHlsZSB0eXBlPSJ0ZXh0L2NzcyI+JiN4YTsJLnN0MHtmaWxsOiM0Mjg1ZjQ7fSYjeGE7CS5zdDF7ZmlsbDojNjY5ZGY2O30mI3hhOwk8L3N0eWxlPiYjeGE7CTxwYXRoIGNsYXNzPSJzdDAiIGQ9Ik0xOC45MSAxMC42M0wyMCA4Ljc1IDE3LjgyIDVoLTMuMDdsLTEuMDYtMS44NkgxMi41VjEuODhoMS45NGwxLjA2IDEuODdoMS41OUwxNC45IDBoLTQuMjd2NWgxLjczbC43MyAxLjI1aC0yLjQ2djIuNWgyLjI2bDEuMDUtMS44N2gyLjgxbC43MiAxLjI1aC0yLjhMMTMuNjIgMTBoLTIuOTl2NC4zOGgzLjRsLS43MiAxLjI1aC0yLjY4djEuODdoNC4yN2wzLjI4LTUuNjJoLTIuMDlsLS43MyAxLjI1SDEyLjV2LTEuMjVoMi4xNGwuNzQtMS4yNXoiLz4mI3hhOwk8cGF0aCBjbGFzcz0ic3QxIiBkPSJNMS4wOSAxMC42M0wwIDguNzUgMi4xOCA1aDMuMDdsMS4wNi0xLjg2SDcuNVYxLjg4SDUuNTZMNC41IDMuNzVIMi45MUw1LjEgMGg0LjI4djVINy42NGwtLjczIDEuMjVoMi40N3YyLjVINy4xMUw2LjA2IDYuODhIMy4yNWwtLjcyIDEuMjVoMi44TDYuMzggMTBoM3Y0LjM4SDUuOTdsLjcyIDEuMjVoMi42OXYxLjg3SDUuMWwtMy4yOC01LjYyaDIuMDlsLjczIDEuMjVINy41di0xLjI1SDUuMzZsLS43NC0xLjI1eiIvPiYjeGE7PC9zdmc+;fillColor=none;opacity=70;" vertex="1" parent="XI0V0LjRLyuYycgjnU3y-49">
          <mxGeometry x="2.2200000000000273" width="55.56" height="50" as="geometry" />
        </mxCell>
        <mxCell id="XI0V0LjRLyuYycgjnU3y-26" value="DL" style="text;html=1;strokeColor=none;fillColor=none;align=center;verticalAlign=middle;whiteSpace=wrap;rounded=0;" vertex="1" parent="XI0V0LjRLyuYycgjnU3y-49">
          <mxGeometry y="10" width="60" height="30" as="geometry" />
        </mxCell>
        <mxCell id="XI0V0LjRLyuYycgjnU3y-50" value="" style="group" vertex="1" connectable="0" parent="1">
          <mxGeometry x="388.78" y="245.78" width="60" height="51.76000000000002" as="geometry" />
        </mxCell>
        <mxCell id="XI0V0LjRLyuYycgjnU3y-29" value="" style="editableCssRules=.*;html=1;shape=image;verticalLabelPosition=bottom;labelBackgroundColor=#ffffff;verticalAlign=top;aspect=fixed;imageAspect=0;image=data:image/svg+xml,PHN2ZyB4bWxucz0iaHR0cDovL3d3dy53My5vcmcvMjAwMC9zdmciIHhtbG5zOnY9Imh0dHBzOi8vdmVjdGEuaW8vbmFubyIgd2lkdGg9IjE2Ljk3OTk5OTU0MjIzNjMyOCIgaGVpZ2h0PSIyMCIgdmlld0JveD0iMCAwIDE2Ljk3OTk5OTU0MjIzNjMyOCAyMCI+JiN4YTsJPHN0eWxlIHR5cGU9InRleHQvY3NzIj4mI3hhOwkuc3Qwe2ZpbGw6IzY2OWRmNjt9JiN4YTsJLnN0MXtmaWxsOiM0Mjg1ZjQ7fSYjeGE7CS5zdDJ7ZmlsbDojYWVjYmZhO30mI3hhOwk8L3N0eWxlPiYjeGE7CTxnIGNsYXNzPSJzdDAiPiYjeGE7CQk8cGF0aCBkPSJNOC40OSAxMC4yOUwuMjQgNS4zNSA4LjQ5LjU4bDguMjQgNC42N3pNMS43NiA1LjM2bDYuNzIgNCA2LjcyLTQuMTEtNi43MS0zLjc4eiIvPiYjeGE7CQk8cGF0aCBkPSJNOC40OSAxOS40NEwuMjEgMTMuODkgOC40OSA5LjNsOC4xNSA0LjY0em0tNi44LTUuNWw2LjggNC41NiA2LjctNC41LTYuNy0zLjgyeiIvPiYjeGE7CTwvZz4mI3hhOwk8ZyBjbGFzcz0ic3QxIj4mI3hhOwkJPHBhdGggZD0iTS42MTMgNS41MDJsLjY3NS0uMzcxIDcuNDc3IDEzLjYtLjY3NS4zNzF6Ii8+JiN4YTsJCTxwYXRoIGQ9Ik04LjE5NCAxOC44MjZsNy4zMDEtMTMuNTU5LjY3OC4zNjUtNy4zMDEgMTMuNTU5ek0uNzE2IDEzLjY4N0w4LjA5Ni45MDRsLjY2Ny4zODUtNy4zOCAxMi43ODN6Ii8+JiN4YTsJCTxwYXRoIGQ9Ik04LjE5NCAxLjIxNGwuNjY5LS4zODEgNy40MDUgMTIuOTg3LS42NjkuMzgxeiIvPiYjeGE7CQk8cGF0aCBkPSJNOC4xMy45NmguNzdWMTguOWgtLjc3ek0uNTUgNS40M2guNzd2OC42NkguNTV6bTE0Ljk3LS4wOWguNzdWMTRoLS43N3oiLz4mI3hhOwk8L2c+JiN4YTsJPGcgY2xhc3M9InN0MiI+JiN4YTsJCTxjaXJjbGUgY3g9IjguNTIiIGN5PSIxLjA3IiByPSIxLjA3Ii8+JiN4YTsJCTxjaXJjbGUgY3g9IjE1LjkxIiBjeT0iNS4zNCIgcj0iMS4wNyIvPiYjeGE7CQk8Y2lyY2xlIGN4PSIxLjA3IiBjeT0iNS4zNCIgcj0iMS4wNyIvPiYjeGE7CQk8Y2lyY2xlIGN4PSI4LjUyIiBjeT0iOS45MyIgcj0iMS42OCIvPiYjeGE7CQk8Y2lyY2xlIGN4PSIxNS45MSIgY3k9IjEzLjk0IiByPSIxLjA3Ii8+JiN4YTsJCTxjaXJjbGUgY3g9IjEuMDciIGN5PSIxMy45NCIgcj0iMS4wNyIvPiYjeGE7CQk8Y2lyY2xlIGN4PSI4LjUyIiBjeT0iMTguOTMiIHI9IjEuMDciLz4mI3hhOwkJPHBhdGggZD0iTTguNDkgMTAuMjlMLjI0IDUuMzUgOC40OS41OGw4LjI0IDQuNjd6TTEuNzYgNS4zNmw2LjcyIDQgNi43Mi00LjExLTYuNzEtMy43OHoiLz4mI3hhOwkJPHBhdGggZD0iTTguNDkgMTkuNDRMLjIxIDEzLjg5IDguNDkgOS4zbDguMTUgNC42NHptLTYuOC01LjVsNi44IDQuNTYgNi43LTQuNS02LjctMy44MnoiLz4mI3hhOwkJPHBhdGggZD0iTS42MTMgNS41MDJsLjY3NS0uMzcxIDcuNDc3IDEzLjYtLjY3NS4zNzF6Ii8+JiN4YTsJCTxwYXRoIGQ9Ik04LjE5NCAxOC44MjZsNy4zMDEtMTMuNTU5LjY3OC4zNjUtNy4zMDEgMTMuNTU5ek0uNzE2IDEzLjY4N0w4LjA5Ni45MDRsLjY2Ny4zODUtNy4zOCAxMi43ODN6Ii8+JiN4YTsJCTxwYXRoIGQ9Ik04LjE5NCAxLjIxNGwuNjY5LS4zODEgNy40MDUgMTIuOTg3LS42NjkuMzgxeiIvPiYjeGE7CQk8cGF0aCBkPSJNOC4xMy45NmguNzdWMTguOWgtLjc3ek0uNTUgNS40M2guNzd2OC42NkguNTV6bTE0Ljk3LS4wOWguNzdWMTRoLS43N3oiLz4mI3hhOwk8L2c+JiN4YTsJPGcgY2xhc3M9InN0MCI+JiN4YTsJCTxjaXJjbGUgY3g9IjguNTIiIGN5PSIxLjA3IiByPSIxLjA3Ii8+JiN4YTsJCTxjaXJjbGUgY3g9IjE1LjkxIiBjeT0iNS4zNCIgcj0iMS4wNyIvPiYjeGE7CQk8Y2lyY2xlIGN4PSIxLjA3IiBjeT0iNS4zNCIgcj0iMS4wNyIvPiYjeGE7CQk8Y2lyY2xlIGN4PSI4LjUyIiBjeT0iOS45MyIgcj0iMS42OCIvPiYjeGE7CQk8Y2lyY2xlIGN4PSIxNS45MSIgY3k9IjEzLjk0IiByPSIxLjA3Ii8+JiN4YTsJCTxjaXJjbGUgY3g9IjEuMDciIGN5PSIxMy45NCIgcj0iMS4wNyIvPiYjeGE7CQk8Y2lyY2xlIGN4PSI4LjUyIiBjeT0iMTguOTMiIHI9IjEuMDciLz4mI3hhOwk8L2c+JiN4YTs8L3N2Zz4=;opacity=80;" vertex="1" parent="XI0V0LjRLyuYycgjnU3y-50">
          <mxGeometry x="8" width="44" height="51.76" as="geometry" />
        </mxCell>
        <mxCell id="XI0V0LjRLyuYycgjnU3y-31" value="MC" style="text;html=1;strokeColor=none;fillColor=none;align=center;verticalAlign=middle;whiteSpace=wrap;rounded=0;" vertex="1" parent="XI0V0LjRLyuYycgjnU3y-50">
          <mxGeometry y="10.879999999999967" width="60" height="30" as="geometry" />
        </mxCell>
      </root>
    </mxGraphModel>
  </diagram>
</mxfile>
